<svg xmlns="http://www.w3.org/2000/svg" width="87.51" height="75.145" viewBox="0 0 87.51 75.145"><defs><style>.a,.d{fill:#b3b3b3;}.b{fill:#fa0f00;}.c{fill:none;}.d{fill-rule:evenodd;}</style></defs><g transform="translate(-4147 5638)"><g transform="translate(3782.053 -6011.399)"><g transform="translate(-1)"><line class="a" x2="17.781" transform="translate(397.897 388)"/><path class="b" d="M414.717,389H397.9a1,1,0,0,1,0-2h16.82a1,1,0,0,1,0,2Z"/><path class="c" d="M409.587,392.525a.9.9,0,0,1-.484-1.659L413.6,388l-4.5-2.865a.9.9,0,0,1,.965-1.521l5.693,3.626a.9.9,0,0,1,0,1.518l-5.7,3.627A.9.9,0,0,1,409.587,392.525Z"/></g><g transform="translate(1)"><line class="a" y2="17.781" transform="translate(434.539 400.36)"/><path class="b" d="M433.539,417.179V400.36a1,1,0,0,1,2,0v16.819a1,1,0,0,1-2,0Z"/><path class="c" d="M430.013,412.049a.9.9,0,0,1,1.659-.484l2.867,4.5,2.865-4.5a.9.9,0,0,1,1.52.966l-3.626,5.693a.9.9,0,0,1-1.517,0l-3.627-5.7A.907.907,0,0,1,430.013,412.049Z"/></g><g transform="translate(1)"><line class="a" x1="17.781" transform="translate(397.835 435)"/><path class="b" d="M398.8,436h16.819a1,1,0,0,0,0-2H398.8a1,1,0,0,0,0,2Z"/><path class="b" d="M403.927,439.525a.9.9,0,0,0,.484-1.659L399.91,435l4.5-2.865a.9.9,0,0,0-.966-1.521l-5.693,3.626a.9.9,0,0,0,0,1.518l5.694,3.627A.906.906,0,0,0,403.927,439.525Z"/></g><path class="d" d="M424.3,448.544a2.164,2.164,0,0,1-2.15-2.151v-20.4a2.162,2.162,0,0,1,2.151-2.15h10.8a2.618,2.618,0,0,1,.383-.031,2.154,2.154,0,0,1,1.795.959l3.149,2.894.211.209a3.387,3.387,0,0,1,1.412,2.5v16.018a2.162,2.162,0,0,1-2.151,2.15Zm-.25-1.9h16.1v-14.9H436.3a2.164,2.164,0,0,1-2.15-2.151v-3.849h-10.1Zm12-16.8H440l-3.95-3.95Zm11.1,4.208a.116.116,0,0,1-.077-.029l-3.3-3.893c-.03-.136-.014-.179.016-.212l2.232-.036h.25v-1.871a4.982,4.982,0,0,0-4.838-5.1h-2.012a.54.54,0,0,1-.511-.55v-.821a.538.538,0,0,1,.5-.556H441.4a6.484,6.484,0,0,1,4.689,2.052,7.217,7.217,0,0,1,1.91,4.975v1.874h2.324a.128.128,0,0,1,.1.04.182.182,0,0,1,.042.115l-.032.1-3.2,3.884Z" transform="translate(2)"/><g transform="translate(1)"><path class="a" d="M423.409,383.845a.477.477,0,0,1-.339-.146.484.484,0,0,1-.139-.345,11.28,11.28,0,0,1,11.175-9.955l.241,0a11.174,11.174,0,0,1,9.307,5.1l.178.273,3.182-3.539.152,0,.035.094.027,8.4a.109.109,0,0,1-.11.109h-8.04a.108.108,0,0,1-.106-.111l3.66-3.661-.1-.169a10.094,10.094,0,0,0-8.159-4.8h-.127c-4.927,0-8.609,3.186-9.61,8.316a.507.507,0,0,1-.48.438Z"/><path class="a" d="M421.227,396.239a.48.48,0,0,1-.48-.479v-8.023a.48.48,0,0,1,.48-.479h6.563a.481.481,0,0,1,.481.479v8.023a.481.481,0,0,1-.48.479Zm1.208-1.689h4.147v-5.6h-4.147Z"/><path class="a" d="M431.437,396.239a.48.48,0,0,1-.48-.479v-8.023a.48.48,0,0,1,.48-.479H438a.481.481,0,0,1,.481.479v8.023a.48.48,0,0,1-.48.479Zm1.208-1.689h4.146v-5.6h-4.146Z"/><rect class="a" width="7.523" height="8.981" rx="0.479" transform="translate(441.165 387.258)"/></g><path class="d" d="M386.347,398.3v-1.2H381.3a2.164,2.164,0,0,1-2.15-2.152V389.9h-8.9v8.4h-1.9v-8.151A2.163,2.163,0,0,1,370.5,388h9.6a3.477,3.477,0,0,1,2.676,1.455l3.876,3.521a4.573,4.573,0,0,1,1.6,3.19V398.3Zm-5.3-3.1h5.174l-5.174-5.173Zm5.3-10.1v-1.9h1.9v1.9Zm-3.6,0v-1.9h1.9v1.9Zm-3.6,0v-1.9h1.9v1.9Zm-3.6,0v-1.9h1.9v1.9Zm-3.6,0v-1.9h1.9v1.9Zm-3.6,0v-1.9h1.9v1.9Zm2.15-4.8a2.163,2.163,0,0,1-2.15-2.152V373.6h1.9v4.8h16.1v-4.8h1.9v4.549A2.163,2.163,0,0,1,386.1,380.3Z"/><path class="a" d="M370.753,447.544a2.162,2.162,0,0,1-2.149-2.151v-4.12l1.9-1.9v6.271h16.1v-6.271l1.9,1.9v4.121a2.162,2.162,0,0,1-2.15,2.15Zm20.373-7.229a.946.946,0,0,1-.635-.244l-3.609-3.606a.952.952,0,0,1-.054-1.28l3.643-3.642a.946.946,0,1,1,1.367,1.307l-2.947,2.944,2.926,2.919a.95.95,0,0,1-.691,1.6Zm-25.145,0a.95.95,0,0,1-.687-1.606l2.923-2.915-2.95-2.947a1.076,1.076,0,0,1-.1-.1.95.95,0,0,1,.112-1.338.953.953,0,0,1,1.339.111l3.662,3.669a.951.951,0,0,1-.059,1.275l-3.619,3.616A.94.94,0,0,1,365.981,440.315Zm2.623-9.96v-4.161a2.162,2.162,0,0,1,2.15-2.15h11.773a1.757,1.757,0,0,1,1.261.524l4.191,4.124a1.3,1.3,0,0,1,.526.89l0,.728-1.9,1.919v-2.18l-4.229-4.105H370.5v6.292Z"/></g></g></svg>