<svg xmlns="http://www.w3.org/2000/svg" width="18" height="23" viewBox="0 0 18 23"><defs><style>.a{fill:rgba(103,103,236,0.2);}.a,.b,.d{fill-rule:evenodd;}.b,.c{fill:#50a3e7;}.d{fill:#6767ec;}</style></defs><g transform="translate(-3 -1)"><path class="a" d="M12,2.724A14.3,14.3,0,0,1,5,5.691v8.295c0,5.106,5.81,7.387,7,7.807Z"/><path class="b" d="M11,1.02V1h.03L11,1.02"/><line class="c" x2="0.1" transform="translate(12 22)"/><path class="d" d="M16.5,21.871C18.9,20.079,21,16.494,21,14.1V4.2c-3.12-.109-6.46-1.971-8-2.951a2.162,2.162,0,0,0-2,0C9.46,2.225,6.12,4.087,3,4.2v9.9c0,2.4,2.1,5.981,4.5,7.773A15.217,15.217,0,0,0,12,24,15.217,15.217,0,0,0,16.5,21.871Zm-4.45-.129h-.1C10.76,21.317,5,19.039,5,14.1V5.681A13.431,13.431,0,0,0,12,2.74a13.431,13.431,0,0,0,7,2.941V14.1c0,4.941-5.76,7.219-6.95,7.644Z"/></g></svg>