<svg xmlns="http://www.w3.org/2000/svg" xmlns:xlink="http://www.w3.org/1999/xlink" width="299" height="139.664" viewBox="0 0 299 139.664"><defs><style>.a{fill:#c7c7c7;}.b,.g,.y{fill:#61bdc9;}.b,.c,.d,.f,.g,.j,.k,.l{opacity:0.75;}.c,.x{fill:#80c1a3;}.d,.w{fill:#1473e6;}.e,.o{fill:#fff;}.f{fill:#4f96ec;}.g{stroke:rgba(0,0,0,0);stroke-miterlimit:10;}.h{fill:#e1e1e1;}.i,.j,.k,.l{fill:none;stroke-width:2px;}.i{stroke:#e1e1e1;}.j{stroke:#81c6cf;}.j,.k,.l{stroke-linecap:round;}.k{stroke:#99c9b3;}.l{stroke:#488fe5;}.m,.n{fill:#747474;font-family:AdobeClean-Bold, Adobe Clean;font-weight:700;}.m,.x{font-size:11px;}.n,.w,.y{font-size:12px;}.o,.s{opacity:0.5;}.p,.r,.s{fill:#b3b3b3;}.p,.q{opacity:0.504;}.t{fill:rgba(128,193,163,0.2);stroke:#80c1a3;}.t,.u,.v{stroke-width:1.5px;mix-blend-mode:multiply;isolation:isolate;}.u{fill:rgba(97,189,201,0.2);stroke:#61bdc9;}.v{fill:rgba(20,115,230,0.2);stroke:#1473e6;}.w,.x,.y{font-family:AdobeClean-ExtraBoldIt, Adobe Clean;font-weight:800;font-style:italic;}.z{filter:url(#g);}.aa{filter:url(#e);}.ab{filter:url(#c);}.ac{filter:url(#a);}</style><filter id="a" x="220" y="69.223" width="79" height="63" filterUnits="userSpaceOnUse"><feOffset dy="3" input="SourceAlpha"/><feGaussianBlur stdDeviation="5" result="b"/><feFlood flood-opacity="0.161"/><feComposite operator="in" in2="b"/><feComposite in="SourceGraphic"/></filter><filter id="c" x="221.839" y="0" width="74.629" height="74.629" filterUnits="userSpaceOnUse"><feOffset dy="3" input="SourceAlpha"/><feGaussianBlur stdDeviation="5" result="d"/><feFlood flood-opacity="0.161"/><feComposite operator="in" in2="d"/><feComposite in="SourceGraphic"/></filter><filter id="e" x="4.394" y="16.473" width="101.671" height="123.191" filterUnits="userSpaceOnUse"><feOffset dy="3" input="SourceAlpha"/><feGaussianBlur stdDeviation="5" result="f"/><feFlood flood-opacity="0.161"/><feComposite operator="in" in2="f"/><feComposite in="SourceGraphic"/></filter><filter id="g" x="13" y="9.223" width="101" height="122" filterUnits="userSpaceOnUse"><feOffset dy="3" input="SourceAlpha"/><feGaussianBlur stdDeviation="5" result="h"/><feFlood flood-opacity="0.161"/><feComposite operator="in" in2="h"/><feComposite in="SourceGraphic"/></filter></defs><g transform="translate(-1693.012 -1443.314)"><g transform="translate(1835.19 1500.951)"><path class="a" d="M1873.138,1256.575a5.326,5.326,0,0,1-5.1-5.522c0-.148.017-.294.036-.443l0-4.121a3.822,3.822,0,0,0-1.9-3.551.25.25,0,0,1-.142-.141.212.212,0,0,1,.008-.165.218.218,0,0,1,.1-.1,3.843,3.843,0,0,0,1.926-3.6c0-.923,0-.961-.03-3.974a5.278,5.278,0,0,1,4.583-5.929l.113-.013c.144-.014.266-.021.389-.025l.948-.147a.347.347,0,0,1,.331.337v2.63a.341.341,0,0,1-.344.31l-1.839.144h-.037a1.209,1.209,0,0,0-1.2,1.125l0,5.405a6.562,6.562,0,0,1-1.968,3.632l-.347.325.342.33a6.747,6.747,0,0,1,1.967,3.635v5.383a1.225,1.225,0,0,0,1.22,1.155h1.914a.35.35,0,0,1,.362.337v2.655a.344.344,0,0,1-.344.331Z" transform="translate(-1866.021 -1228.842)"/><path class="a" d="M1952.083,1256.45a.346.346,0,0,1-.344-.337v-2.663a.345.345,0,0,1,.345-.331h1.967a1.225,1.225,0,0,0,1.26-1.115l0-5.454a6.766,6.766,0,0,1,1.967-3.636l.343-.33-.348-.325a6.558,6.558,0,0,1-1.962-3.592v-5.373a1.217,1.217,0,0,0-1.205-1.155h-1.949a.351.351,0,0,1-.363-.335v-2.633a.346.346,0,0,1,.345-.331h1.04a5.249,5.249,0,0,1,5.068,5.4c-.006.175-.02.351-.043.527,0,1.983-.017,2.691-.027,3.2-.005.29-.009.517-.009.862a3.854,3.854,0,0,0,1.938,3.552.218.218,0,0,1,.028.4l-.713.343.126.084a3.875,3.875,0,0,0-1.373,3.174v4.042a5.319,5.319,0,0,1-4.577,5.98c-.152.019-.306.031-.461.038Z" transform="translate(-1909.665 -1228.842)"/><rect class="b" width="23.233" height="3.829" rx="1.5" transform="translate(13.521 17.694)"/><rect class="c" width="23.233" height="3.829" rx="1.5" transform="translate(13.521 11.738)"/><rect class="d" width="23.233" height="3.829" rx="1.5" transform="translate(13.521 4.931)"/></g><g transform="translate(1927.45 1524.42)"><g class="ac" transform="matrix(1, 0, 0, 1, -234.44, -81.11)"><rect class="e" width="49" height="33" rx="6" transform="translate(235 81.22)"/></g><rect class="c" width="13.942" height="1.9" rx="0.95" transform="translate(24.259 22.668)"/><rect class="c" width="21.416" height="1.9" rx="0.95" transform="translate(24.259 18.591)"/><rect class="f" width="21.416" height="1.9" rx="0.95" transform="translate(24.259 14.515)"/><path class="g" d="M.679,17.665A.679.679,0,0,1,0,16.984V.681A.679.679,0,0,1,.679,0H16.984a.679.679,0,0,1,.68.681v16.3a.679.679,0,0,1-.68.681Zm14.666-1.36L8.832,9.794,2.32,16.305Zm.961-.961V2.32L9.793,8.833Zm-14.946,0L7.871,8.832,1.359,2.32ZM8.832,7.871l6.512-6.512H2.319Z" transform="translate(3.877 11.118)"/><ellipse class="h" cx="0.95" cy="0.95" rx="0.95" ry="0.95" transform="translate(38.526 2.189)"/><ellipse class="h" cx="0.95" cy="0.95" rx="0.95" ry="0.95" transform="translate(41.244 2.189)"/><ellipse class="h" cx="0.95" cy="0.95" rx="0.95" ry="0.95" transform="translate(43.961 2.189)"/><rect class="h" width="27.53" height="1.9" rx="0.95" transform="translate(3.198 2.189)"/><path class="i" d="M-735-14157.407h49.562" transform="translate(734.997 14164.425)"/></g><g transform="translate(1929.851 1455.314)"><g class="ab" transform="matrix(1, 0, 0, 1, -236.84, -12)"><path class="e" d="M0,37.656V25.486c2.494,3.946,15.431,5.579,22.315,5.579s18.9-1.269,22.315-5.585V37.656c0,3.849-9.992,6.973-22.315,6.973S0,41.5,0,37.656ZM0,22.082v-11.7c2.494,3.95,15.431,5.579,22.315,5.579s18.9-1.269,22.315-5.585V22.082c0,3.849-9.992,6.973-22.315,6.973S0,25.931,0,22.082ZM0,6.973C0,3.122,9.991,0,22.315,0S44.629,3.122,44.629,6.973s-9.991,6.973-22.315,6.973S0,10.825,0,6.973Z" transform="translate(236.84 12)"/></g><circle class="h" cx="0.949" cy="0.949" r="0.949" transform="translate(38.578 18.963)"/><circle class="h" cx="0.949" cy="0.949" r="0.949" transform="translate(38.578 34.069)"/><path class="j" d="M0,4.2A7.7,7.7,0,0,0,1.4,0" transform="translate(7.119 21.917) rotate(90)"/><path class="j" d="M0,4.2A7.7,7.7,0,0,0,1.4,0" transform="translate(7.119 37.349) rotate(90)"/><path class="k" d="M0,4.2A7.7,7.7,0,0,0,1.4,0" transform="translate(7.119 18.643) rotate(90)"/><path class="k" d="M0,4.2A7.7,7.7,0,0,0,1.4,0" transform="translate(7.119 34.076) rotate(90)"/><path class="l" d="M0,4.2A7.7,7.7,0,0,0,1.4,0" transform="translate(7.119 15.369) rotate(90)"/><path class="l" d="M0,4.2A7.7,7.7,0,0,0,1.4,0" transform="translate(7.119 30.802) rotate(90)"/></g><text class="m" transform="translate(1929.012 1512.538)"><tspan x="0" y="0">Database</tspan></text><text class="n" transform="translate(1847.012 1541.538)"><tspan x="0" y="0">JSON</tspan></text><text class="m" transform="translate(1938.012 1570.538)"><tspan x="0" y="0">HTML</tspan></text><g transform="translate(1712.406 1464.475)"><g class="aa" transform="matrix(1, 0, 0, 1, -19.39, -21.16)"><path class="o" d="M5.131-.006h44.4c1.536,0,4.247-.2,6.033,1.659S66.786,13.331,69.027,15.668s2.644,3.758,2.644,5.122V87.8a5.261,5.261,0,0,1-5.131,5.383H5.131A5.261,5.261,0,0,1,0,87.8V5.376A5.261,5.261,0,0,1,5.131-.006Z" transform="translate(19.39 28.49)"/></g><g class="z" transform="matrix(1, 0, 0, 1, -19.39, -21.16)"><rect class="e" width="71" height="92" rx="6" transform="translate(28 21.22)"/></g><rect class="p" width="6.321" height="2.529" rx="1.264" transform="translate(60.432 73.857)"/><rect class="p" width="6.321" height="2.529" rx="1.264" transform="translate(60.432 69.432)"/><rect class="p" width="6.321" height="2.529" rx="1.264" transform="translate(60.432 65.007)"/><rect class="p" width="6.321" height="2.529" rx="1.264" transform="translate(49.686 73.857)"/><rect class="p" width="6.321" height="2.529" rx="1.264" transform="translate(49.686 69.432)"/><rect class="p" width="6.321" height="2.529" rx="1.264" transform="translate(49.686 65.007)"/><rect class="p" width="16.435" height="2.529" rx="1.264" transform="translate(27.562 73.857)"/><rect class="p" width="16.435" height="2.529" rx="1.264" transform="translate(27.562 69.432)"/><rect class="p" width="16.435" height="2.529" rx="1.264" transform="translate(27.562 65.007)"/><g class="q" transform="translate(18.799 54.98)"><path class="r" d="M1683.854,1586.062h-4.477a1.673,1.673,0,0,1-1.671-1.672v-21.543h6.147Zm-4.425-1.723h2.7V1564.57h-2.7Z" transform="translate(-1677.707 -1558.422)"/><path class="r" d="M1710.523,1586.062h-25.112v-23.215h25.112Zm-23.389-1.723H1708.8V1564.57h-21.666Z" transform="translate(-1680.986 -1558.422)"/><path class="r" d="M1755.645,1586.062h-10.8v-23.215h12.469v21.543A1.674,1.674,0,0,1,1755.645,1586.062Zm-9.074-1.723h9.023V1564.57h-9.023Z" transform="translate(-1706.288 -1558.422)"/><path class="r" d="M1738.605,1586.062h-12.469v-23.215h12.469Zm-10.746-1.723h9.024V1564.57h-9.024Z" transform="translate(-1698.323 -1558.422)"/><path class="r" d="M1728.736,1561.291h-51.029v-4.477a1.672,1.672,0,0,1,1.671-1.671h47.686a1.673,1.673,0,0,1,1.672,1.671Zm-49.306-1.723h47.583v-2.7H1679.43Z" transform="translate(-1677.707 -1555.143)"/></g><g transform="translate(19.977 28.015)"><rect class="h" width="24.653" height="2.529" rx="1.264" transform="translate(0 17.979)"/><rect class="h" width="49.306" height="2.529" rx="1.264" transform="translate(0 12.29)"/><rect class="h" width="49.306" height="2.529" rx="1.264" transform="translate(0 7.233)"/><rect class="s" width="26.549" height="2.529" rx="1.264" transform="translate(11.378 0)"/></g><path class="s" d="M1680.927,1481.179h34.627a1.251,1.251,0,0,1,1.237,1.265h0a1.251,1.251,0,0,1-1.237,1.264h-34.627a1.251,1.251,0,0,1-1.237-1.264h0A1.251,1.251,0,0,1,1680.927,1481.179Z" transform="translate(-1659.752 -1468.209)"/><rect class="t" width="33.247" height="6.509" rx="3.255" transform="translate(28.187 25.969)"/><rect class="u" width="56.13" height="32.397" rx="4" transform="translate(16.028 52.601)"/><rect class="v" width="41.145" height="6.257" rx="3.128" transform="translate(17.899 11.144)"/></g><text class="w" transform="translate(1720.012 1481.538)"><tspan x="-21.792" y="0">Title</tspan></text><text class="x" transform="translate(1729.012 1495.538)"><tspan x="-33" y="0">Header</tspan></text><text class="y" transform="translate(1720.012 1536.538)"><tspan x="-26.808" y="0">Table</tspan></text><path class="a" d="M2000.65,1527.627h-11.3a.664.664,0,0,0-.665.664h0v6.646a.664.664,0,0,0,.665.665h11.3v4.647a.332.332,0,0,0,.567.235l8.871-8.871-8.87-8.87a.332.332,0,0,0-.568.235Z" transform="translate(-92.792 -16.859)"/><path class="a" d="M1827.65,1527.627h-11.3a.664.664,0,0,0-.665.664h0v6.646a.664.664,0,0,0,.665.665h11.3v4.647a.332.332,0,0,0,.567.235l8.871-8.871-8.87-8.87a.332.332,0,0,0-.47,0,.328.328,0,0,0-.1.236Z" transform="translate(-12.206 -16.859)"/></g></svg>