<svg xmlns="http://www.w3.org/2000/svg" xmlns:xlink="http://www.w3.org/1999/xlink" width="996.381" height="259" viewBox="0 0 996.381 259"><defs><style>.a{fill:#c7c7c7;}.b,.c{fill:#fff;}.b{opacity:0.5;}.d{fill:#e1e1e1;}.e{fill:rgba(20,115,230,0.2);stroke:#1473e6;}.ad,.e,.i,.k{stroke-width:2px;}.e,.i,.k{mix-blend-mode:multiply;isolation:isolate;}.f,.h{fill:#b3b3b3;}.f,.g{opacity:0.504;}.i{fill:rgba(61,167,78,0.15);stroke:#3da74e;}.j{fill:#d9d9d9;}.k{fill:rgba(206,39,131,0.15);stroke:#ce2783;}.l,.s{fill:#1473e6;}.ab,.l,.m,.n{stroke:rgba(0,0,0,0);}.aa,.m{fill:#3da74e;}.n,.w{fill:#ce2783;}.ad,.ag,.o{fill:none;}.p{fill:#043e84;}.q{fill:#cdddf2;}.r{fill:#a9c7ed;}.t{fill:#790b48;}.u{fill:#e5c9d8;}.v{fill:#d9abc4;}.x{fill:#1a6425;}.y{fill:#c7ddcb;}.z{fill:#a6c3ab;}.ab{fill:#535353;}.ac{opacity:0.8;}.ad,.ag{stroke:#7e9cc3;stroke-linecap:round;stroke-linejoin:round;}.ad{stroke-miterlimit:10;}.ae,.af{fill:#7e9cc3;}.af{opacity:0;}.ah{opacity:0.7;}.ai{filter:url(#s);}.aj{filter:url(#q);}.ak{filter:url(#o);}.al{filter:url(#m);}.am{filter:url(#k);}.an{filter:url(#i);}.ao{filter:url(#g);}.ap{filter:url(#e);}.aq{filter:url(#c);}.ar{filter:url(#a);}</style><filter id="a" x="74.608" y="19.795" width="183.254" height="233.271" filterUnits="userSpaceOnUse"><feOffset dy="3" input="SourceAlpha"/><feGaussianBlur stdDeviation="5" result="b"/><feFlood flood-opacity="0.122"/><feComposite operator="in" in2="b"/><feComposite in="SourceGraphic"/></filter><filter id="c" x="87.382" y="0" width="185" height="238" filterUnits="userSpaceOnUse"><feOffset dx="-4" dy="4" input="SourceAlpha"/><feGaussianBlur stdDeviation="5" result="d"/><feFlood flood-opacity="0.071"/><feComposite operator="in" in2="d"/><feComposite in="SourceGraphic"/></filter><filter id="e" x="570.381" y="184" width="285" height="75" filterUnits="userSpaceOnUse"><feOffset dy="6" input="SourceAlpha"/><feGaussianBlur stdDeviation="5" result="f"/><feFlood flood-opacity="0.039"/><feComposite operator="in" in2="f"/><feComposite in="SourceGraphic"/></filter><filter id="g" x="833.381" y="184" width="124" height="75" filterUnits="userSpaceOnUse"><feOffset dy="6" input="SourceAlpha"/><feGaussianBlur stdDeviation="5" result="h"/><feFlood flood-opacity="0.039"/><feComposite operator="in" in2="h"/><feComposite in="SourceGraphic"/></filter><filter id="i" x="531.381" y="62" width="257" height="75" filterUnits="userSpaceOnUse"><feOffset dy="6" input="SourceAlpha"/><feGaussianBlur stdDeviation="5" result="j"/><feFlood flood-opacity="0.039"/><feComposite operator="in" in2="j"/><feComposite in="SourceGraphic"/></filter><filter id="k" x="766.381" y="62" width="229" height="75" filterUnits="userSpaceOnUse"><feOffset dy="6" input="SourceAlpha"/><feGaussianBlur stdDeviation="5" result="l"/><feFlood flood-opacity="0.039"/><feComposite operator="in" in2="l"/><feComposite in="SourceGraphic"/></filter><filter id="m" x="530.381" y="123" width="211" height="75" filterUnits="userSpaceOnUse"><feOffset dy="6" input="SourceAlpha"/><feGaussianBlur stdDeviation="5" result="n"/><feFlood flood-opacity="0.039"/><feComposite operator="in" in2="n"/><feComposite in="SourceGraphic"/></filter><filter id="o" x="719.381" y="123" width="277" height="75" filterUnits="userSpaceOnUse"><feOffset dy="6" input="SourceAlpha"/><feGaussianBlur stdDeviation="5" result="p"/><feFlood flood-opacity="0.039"/><feComposite operator="in" in2="p"/><feComposite in="SourceGraphic"/></filter><filter id="q" x="578.381" y="1" width="119" height="75" filterUnits="userSpaceOnUse"><feOffset dy="6" input="SourceAlpha"/><feGaussianBlur stdDeviation="5" result="r"/><feFlood flood-opacity="0.039"/><feComposite operator="in" in2="r"/><feComposite in="SourceGraphic"/></filter><filter id="s" x="675.381" y="1" width="273" height="75" filterUnits="userSpaceOnUse"><feOffset dy="6" input="SourceAlpha"/><feGaussianBlur stdDeviation="5" result="t"/><feFlood flood-opacity="0.039"/><feComposite operator="in" in2="t"/><feComposite in="SourceGraphic"/></filter></defs><g transform="translate(-430.619 -5019)"><g transform="translate(-2166.58 19365.008)"><path class="a" d="M1881.239,1358.142a11.389,11.389,0,0,1-10.9-11.807c.01-.316.036-.629.076-.946l.006-78.812a8.172,8.172,0,0,0-4.068-7.593.536.536,0,0,1-.3-.3.455.455,0,0,1,.018-.354.467.467,0,0,1,.218-.216,8.216,8.216,0,0,0,4.118-7.7c0-1.973,0-72.055-.065-78.5a11.285,11.285,0,0,1,9.8-12.678l.242-.028c.308-.03.569-.045.832-.053l2.026-.314a.742.742,0,0,1,.708.72v5.624a.73.73,0,0,1-.735.663l-3.933.309-.08,0a2.585,2.585,0,0,0-2.571,2.4l0,81.558a14.037,14.037,0,0,1-4.208,7.766l-.742.694.732.706a14.427,14.427,0,0,1,4.205,7.772v81.512a2.619,2.619,0,0,0,2.609,2.469l4.093,0a.75.75,0,0,1,.776.722v5.676a.737.737,0,0,1-.736.708Z" transform="translate(1083.336 -15480.695)"/><path class="a" d="M1868.868,1358.142a11.389,11.389,0,0,0,10.9-11.807c-.01-.316-.036-.629-.076-.946l-.006-78.812a8.172,8.172,0,0,1,4.068-7.593.536.536,0,0,0,.3-.3.455.455,0,0,0-.018-.354.467.467,0,0,0-.218-.216,8.216,8.216,0,0,1-4.118-7.7c0-1.973,0-72.055.065-78.5a11.285,11.285,0,0,0-9.8-12.678l-.242-.028c-.308-.03-.569-.045-.832-.053l-2.026-.314a.742.742,0,0,0-.708.72v5.624a.73.73,0,0,0,.735.663l3.933.309.08,0a2.585,2.585,0,0,1,2.571,2.4l0,81.558a14.037,14.037,0,0,0,4.208,7.766l.742.694-.732.706a14.427,14.427,0,0,0-4.205,7.772v81.512a2.619,2.619,0,0,1-2.609,2.469l-4.093,0a.75.75,0,0,0-.776.722v5.676a.737.737,0,0,0,.736.708Z" transform="translate(1171.337 -15480.695)"/></g><g transform="translate(-1117.267 3568.123)"><g class="ar" transform="matrix(1, 0, 0, 1, 1547.89, 1450.88)"><path class="b" d="M10.972,0h94.949C109.2,0,115-.441,118.821,3.62S142.808,29.093,147.6,34.189s5.653,8.2,5.653,11.173V191.518c0,6.484-4.912,11.741-10.972,11.741H10.972C4.912,203.259,0,198,0,191.518V11.742C0,5.258,4.912,0,10.972,0Z" transform="translate(89.61 31.81)"/></g><g class="aq" transform="matrix(1, 0, 0, 1, 1547.89, 1450.88)"><rect class="c" width="155" height="208" rx="10" transform="translate(106.38 11)"/></g><g transform="translate(0 -15)"><g transform="translate(1678.211 1522.941)"><rect class="d" width="48" height="4" rx="2" transform="translate(0.056 41.936)"/><rect class="d" width="54" height="4" rx="2" transform="translate(0.056 49.936)"/><rect class="d" width="17" height="4" rx="2" transform="translate(0.056 65.936)"/><rect class="d" width="53" height="4" rx="2" transform="translate(0.056 57.936)"/><rect class="d" width="39.431" height="5.407" rx="2.201" transform="translate(0 28.279)"/></g><g transform="translate(1690.211 1522.941)"><rect class="d" width="5" height="4" rx="2" transform="translate(62.056 65.936)"/><rect class="d" width="5" height="4" rx="2" transform="translate(62.056 57.936)"/><rect class="d" width="5" height="4" rx="2" transform="translate(62.056 49.936)"/><rect class="d" width="5" height="4" rx="2" transform="translate(62.056 41.936)"/><rect class="d" width="12" height="4" rx="2" transform="translate(69.056 41.936)"/><rect class="d" width="23" height="4" rx="2" transform="translate(69.056 49.936)"/><rect class="d" width="16" height="4" rx="2" transform="translate(69.056 57.936)"/><rect class="d" width="16" height="4" rx="2" transform="translate(69.056 65.936)"/></g><rect class="e" width="117" height="54" rx="8" transform="translate(1672.767 1545.377)"/></g><g transform="translate(0 5)"><rect class="f" width="13.517" height="5.407" rx="2.201" transform="translate(1766.717 1625.503)"/><rect class="f" width="13.517" height="5.407" rx="2.201" transform="translate(1766.717 1616.041)"/><rect class="f" width="13.517" height="5.407" rx="2.201" transform="translate(1743.738 1625.503)"/><rect class="f" width="13.517" height="5.407" rx="2.201" transform="translate(1743.738 1616.041)"/><rect class="f" width="35.144" height="5.407" rx="2.201" transform="translate(1696.431 1625.503)"/><rect class="f" width="35.144" height="5.407" rx="2.201" transform="translate(1696.431 1616.041)"/><g class="g" transform="translate(1677.692 1594.601)"><path class="h" d="M1690.852,1602.488h-9.573c-1.97,0-3.572-1.281-3.572-2.855v-36.787h13.145Zm-9.461-2.942h5.777v-33.757h-5.777Z" transform="translate(-1677.707 -1553.386)"/><path class="h" d="M1739.107,1602.488h-53.7v-39.641h53.7Zm-50.012-2.942h46.328v-33.757H1689.1Z" transform="translate(-1675.95 -1553.386)"/><path class="h" d="M1767.935,1602.488h-23.087v-39.641h26.662v36.787C1771.51,1601.208,1769.907,1602.488,1767.935,1602.488Zm-19.4-2.942h19.294v-33.757h-19.294Z" transform="translate(-1662.396 -1553.386)"/><path class="h" d="M1752.8,1602.488h-26.664v-39.641H1752.8Zm-22.979-2.942h19.3v-33.757h-19.3Z" transform="translate(-1666.662 -1553.386)"/><path class="h" d="M1786.822,1568.288H1677.707v-9.573a3.575,3.575,0,0,1,3.572-3.572h101.968a3.577,3.577,0,0,1,3.575,3.572Zm-105.431-3.684h101.746v-5.777H1681.391Z" transform="translate(-1677.707 -1555.143)"/></g><rect class="i" width="119" height="59" rx="8" transform="translate(1672.767 1589.377)"/></g><g transform="translate(0 -6)"><rect class="d" width="51" height="6" rx="2.201" transform="translate(1676.267 1493.877)"/><rect class="e" width="58" height="13" rx="6.5" transform="translate(1672.767 1490.377)"/></g><g transform="translate(75.627 -24.5)"><path class="j" d="M15088.769,2349.378h-25a4,4,0,0,1-4-4v-19a4,4,0,0,1,4-4h25a4,4,0,0,1,4,4v19A4,4,0,0,1,15088.769,2349.378Zm-18.48-13.347-.054,0a.6.6,0,0,0-.432.261l-4.72,7.075a.589.589,0,0,0,.493.917h23.59a.585.585,0,0,0,.5-.894l-7.079-11.8a.592.592,0,0,0-.47-.284l-.043,0a.577.577,0,0,0-.461.236l-6.671,8.894-4.238-4.239A.586.586,0,0,0,15070.288,2336.032Zm.595-9.437a2.36,2.36,0,1,0,2.359,2.36A2.363,2.363,0,0,0,15070.883,2326.595Z" transform="translate(-13382.999 -810)"/><rect class="k" width="41.354" height="35" rx="8" transform="translate(1672.767 1508.377)"/></g></g><path class="a" d="M2014.267,1533.3h-24.159a1.42,1.42,0,0,0-1.421,1.421h0v14.211a1.42,1.42,0,0,0,1.421,1.421h24.159v9.937a.709.709,0,0,0,1.213.5l18.969-18.969-18.968-18.966a.71.71,0,0,0-1,0,.7.7,0,0,0-.21.506Z" transform="translate(-1076.104 3600.851)"/><path class="a" d="M1841.267,1533.3h-24.158a1.421,1.421,0,0,0-1.421,1.421h0v14.211a1.42,1.42,0,0,0,1.421,1.421h24.158v9.937a.709.709,0,0,0,1.213.5l18.969-18.969-18.968-18.966a.71.71,0,0,0-1.214.5Z" transform="translate(-1100.714 3600.851)"/><path class="l" d="M-24.4-8.816h-3.008q-.112,0-.08-.112l.48-1.5a.137.137,0,0,1,.144-.08h7.5q.112,0,.112.1v1.488a.1.1,0,0,1-.112.112h-3.184l-1.52,8.7A.125.125,0,0,1-24.208,0h-1.584q-.16,0-.128-.128Zm5.824,1.024q.016-.08.04-.088a.322.322,0,0,1,.088-.008h1.6q.112,0,.1.128L-18.128-.112A.138.138,0,0,1-18.272,0H-19.84a.1.1,0,0,1-.112-.112Zm1.2-1.248a.952.952,0,0,1-.728-.28.9.9,0,0,1-.216-.744,1.162,1.162,0,0,1,.384-.744,1.171,1.171,0,0,1,.8-.28.888.888,0,0,1,.712.288.87.87,0,0,1,.168.752,1.026,1.026,0,0,1-.344.736A1.139,1.139,0,0,1-17.376-9.04Zm5.008,8.768a.241.241,0,0,1-.144.192A2.325,2.325,0,0,1-13.1.1a4.417,4.417,0,0,1-.752.056,1.738,1.738,0,0,1-1.376-.544,2.2,2.2,0,0,1-.256-1.84l.752-4.112H-15.76a.314.314,0,0,1-.072-.032q-.024-.016-.008-.1l.272-1.328a.112.112,0,0,1,.128-.1h.976q.08-.464.184-.96t.184-.912a.12.12,0,0,1,.112-.1,5.756,5.756,0,0,0,.864-.088,5.515,5.515,0,0,0,.832-.232q.1-.016.1.08-.112.512-.224,1.072t-.24,1.136h1.392q.128,0,.112.112l-.24,1.312q0,.112-.128.128h-1.408l-.72,3.984a1.243,1.243,0,0,0,.032.7q.112.256.544.256a2.534,2.534,0,0,0,.416-.032,2.439,2.439,0,0,0,.416-.112.178.178,0,0,1,.08-.016q.048,0,.048.08Zm4.064.1a.2.2,0,0,1-.128.16A2.607,2.607,0,0,1-9.472.16a2.361,2.361,0,0,1-.7-.1,1.03,1.03,0,0,1-.5-.328,1.232,1.232,0,0,1-.248-.624,3.355,3.355,0,0,1,.04-.984l1.648-9.376a.125.125,0,0,1,.112-.112q.176-.016.44-.032l.512-.032q.248-.016.44-.032t.24-.016q.1,0,.1.112L-9.04-1.984q-.08.4.048.512a.516.516,0,0,0,.352.112,1.772,1.772,0,0,0,.5-.08q.08-.016.08.08Zm6.9-.3a.2.2,0,0,1-.144.16,3.465,3.465,0,0,1-.9.36A5.387,5.387,0,0,1-3.712.16a3.885,3.885,0,0,1-1.3-.208A2.713,2.713,0,0,1-6.024-.672,2.788,2.788,0,0,1-6.68-1.72,4.29,4.29,0,0,1-6.912-3.2,5.372,5.372,0,0,1-6.6-5.008,5.02,5.02,0,0,1-5.728-6.56,4.338,4.338,0,0,1-4.384-7.64a3.686,3.686,0,0,1,1.728-.408A3.271,3.271,0,0,1-1.5-7.872,2.039,2.039,0,0,1-.752-7.4a1.775,1.775,0,0,1,.416.672,2.392,2.392,0,0,1,.128.776A2.272,2.272,0,0,1-1.376-3.888a7.183,7.183,0,0,1-3.76.7q0,.048-.008.128t-.008.128a2.14,2.14,0,0,0,.1.5,1.19,1.19,0,0,0,.288.472,1.612,1.612,0,0,0,.56.36,2.387,2.387,0,0,0,.9.144A4.708,4.708,0,0,0-2.3-1.568,3.427,3.427,0,0,0-1.264-2q.08-.032.08.08Zm-3.584-4.1a7.449,7.449,0,0,0,1.608-.088,3.2,3.2,0,0,0,.952-.312A1.109,1.109,0,0,0-1.976-5.4a.961.961,0,0,0,.12-.44,1.091,1.091,0,0,0-.032-.248.545.545,0,0,0-.136-.248.767.767,0,0,0-.288-.184A1.366,1.366,0,0,0-2.8-6.592a1.708,1.708,0,0,0-.7.152,2.441,2.441,0,0,0-.64.416,2.7,2.7,0,0,0-.52.64A3.081,3.081,0,0,0-4.992-4.576Z" transform="translate(503 5064)"/><path class="l" d="M-40.368,0q-.112,0-.1-.128l.768-4.4H-44l-.768,4.416Q-44.784,0-44.88,0h-1.632a.213.213,0,0,1-.1-.024q-.048-.024-.016-.1l1.792-10.288a.1.1,0,0,1,.112-.1h1.648a.1.1,0,0,1,.112.112L-43.7-6.208h4.3l.736-4.224a.113.113,0,0,1,.112-.08H-36.9a.1.1,0,0,1,.112.112L-38.608-.128q-.016.08-.024.1T-38.72,0ZM-30.9-.48a.2.2,0,0,1-.144.16,3.465,3.465,0,0,1-.9.36A5.387,5.387,0,0,1-33.2.16a3.885,3.885,0,0,1-1.3-.208,2.713,2.713,0,0,1-1.016-.624,2.788,2.788,0,0,1-.656-1.048A4.29,4.29,0,0,1-36.4-3.2a5.372,5.372,0,0,1,.312-1.808,5.02,5.02,0,0,1,.872-1.552,4.338,4.338,0,0,1,1.344-1.08,3.686,3.686,0,0,1,1.728-.408,3.271,3.271,0,0,1,1.152.176,2.039,2.039,0,0,1,.752.472,1.775,1.775,0,0,1,.416.672,2.392,2.392,0,0,1,.128.776,2.272,2.272,0,0,1-1.168,2.064,7.183,7.183,0,0,1-3.76.7q0,.048-.008.128t-.008.128a2.14,2.14,0,0,0,.1.5,1.19,1.19,0,0,0,.288.472,1.612,1.612,0,0,0,.56.36,2.387,2.387,0,0,0,.9.144,4.708,4.708,0,0,0,1.008-.112A3.427,3.427,0,0,0-30.752-2q.08-.032.08.08Zm-3.584-4.1a7.449,7.449,0,0,0,1.608-.088,3.2,3.2,0,0,0,.952-.312,1.109,1.109,0,0,0,.456-.424.961.961,0,0,0,.12-.44,1.091,1.091,0,0,0-.032-.248.545.545,0,0,0-.136-.248A.767.767,0,0,0-31.8-6.52a1.366,1.366,0,0,0-.488-.072,1.708,1.708,0,0,0-.7.152,2.441,2.441,0,0,0-.64.416,2.7,2.7,0,0,0-.52.64A3.081,3.081,0,0,0-34.48-4.576Zm11.6,4.032a.154.154,0,0,1-.1.128,6.738,6.738,0,0,1-1.336.44,6.814,6.814,0,0,1-1.4.136,4,4,0,0,1-1.272-.2,2.9,2.9,0,0,1-1.048-.608,2.83,2.83,0,0,1-.7-1.024,3.8,3.8,0,0,1-.256-1.464,4.793,4.793,0,0,1,.36-1.816,4.714,4.714,0,0,1,1.048-1.576,5.171,5.171,0,0,1,1.68-1.1,5.743,5.743,0,0,1,2.24-.416,7.246,7.246,0,0,1,1.168.08q.48.08.848.176a.13.13,0,0,1,.032.1Zm-.768-5.936q-.064,0-.152-.008t-.248-.008a2.974,2.974,0,0,0-1.184.24,3.047,3.047,0,0,0-.984.672,3.2,3.2,0,0,0-.672,1.032,3.466,3.466,0,0,0-.248,1.336,1.957,1.957,0,0,0,.44,1.3,1.7,1.7,0,0,0,1.384.528,2.167,2.167,0,0,0,.8-.128Zm9.024,5.888a.2.2,0,0,1-.112.16A6.692,6.692,0,0,1-16.12.032,6.721,6.721,0,0,1-17.456.16a4.027,4.027,0,0,1-1.312-.208A3.082,3.082,0,0,1-19.84-.672a2.841,2.841,0,0,1-.728-1.064,4.036,4.036,0,0,1-.264-1.528,4.7,4.7,0,0,1,.36-1.824,4.823,4.823,0,0,1,1.008-1.528A4.739,4.739,0,0,1-17.92-7.664a4.9,4.9,0,0,1,1.952-.384,4.282,4.282,0,0,1,.816.064l.576-3.264a.125.125,0,0,1,.112-.112q.16-.016.424-.032l.52-.032q.256-.016.456-.032t.232-.016a.085.085,0,0,1,.1.1Zm-.816-5.824a1.036,1.036,0,0,0-.336-.08q-.192-.016-.416-.016a2.445,2.445,0,0,0-1.064.24,2.831,2.831,0,0,0-.888.664,3.161,3.161,0,0,0-.608,1.016,3.587,3.587,0,0,0-.224,1.28,2.423,2.423,0,0,0,.1.72A1.555,1.555,0,0,0-18.536-2a1.666,1.666,0,0,0,.584.408,2.088,2.088,0,0,0,.832.152,3.153,3.153,0,0,0,.488-.032,1.237,1.237,0,0,0,.36-.112Zm8.5,5.936a.2.2,0,0,1-.144.16,3.465,3.465,0,0,1-.9.36A5.387,5.387,0,0,1-9.248.16a3.885,3.885,0,0,1-1.3-.208A2.713,2.713,0,0,1-11.56-.672a2.788,2.788,0,0,1-.656-1.048,4.29,4.29,0,0,1-.232-1.48,5.372,5.372,0,0,1,.312-1.808,5.02,5.02,0,0,1,.872-1.552A4.338,4.338,0,0,1-9.92-7.64a3.686,3.686,0,0,1,1.728-.408,3.271,3.271,0,0,1,1.152.176,2.039,2.039,0,0,1,.752.472,1.775,1.775,0,0,1,.416.672,2.392,2.392,0,0,1,.128.776A2.272,2.272,0,0,1-6.912-3.888a7.183,7.183,0,0,1-3.76.7q0,.048-.008.128t-.008.128a2.14,2.14,0,0,0,.1.5,1.19,1.19,0,0,0,.288.472,1.612,1.612,0,0,0,.56.36,2.387,2.387,0,0,0,.9.144A4.708,4.708,0,0,0-7.84-1.568,3.427,3.427,0,0,0-6.8-2q.08-.032.08.08Zm-3.584-4.1A7.449,7.449,0,0,0-8.92-4.664a3.2,3.2,0,0,0,.952-.312A1.109,1.109,0,0,0-7.512-5.4a.961.961,0,0,0,.12-.44,1.091,1.091,0,0,0-.032-.248.545.545,0,0,0-.136-.248.767.767,0,0,0-.288-.184,1.366,1.366,0,0,0-.488-.072,1.708,1.708,0,0,0-.7.152,2.441,2.441,0,0,0-.64.416,2.7,2.7,0,0,0-.52.64A3.081,3.081,0,0,0-10.528-4.576ZM-2.56-7.888q.128,0,.144.08a1.24,1.24,0,0,1,.008.264q-.008.184-.024.392t-.04.408q-.024.2-.04.312a4.194,4.194,0,0,1,.584-.648,4.246,4.246,0,0,1,.7-.512,3.553,3.553,0,0,1,.76-.336,2.591,2.591,0,0,1,.76-.12q.112,0,.1.144L.032-6.16q-.032.1-.1.1a3.258,3.258,0,0,0-1.44.408A2.884,2.884,0,0,0-2.56-4.72a.592.592,0,0,0-.16.352L-3.488-.08A.113.113,0,0,1-3.6,0H-5.2q-.128,0-.1-.112L-4.272-5.9q.112-.56.168-1.032t.088-.872q0-.08.128-.08Z" transform="translate(503 5112)"/><path class="l" d="M-70.08-10.384q.016-.08.048-.1a.142.142,0,0,1,.064-.016q.512-.032,1.12-.04t1.184-.008a6.482,6.482,0,0,1,1.528.176,3.768,3.768,0,0,1,1.28.56,2.841,2.841,0,0,1,.88.984,2.943,2.943,0,0,1,.328,1.432,3.378,3.378,0,0,1-.384,1.656,3.4,3.4,0,0,1-1.032,1.152,4.493,4.493,0,0,1-1.512.672,7.428,7.428,0,0,1-1.808.216q-.32,0-.544-.008t-.448-.024l-.64,3.616Q-70.032,0-70.128,0h-1.648q-.128,0-.1-.112Zm.992,5.04a7.32,7.32,0,0,0,.9.048,3.265,3.265,0,0,0,1.96-.52,1.676,1.676,0,0,0,.712-1.432,1.477,1.477,0,0,0-.552-1.272,2.555,2.555,0,0,0-1.544-.408q-.224,0-.424.008t-.408.024ZM-57.2-.544a.154.154,0,0,1-.1.128,6.738,6.738,0,0,1-1.336.44,6.814,6.814,0,0,1-1.4.136A4,4,0,0,1-61.3-.04a2.9,2.9,0,0,1-1.048-.608,2.83,2.83,0,0,1-.7-1.024,3.8,3.8,0,0,1-.256-1.464,4.793,4.793,0,0,1,.36-1.816A4.714,4.714,0,0,1-61.9-6.528a5.171,5.171,0,0,1,1.68-1.1,5.743,5.743,0,0,1,2.24-.416,7.246,7.246,0,0,1,1.168.08q.48.08.848.176a.13.13,0,0,1,.032.1Zm-.768-5.936q-.064,0-.152-.008t-.248-.008a2.974,2.974,0,0,0-1.184.24,3.047,3.047,0,0,0-.984.672,3.2,3.2,0,0,0-.672,1.032,3.466,3.466,0,0,0-.248,1.336,1.957,1.957,0,0,0,.44,1.3,1.7,1.7,0,0,0,1.384.528,2.167,2.167,0,0,0,.8-.128Zm5.5-1.408q.128,0,.144.08a1.239,1.239,0,0,1,.008.264q-.008.184-.024.392t-.04.408q-.024.2-.04.312a4.193,4.193,0,0,1,.584-.648,4.245,4.245,0,0,1,.7-.512,3.553,3.553,0,0,1,.76-.336,2.591,2.591,0,0,1,.76-.12q.112,0,.1.144l-.352,1.744q-.032.1-.1.1a3.258,3.258,0,0,0-1.44.408,2.884,2.884,0,0,0-1.056.936.592.592,0,0,0-.16.352L-53.392-.08A.113.113,0,0,1-53.5,0h-1.6q-.128,0-.1-.112L-54.176-5.9q.112-.56.168-1.032t.088-.872q0-.08.128-.08Zm9.1,7.344a.154.154,0,0,1-.1.128,6.738,6.738,0,0,1-1.336.44,6.814,6.814,0,0,1-1.4.136,4,4,0,0,1-1.272-.2,2.9,2.9,0,0,1-1.048-.608,2.83,2.83,0,0,1-.7-1.024,3.8,3.8,0,0,1-.256-1.464,4.793,4.793,0,0,1,.36-1.816,4.714,4.714,0,0,1,1.048-1.576,5.171,5.171,0,0,1,1.68-1.1,5.743,5.743,0,0,1,2.24-.416,7.246,7.246,0,0,1,1.168.08q.48.08.848.176a.13.13,0,0,1,.032.1Zm-.768-5.936q-.064,0-.152-.008t-.248-.008a2.974,2.974,0,0,0-1.184.24,3.047,3.047,0,0,0-.984.672,3.2,3.2,0,0,0-.672,1.032,3.466,3.466,0,0,0-.248,1.336,1.957,1.957,0,0,0,.44,1.3,1.7,1.7,0,0,0,1.384.528,2.167,2.167,0,0,0,.8-.128Zm7.136-1.568a3.415,3.415,0,0,1,1.224.216,2.71,2.71,0,0,1,.984.64,2.931,2.931,0,0,1,.648,1.048A4.069,4.069,0,0,1-33.9-4.72,4.786,4.786,0,0,1-34.32-2.7a4.759,4.759,0,0,1-1.1,1.536A4.951,4.951,0,0,1-37-.184,5.072,5.072,0,0,1-38.848.16,3.446,3.446,0,0,1-39.6.1l-.528,2.944a.138.138,0,0,1-.128.128q-.4.048-.816.072t-.784.056q-.1,0-.08-.112l1.824-10.5a.164.164,0,0,1,.128-.144q.592-.208,1.32-.4A6.581,6.581,0,0,1-36.992-8.048Zm-.384,1.568a2.764,2.764,0,0,0-1.12.224l-.784,4.784a2.031,2.031,0,0,0,.576.08,2.845,2.845,0,0,0,1.176-.24,2.851,2.851,0,0,0,.936-.672,3.107,3.107,0,0,0,.624-1.024,3.587,3.587,0,0,0,.224-1.28,2.289,2.289,0,0,0-.368-1.352A1.442,1.442,0,0,0-37.376-6.48Zm4.112,7.936q.016-.1.128-.064a4.257,4.257,0,0,0,.936.328,4.8,4.8,0,0,0,1.032.1,2.6,2.6,0,0,0,1.7-.512,2.236,2.236,0,0,0,.528-.664,5.027,5.027,0,0,0,.384-1.08,3.307,3.307,0,0,1-1.392.272A3.28,3.28,0,0,1-31.1-.352,2.474,2.474,0,0,1-32-.928a2.652,2.652,0,0,1-.6-.96,3.769,3.769,0,0,1-.216-1.328,4.881,4.881,0,0,1,.336-1.768,4.786,4.786,0,0,1,.968-1.552,4.731,4.731,0,0,1,1.568-1.1,5.21,5.21,0,0,1,2.136-.416,6.839,6.839,0,0,1,1.376.12,8.745,8.745,0,0,1,.96.248.1.1,0,0,1,.08.128q-.08.224-.136.44t-.1.472l-.912,5.2q-.1.512-.176.9t-.168.68q-.088.3-.176.528t-.184.44a3.878,3.878,0,0,1-.768,1.152,3.855,3.855,0,0,1-.984.72,4.02,4.02,0,0,1-1.12.376,6.7,6.7,0,0,1-1.176.1,5.028,5.028,0,0,1-2.256-.448.11.11,0,0,1-.048-.144Zm5.776-7.872a.726.726,0,0,0-.264-.072,3.171,3.171,0,0,0-.408-.024,2.569,2.569,0,0,0-1.1.24,2.715,2.715,0,0,0-.888.664,3.231,3.231,0,0,0-.592.976,3.2,3.2,0,0,0-.216,1.176,2.733,2.733,0,0,0,.08.68,1.438,1.438,0,0,0,.264.544,1.205,1.205,0,0,0,.488.36,1.942,1.942,0,0,0,.752.128,2.97,2.97,0,0,0,.528-.056,1.733,1.733,0,0,0,.592-.232Zm8.944,5.872a.154.154,0,0,1-.1.128,6.738,6.738,0,0,1-1.336.44,6.814,6.814,0,0,1-1.4.136,4,4,0,0,1-1.272-.2A2.9,2.9,0,0,1-23.7-.648a2.83,2.83,0,0,1-.7-1.024,3.8,3.8,0,0,1-.256-1.464,4.793,4.793,0,0,1,.36-1.816,4.714,4.714,0,0,1,1.048-1.576,5.171,5.171,0,0,1,1.68-1.1,5.743,5.743,0,0,1,2.24-.416,7.246,7.246,0,0,1,1.168.08q.48.08.848.176a.13.13,0,0,1,.032.1Zm-.768-5.936q-.064,0-.152-.008t-.248-.008a2.974,2.974,0,0,0-1.184.24,3.047,3.047,0,0,0-.984.672,3.2,3.2,0,0,0-.672,1.032A3.466,3.466,0,0,0-22.8-3.216a1.957,1.957,0,0,0,.44,1.3,1.7,1.7,0,0,0,1.384.528,2.167,2.167,0,0,0,.8-.128Zm7.136-1.568a3.415,3.415,0,0,1,1.224.216,2.71,2.71,0,0,1,.984.64A2.931,2.931,0,0,1-9.32-6.144,4.069,4.069,0,0,1-9.088-4.72,4.786,4.786,0,0,1-9.5-2.7a4.759,4.759,0,0,1-1.1,1.536,4.951,4.951,0,0,1-1.576.976A5.072,5.072,0,0,1-14.032.16,3.446,3.446,0,0,1-14.784.1l-.528,2.944a.138.138,0,0,1-.128.128q-.4.048-.816.072t-.784.056q-.1,0-.08-.112l1.824-10.5a.164.164,0,0,1,.128-.144q.592-.208,1.32-.4A6.581,6.581,0,0,1-12.176-8.048ZM-12.56-6.48a2.764,2.764,0,0,0-1.12.224l-.784,4.784a2.031,2.031,0,0,0,.576.08,2.845,2.845,0,0,0,1.176-.24,2.851,2.851,0,0,0,.936-.672,3.107,3.107,0,0,0,.624-1.024,3.587,3.587,0,0,0,.224-1.28A2.289,2.289,0,0,0-11.3-5.96,1.442,1.442,0,0,0-12.56-6.48Zm6.288-4.752a.132.132,0,0,1,.128-.112q.112-.016.368-.032l.512-.032q.256-.016.464-.032t.256-.016q.128,0,.112.1L-5.2-7.072a3.915,3.915,0,0,1,1.064-.712,3.13,3.13,0,0,1,1.3-.264,2.484,2.484,0,0,1,.848.144,1.492,1.492,0,0,1,.68.5,2.128,2.128,0,0,1,.384.952A4.5,4.5,0,0,1-.96-4.976L-1.84-.112Q-1.856,0-1.952,0h-1.6q-.112,0-.112-.128l.9-4.832A2.034,2.034,0,0,0-2.816-6.1a.719.719,0,0,0-.736-.4A2.439,2.439,0,0,0-5.376-5.44a.523.523,0,0,0-.12.184,1.636,1.636,0,0,0-.072.328L-6.432-.1A.125.125,0,0,1-6.56,0h-1.6q-.112,0-.08-.1Z" transform="translate(503 5132)"/><path class="l" d="M-20.336-1.68h4.528q.112,0,.064.128L-16.224-.1a.178.178,0,0,1-.144.1h-6.016q-.128,0-.1-.1l1.792-10.32a.1.1,0,0,1,.112-.1h1.68q.1,0,.08.128Zm6.976-6.112q.016-.08.04-.088a.322.322,0,0,1,.088-.008h1.6q.112,0,.1.128L-12.912-.112A.138.138,0,0,1-13.056,0h-1.568a.1.1,0,0,1-.112-.112Zm1.2-1.248a.952.952,0,0,1-.728-.28.9.9,0,0,1-.216-.744,1.162,1.162,0,0,1,.384-.744,1.171,1.171,0,0,1,.8-.28.888.888,0,0,1,.712.288.87.87,0,0,1,.168.752,1.026,1.026,0,0,1-.344.736A1.139,1.139,0,0,1-12.16-9.04Zm6.48,2.9a3.37,3.37,0,0,0-.84-.3,3.942,3.942,0,0,0-.84-.1,1.374,1.374,0,0,0-.936.256.739.739,0,0,0-.28.544.87.87,0,0,0,.032.24.563.563,0,0,0,.136.224,1.548,1.548,0,0,0,.288.232,4.234,4.234,0,0,0,.488.264A5.591,5.591,0,0,1-6.144-3.768a1.888,1.888,0,0,1,.528,1.384,2.456,2.456,0,0,1-.232,1.1A2.224,2.224,0,0,1-6.5-.5a2.984,2.984,0,0,1-.984.488A4.357,4.357,0,0,1-8.72.16a5.039,5.039,0,0,1-1.344-.168,3.209,3.209,0,0,1-.976-.424.129.129,0,0,1-.064-.1.47.47,0,0,1,.016-.112l.3-1.392q.032-.08.1-.032a3.74,3.74,0,0,0,2.112.688,1.345,1.345,0,0,0,.9-.24.712.712,0,0,0,.272-.544.758.758,0,0,0-.224-.528,3.413,3.413,0,0,0-.8-.56q-.352-.192-.688-.4a3.071,3.071,0,0,1-.592-.472,2.2,2.2,0,0,1-.416-.608,1.819,1.819,0,0,1-.16-.776,2.429,2.429,0,0,1,.192-.952,2.256,2.256,0,0,1,.584-.808,3,3,0,0,1,.976-.568,3.939,3.939,0,0,1,1.368-.216,5.375,5.375,0,0,1,1.072.1,2.318,2.318,0,0,1,.784.28.145.145,0,0,1,.064.16l-.3,1.312Q-5.568-6.1-5.68-6.144ZM-.928-.272a.241.241,0,0,1-.144.192A2.325,2.325,0,0,1-1.664.1,4.417,4.417,0,0,1-2.416.16,1.738,1.738,0,0,1-3.792-.384a2.2,2.2,0,0,1-.256-1.84L-3.3-6.336H-4.32a.314.314,0,0,1-.072-.032q-.024-.016-.008-.1l.272-1.328A.112.112,0,0,1-4-7.888h.976q.08-.464.184-.96t.184-.912a.12.12,0,0,1,.112-.1,5.756,5.756,0,0,0,.864-.088,5.515,5.515,0,0,0,.832-.232q.1-.016.1.08-.112.512-.224,1.072t-.24,1.136H.176q.128,0,.112.112L.048-6.464q0,.112-.128.128H-1.488l-.72,3.984a1.243,1.243,0,0,0,.032.7q.112.256.544.256a2.534,2.534,0,0,0,.416-.032A2.439,2.439,0,0,0-.8-1.536a.178.178,0,0,1,.08-.016q.048,0,.048.08Z" transform="translate(503 5152)"/><path class="m" d="M-31.168-8.816h-3.008q-.112,0-.08-.112l.48-1.5a.137.137,0,0,1,.144-.08h7.5q.112,0,.112.1v1.488a.1.1,0,0,1-.112.112h-3.184l-1.52,8.7A.125.125,0,0,1-30.976,0H-32.56q-.16,0-.128-.128ZM-21.52-.544a.154.154,0,0,1-.1.128,6.738,6.738,0,0,1-1.336.44,6.814,6.814,0,0,1-1.4.136,4,4,0,0,1-1.272-.2,2.9,2.9,0,0,1-1.048-.608,2.83,2.83,0,0,1-.7-1.024,3.8,3.8,0,0,1-.256-1.464,4.793,4.793,0,0,1,.36-1.816,4.714,4.714,0,0,1,1.048-1.576,5.171,5.171,0,0,1,1.68-1.1,5.743,5.743,0,0,1,2.24-.416,7.246,7.246,0,0,1,1.168.08q.48.08.848.176a.13.13,0,0,1,.032.1Zm-.768-5.936q-.064,0-.152-.008t-.248-.008a2.974,2.974,0,0,0-1.184.24,3.047,3.047,0,0,0-.984.672,3.2,3.2,0,0,0-.672,1.032,3.466,3.466,0,0,0-.248,1.336,1.957,1.957,0,0,0,.44,1.3,1.7,1.7,0,0,0,1.384.528,2.167,2.167,0,0,0,.8-.128Zm4.7-4.768a.164.164,0,0,1,.144-.128q.192-.016.456-.032l.5-.032q.24-.016.416-.024l.208-.008q.112,0,.1.112l-.656,3.792a3.342,3.342,0,0,1,.864-.368,3.825,3.825,0,0,1,.96-.112,2.49,2.49,0,0,1,1.08.224,2.254,2.254,0,0,1,.8.632,2.818,2.818,0,0,1,.5.968,4.335,4.335,0,0,1,.168,1.248,5.5,5.5,0,0,1-.36,1.992,4.868,4.868,0,0,1-1.024,1.632,4.942,4.942,0,0,1-1.576,1.1A4.881,4.881,0,0,1-17.024.16,6.272,6.272,0,0,1-18.272.04a3.305,3.305,0,0,1-1.1-.44.155.155,0,0,1-.08-.176Zm.128,9.728a1.26,1.26,0,0,0,.352.1,2.6,2.6,0,0,0,.352.024,2.417,2.417,0,0,0,1.08-.256,2.813,2.813,0,0,0,.912-.72,3.627,3.627,0,0,0,.624-1.088A3.921,3.921,0,0,0-13.9-4.832a2.944,2.944,0,0,0-.064-.608,1.389,1.389,0,0,0-.224-.528,1.264,1.264,0,0,0-.416-.368,1.328,1.328,0,0,0-.656-.144,2.464,2.464,0,0,0-1.424.464ZM-8.3-.176a.2.2,0,0,1-.128.16A2.607,2.607,0,0,1-9.472.16a2.361,2.361,0,0,1-.7-.1,1.03,1.03,0,0,1-.5-.328,1.232,1.232,0,0,1-.248-.624,3.355,3.355,0,0,1,.04-.984l1.648-9.376a.125.125,0,0,1,.112-.112q.176-.016.44-.032l.512-.032q.248-.016.44-.032t.24-.016q.1,0,.1.112L-9.04-1.984q-.08.4.048.512a.516.516,0,0,0,.352.112,1.772,1.772,0,0,0,.5-.08q.08-.016.08.08Zm6.9-.3a.2.2,0,0,1-.144.16,3.465,3.465,0,0,1-.9.36A5.387,5.387,0,0,1-3.712.16a3.885,3.885,0,0,1-1.3-.208A2.713,2.713,0,0,1-6.024-.672,2.788,2.788,0,0,1-6.68-1.72,4.29,4.29,0,0,1-6.912-3.2,5.372,5.372,0,0,1-6.6-5.008,5.02,5.02,0,0,1-5.728-6.56,4.338,4.338,0,0,1-4.384-7.64a3.686,3.686,0,0,1,1.728-.408A3.271,3.271,0,0,1-1.5-7.872,2.039,2.039,0,0,1-.752-7.4a1.775,1.775,0,0,1,.416.672,2.392,2.392,0,0,1,.128.776A2.272,2.272,0,0,1-1.376-3.888a7.183,7.183,0,0,1-3.76.7q0,.048-.008.128t-.008.128a2.14,2.14,0,0,0,.1.5,1.19,1.19,0,0,0,.288.472,1.612,1.612,0,0,0,.56.36,2.387,2.387,0,0,0,.9.144A4.708,4.708,0,0,0-2.3-1.568,3.427,3.427,0,0,0-1.264-2q.08-.032.08.08Zm-3.584-4.1a7.449,7.449,0,0,0,1.608-.088,3.2,3.2,0,0,0,.952-.312A1.109,1.109,0,0,0-1.976-5.4a.961.961,0,0,0,.12-.44,1.091,1.091,0,0,0-.032-.248.545.545,0,0,0-.136-.248.767.767,0,0,0-.288-.184A1.366,1.366,0,0,0-2.8-6.592a1.708,1.708,0,0,0-.7.152,2.441,2.441,0,0,0-.64.416,2.7,2.7,0,0,0-.52.64A3.081,3.081,0,0,0-4.992-4.576Z" transform="translate(503 5199)"/><path class="n" d="M-38.352-.112Q-38.368,0-38.464,0H-40.1q-.112,0-.1-.128L-38.4-10.416a.1.1,0,0,1,.112-.1h1.648q.112,0,.112.128Zm4.976-7.776q.1,0,.1.08a1.428,1.428,0,0,1,.008.4q-.024.208-.056.4a4.086,4.086,0,0,1,1.248-.808,3.431,3.431,0,0,1,1.232-.232,1.831,1.831,0,0,1,1.112.312,1.585,1.585,0,0,1,.584.872,4.392,4.392,0,0,1,1.392-.928,3.752,3.752,0,0,1,1.344-.256,2.367,2.367,0,0,1,.848.152,1.572,1.572,0,0,1,.68.5,2.009,2.009,0,0,1,.376.944,4.447,4.447,0,0,1-.064,1.472L-25.44-.128Q-25.456,0-25.552,0h-1.584q-.144,0-.128-.128l.88-4.96a1.876,1.876,0,0,0-.04-1.016q-.152-.36-.712-.36A1.873,1.873,0,0,0-28-6.208a2.664,2.664,0,0,0-.9.848.7.7,0,0,0-.112.248q-.032.136-.064.3l-.848,4.7A.116.116,0,0,1-30.048,0h-1.568q-.128,0-.1-.128l.864-4.88a1.913,1.913,0,0,0-.04-1.088.685.685,0,0,0-.7-.368A1.836,1.836,0,0,0-32.5-6.2a2.937,2.937,0,0,0-.88.824,1.08,1.08,0,0,0-.12.192,1.12,1.12,0,0,0-.088.32l-.848,4.736q-.032.08-.04.1T-34.56,0H-36.1q-.144,0-.128-.128l1.088-6.064q.08-.432.144-.9t.08-.688a.1.1,0,0,1,.112-.112Zm16.24,7.344a.154.154,0,0,1-.1.128,6.738,6.738,0,0,1-1.336.44,6.814,6.814,0,0,1-1.4.136,4,4,0,0,1-1.272-.2,2.9,2.9,0,0,1-1.048-.608,2.83,2.83,0,0,1-.7-1.024,3.8,3.8,0,0,1-.256-1.464,4.793,4.793,0,0,1,.36-1.816A4.714,4.714,0,0,1-21.84-6.528a5.171,5.171,0,0,1,1.68-1.1,5.743,5.743,0,0,1,2.24-.416,7.246,7.246,0,0,1,1.168.08q.48.08.848.176a.13.13,0,0,1,.032.1ZM-17.9-6.48q-.064,0-.152-.008T-18.3-6.5a2.974,2.974,0,0,0-1.184.24,3.047,3.047,0,0,0-.984.672,3.2,3.2,0,0,0-.672,1.032,3.466,3.466,0,0,0-.248,1.336,1.957,1.957,0,0,0,.44,1.3,1.7,1.7,0,0,0,1.384.528,2.167,2.167,0,0,0,.8-.128Zm2.384,7.936q.016-.1.128-.064a4.257,4.257,0,0,0,.936.328,4.8,4.8,0,0,0,1.032.1,2.6,2.6,0,0,0,1.7-.512A2.236,2.236,0,0,0-11.2.648a5.027,5.027,0,0,0,.384-1.08,3.307,3.307,0,0,1-1.392.272,3.28,3.28,0,0,1-1.144-.192,2.474,2.474,0,0,1-.9-.576,2.652,2.652,0,0,1-.6-.96,3.769,3.769,0,0,1-.216-1.328,4.881,4.881,0,0,1,.336-1.768,4.786,4.786,0,0,1,.968-1.552,4.731,4.731,0,0,1,1.568-1.1,5.21,5.21,0,0,1,2.136-.416,6.839,6.839,0,0,1,1.376.12,8.745,8.745,0,0,1,.96.248.1.1,0,0,1,.08.128q-.08.224-.136.44t-.1.472L-8.8-1.44q-.1.512-.176.9t-.168.68q-.088.3-.176.528T-9.5,1.1a3.878,3.878,0,0,1-.768,1.152,3.855,3.855,0,0,1-.984.72,4.02,4.02,0,0,1-1.12.376,6.7,6.7,0,0,1-1.176.1,5.028,5.028,0,0,1-2.256-.448.11.11,0,0,1-.048-.144Zm5.776-7.872a.726.726,0,0,0-.264-.072,3.171,3.171,0,0,0-.408-.024,2.569,2.569,0,0,0-1.1.24,2.715,2.715,0,0,0-.888.664A3.232,3.232,0,0,0-13-4.632a3.2,3.2,0,0,0-.216,1.176,2.733,2.733,0,0,0,.08.68,1.438,1.438,0,0,0,.264.544,1.205,1.205,0,0,0,.488.36,1.942,1.942,0,0,0,.752.128A2.97,2.97,0,0,0-11.1-1.8a1.733,1.733,0,0,0,.592-.232ZM-1.408-.48a.2.2,0,0,1-.144.16,3.465,3.465,0,0,1-.9.36A5.387,5.387,0,0,1-3.712.16a3.885,3.885,0,0,1-1.3-.208A2.713,2.713,0,0,1-6.024-.672,2.788,2.788,0,0,1-6.68-1.72,4.29,4.29,0,0,1-6.912-3.2,5.372,5.372,0,0,1-6.6-5.008,5.02,5.02,0,0,1-5.728-6.56,4.338,4.338,0,0,1-4.384-7.64a3.686,3.686,0,0,1,1.728-.408A3.271,3.271,0,0,1-1.5-7.872,2.039,2.039,0,0,1-.752-7.4a1.775,1.775,0,0,1,.416.672,2.392,2.392,0,0,1,.128.776A2.272,2.272,0,0,1-1.376-3.888a7.183,7.183,0,0,1-3.76.7q0,.048-.008.128t-.008.128a2.14,2.14,0,0,0,.1.5,1.19,1.19,0,0,0,.288.472,1.612,1.612,0,0,0,.56.36,2.387,2.387,0,0,0,.9.144A4.708,4.708,0,0,0-2.3-1.568,3.427,3.427,0,0,0-1.264-2q.08-.032.08.08Zm-3.584-4.1a7.449,7.449,0,0,0,1.608-.088,3.2,3.2,0,0,0,.952-.312A1.109,1.109,0,0,0-1.976-5.4a.961.961,0,0,0,.12-.44,1.091,1.091,0,0,0-.032-.248.545.545,0,0,0-.136-.248.767.767,0,0,0-.288-.184A1.366,1.366,0,0,0-2.8-6.592a1.708,1.708,0,0,0-.7.152,2.441,2.441,0,0,0-.64.416,2.7,2.7,0,0,0-.52.64A3.081,3.081,0,0,0-4.992-4.576Z" transform="translate(503 5084)"/><g transform="translate(812 5055)"><rect class="o" width="48" height="48"/><path class="p" d="M44,27H4L1,23l4-4H43l4,4Z"/><path class="q" d="M41,47H7a2,2,0,0,1-2-2V3A2,2,0,0,1,7,1H31L43,13V45A2,2,0,0,1,41,47Z"/><path class="r" d="M31,1V11a2,2,0,0,0,2,2H43Z"/><path class="s" d="M1,23H47V39a2,2,0,0,1-2,2H3a2,2,0,0,1-2-2Z"/><path class="c" d="M10.586,38.465a5.218,5.218,0,0,1-1.1-.112V36.7c.116.022.237.046.366.073a2.052,2.052,0,0,0,.42.04.858.858,0,0,0,.751-.316,1.942,1.942,0,0,0,.225-1.086V28.147h2.133v7.085a3.636,3.636,0,0,1-.7,2.414,2.6,2.6,0,0,1-2.095.819Z"/><path class="c" d="M20.211,33.615a2.307,2.307,0,0,1-.371,1.3,2.42,2.42,0,0,1-1.069.881,3.947,3.947,0,0,1-1.638.314A6.662,6.662,0,0,1,15.817,36a4.85,4.85,0,0,1-1.106-.384v-1.89a6.378,6.378,0,0,0,1.262.486,4.719,4.719,0,0,0,1.2.174,1.177,1.177,0,0,0,.693-.163.5.5,0,0,0,.221-.422A.465.465,0,0,0,18,33.516a1.065,1.065,0,0,0-.285-.245,11.172,11.172,0,0,0-1.044-.5,4.991,4.991,0,0,1-1.152-.677,2.078,2.078,0,0,1-.57-.752,2.486,2.486,0,0,1-.185-1,2.009,2.009,0,0,1,.79-1.692,3.468,3.468,0,0,1,2.17-.607,6.091,6.091,0,0,1,2.486.564l-.65,1.637a4.716,4.716,0,0,0-1.9-.5.985.985,0,0,0-.6.145.439.439,0,0,0-.189.359.516.516,0,0,0,.239.414,9.229,9.229,0,0,0,1.3.666,3.583,3.583,0,0,1,1.41.981,2.13,2.13,0,0,1,.391,1.306Z"/><path class="c" d="M28.773,32.062a4.234,4.234,0,0,1-.972,3.014,3.729,3.729,0,0,1-2.848,1.031A3.722,3.722,0,0,1,22.12,35.07a4.215,4.215,0,0,1-.985-3.017,4.187,4.187,0,0,1,.98-3,3.745,3.745,0,0,1,2.85-1.035,3.718,3.718,0,0,1,2.842,1.027A4.239,4.239,0,0,1,28.773,32.062Zm-5.4,0q0,2.279,1.584,2.278a1.361,1.361,0,0,0,1.2-.553,3.026,3.026,0,0,0,.391-1.725,3.069,3.069,0,0,0-.394-1.737,1.35,1.35,0,0,0-1.18-.561q-1.606,0-1.605,2.3Z"/><path class="c" d="M37.666,36H34.885l-2.869-5.532h-.047q.1,1.305.1,1.993V36h-1.88V28.147h2.772L35.818,33.6h.034c-.051-.792-.077-1.426-.077-1.907v-3.55h1.891Z"/></g><g transform="translate(812 5117)"><rect class="o" width="48" height="48"/><path class="t" d="M44,27H4L1,23l4-4H43l4,4Z"/><path class="u" d="M41,47H7a2,2,0,0,1-2-2V3A2,2,0,0,1,7,1H31L43,13V45A2,2,0,0,1,41,47Z"/><path class="v" d="M31,1V11a2,2,0,0,0,2,2H43Z"/><path class="w" d="M1,23H47V39a2,2,0,0,1-2,2H3a2,2,0,0,1-2-2Z"/><path class="c" d="M18.414,30.645a2.632,2.632,0,0,1-.775,2.033,3.129,3.129,0,0,1-2.2.717h-.6V36H12.715V28.147h2.719a3.33,3.33,0,0,1,2.234.649A2.325,2.325,0,0,1,18.414,30.645Zm-3.577,1.021h.387a1.058,1.058,0,0,0,.761-.27.973.973,0,0,0,.281-.74q0-.8-.881-.8h-.548v1.805Z" transform="translate(-0.048 -0.07)"/><path class="c" d="M27.143,36H24.36l-2.867-5.532h-.049q.1,1.305.1,1.993V36H19.667V28.147h2.771L25.3,33.6h.031q-.075-1.187-.074-1.907v-3.55h1.891V36Z" transform="translate(-0.048 -0.07)"/><path class="c" d="M31.992,31.4h3.389v4.232a9.318,9.318,0,0,1-3.034.473,3.666,3.666,0,0,1-2.806-1.053,4.209,4.209,0,0,1-.992-3,3.941,3.941,0,0,1,1.086-2.96,4.17,4.17,0,0,1,3.039-1.058,6.748,6.748,0,0,1,1.4.139,6,6,0,0,1,1.146.355l-.672,1.664a4.158,4.158,0,0,0-1.863-.418,1.773,1.773,0,0,0-1.438.6,2.618,2.618,0,0,0-.508,1.727,2.657,2.657,0,0,0,.459,1.679,1.593,1.593,0,0,0,1.324.577,3.9,3.9,0,0,0,.871-.091V33.041h-1.4V31.4Z" transform="translate(-0.048 -0.07)"/></g><g transform="translate(812 5179)"><rect class="o" width="48" height="48"/><path class="x" d="M44,27H4L1,23l4-4H43l4,4Z"/><path class="y" d="M41,47H7a2,2,0,0,1-2-2V3A2,2,0,0,1,7,1H31L43,13V45A2,2,0,0,1,41,47Z"/><path class="z" d="M31,1V11a2,2,0,0,0,2,2H43Z"/><path class="aa" d="M1,23H47V39a2,2,0,0,1-2,2H3a2,2,0,0,1-2-2Z"/><path class="c" d="M17.786,29.775a1.352,1.352,0,0,0-1.182.62,2.991,2.991,0,0,0-.424,1.71q0,2.268,1.724,2.268a3.525,3.525,0,0,0,1.01-.146,10.247,10.247,0,0,0,.983-.349v1.793a5.422,5.422,0,0,1-2.224.436,3.52,3.52,0,0,1-2.726-1.031A4.255,4.255,0,0,1,14,32.1a4.765,4.765,0,0,1,.459-2.144,3.293,3.293,0,0,1,1.321-1.421,4,4,0,0,1,2.028-.5,5.58,5.58,0,0,1,2.433.553l-.65,1.67a7.476,7.476,0,0,0-.87-.344A3.04,3.04,0,0,0,17.786,29.775Z" transform="translate(-0.279 -0.071)"/><path class="c" d="M26.562,33.615a2.317,2.317,0,0,1-.371,1.3,2.425,2.425,0,0,1-1.069.881,3.953,3.953,0,0,1-1.638.314A6.662,6.662,0,0,1,22.168,36a4.833,4.833,0,0,1-1.106-.384V33.722a6.28,6.28,0,0,0,1.262.486,4.719,4.719,0,0,0,1.2.174,1.172,1.172,0,0,0,.693-.163.5.5,0,0,0,.22-.422.473.473,0,0,0-.088-.282,1.046,1.046,0,0,0-.285-.244c-.13-.082-.479-.251-1.044-.505a4.964,4.964,0,0,1-1.152-.677,2.075,2.075,0,0,1-.569-.752,2.485,2.485,0,0,1-.186-1,2.01,2.01,0,0,1,.79-1.692,3.486,3.486,0,0,1,2.17-.606,6.1,6.1,0,0,1,2.487.563l-.65,1.638a4.716,4.716,0,0,0-1.9-.5.991.991,0,0,0-.6.145.438.438,0,0,0-.188.359.521.521,0,0,0,.239.414,8.994,8.994,0,0,0,1.3.666,3.6,3.6,0,0,1,1.41.98A2.139,2.139,0,0,1,26.562,33.615Z" transform="translate(-0.279 -0.071)"/><path class="c" d="M32.186,28.147H34.56L31.987,36h-2.5l-2.562-7.853h2.385l1.069,3.979a12.1,12.1,0,0,1,.365,1.848q.037-.375.15-.939c.075-.376.142-.672.2-.887Z" transform="translate(-0.279 -0.071)"/></g><g transform="translate(39 665)"><g transform="translate(-11)"><g transform="translate(10 34)"><g class="ap" transform="matrix(1, 0, 0, 1, 392.62, 4320)"><rect class="c" width="255" height="45" rx="14" transform="translate(585.38 193)"/></g><path class="ab" d="M1.11-.135c0,.09.045.135.105.135.48.03,1.86.03,2.8.03C6.555.03,9.345-1.44,9.345-5.1c0-2.79-1.77-4.785-5.3-4.785-1.38,0-2.4.03-2.835.045-.09.015-.105.045-.105.12ZM2.925-8.28c.36-.015.69-.03,1.11-.03,2.025,0,3.45,1.08,3.45,3.255a3.248,3.248,0,0,1-3.54,3.51c-.39,0-.72,0-1.02-.015ZM14.64-1.455a2.742,2.742,0,0,1-1.065.18c-1.08,0-1.47-.48-1.47-1.035,0-.645.525-1.035,1.71-1.035a6.171,6.171,0,0,1,.825.045ZM16.4-4.575a2.722,2.722,0,0,0-2.985-2.97,5.573,5.573,0,0,0-2.28.45.143.143,0,0,0-.09.15V-5.64a.088.088,0,0,0,.12.09,4.462,4.462,0,0,1,1.965-.42c1.32,0,1.515.78,1.515,1.125v.18c-.135-.015-.48-.03-.93-.03-1.95,0-3.375.795-3.375,2.385,0,1.695,1.3,2.46,2.94,2.46A7.3,7.3,0,0,0,16.4-.525c.03-.015.03-.03.03-.06C16.4-.9,16.4-1.2,16.4-1.53ZM21.7-1.32c0-.09-.045-.105-.09-.09a2.542,2.542,0,0,1-.57.06c-.645,0-.855-.315-.855-.975V-5.88h1.47c.075,0,.1-.03.1-.105V-7.29c0-.075-.03-.105-.1-.105H20.2c0-.735.03-1.62.075-2.115,0-.075-.03-.09-.1-.075l-1.515.21a.144.144,0,0,0-.12.135,15.832,15.832,0,0,0-.15,1.845h-.945c-.09,0-.12.03-.12.12v1.26c0,.09.03.12.105.135h.945v3.945C18.375-.45,19.11.15,20.34.15a3.448,3.448,0,0,0,1.275-.21c.075-.03.09-.09.09-.18Zm5.13-.135a2.742,2.742,0,0,1-1.065.18c-1.08,0-1.47-.48-1.47-1.035,0-.645.525-1.035,1.71-1.035a6.171,6.171,0,0,1,.825.045Zm1.755-3.12A2.722,2.722,0,0,0,25.6-7.545a5.573,5.573,0,0,0-2.28.45.143.143,0,0,0-.09.15V-5.64a.088.088,0,0,0,.12.09,4.462,4.462,0,0,1,1.965-.42c1.32,0,1.515.78,1.515,1.125v.18c-.135-.015-.48-.03-.93-.03-1.95,0-3.375.795-3.375,2.385,0,1.695,1.305,2.46,2.94,2.46a7.3,7.3,0,0,0,3.12-.675c.03-.015.03-.03.03-.06-.03-.315-.03-.615-.03-.945Zm1.995-6.105a.1.1,0,0,0-.1.105V-.315a.16.16,0,0,0,.1.135,7.5,7.5,0,0,0,2.25.33A4.092,4.092,0,0,0,37.215-4a3.386,3.386,0,0,0-3.54-3.54,4.343,4.343,0,0,0-1.365.21l-.015-3.225c0-.105-.03-.12-.135-.12ZM35.37-3.825A2.269,2.269,0,0,1,33-1.38a2.5,2.5,0,0,1-.69-.075v-4.38A2.754,2.754,0,0,1,33.36-6,1.932,1.932,0,0,1,35.37-3.825Zm7.155,2.37a2.742,2.742,0,0,1-1.065.18c-1.08,0-1.47-.48-1.47-1.035,0-.645.525-1.035,1.71-1.035a6.171,6.171,0,0,1,.825.045Zm1.755-3.12a2.722,2.722,0,0,0-2.985-2.97,5.573,5.573,0,0,0-2.28.45.143.143,0,0,0-.09.15V-5.64a.088.088,0,0,0,.12.09,4.462,4.462,0,0,1,1.965-.42c1.32,0,1.515.78,1.515,1.125v.18c-.135-.015-.48-.03-.93-.03-1.95,0-3.375.795-3.375,2.385,0,1.695,1.305,2.46,2.94,2.46a7.3,7.3,0,0,0,3.12-.675c.03-.015.03-.03.03-.06-.03-.315-.03-.615-.03-.945Zm6.075-1.08c.09.03.135-.015.135-.09v-1.32a.183.183,0,0,0-.09-.18,4.624,4.624,0,0,0-1.89-.3c-1.875,0-2.805,1.065-2.805,2.2,0,1.08.585,1.755,2.22,2.355.93.375,1.215.615,1.215.99s-.375.66-1.155.66a4.083,4.083,0,0,1-2.145-.6.078.078,0,0,0-.12.075V-.435c0,.09.03.12.1.165A4.614,4.614,0,0,0,47.94.15C49.785.15,50.9-.735,50.9-2.145c0-1.065-.585-1.74-2.3-2.37-.96-.375-1.185-.6-1.185-.93,0-.315.27-.645,1.065-.645A4.266,4.266,0,0,1,50.355-5.655Zm6.375,2.37a11.425,11.425,0,0,0,1.545-.06.129.129,0,0,0,.12-.105,4.54,4.54,0,0,0,.06-.93A2.982,2.982,0,0,0,55.38-7.545c-2.265,0-3.525,1.845-3.525,3.93A3.465,3.465,0,0,0,55.56.15a4.981,4.981,0,0,0,2.25-.435A.159.159,0,0,0,57.9-.45V-1.695c0-.075-.045-.09-.09-.06a4.727,4.727,0,0,1-1.86.36c-1.53,0-2.22-.84-2.265-1.89Zm-3.045-1.29a1.639,1.639,0,0,1,1.62-1.53,1.388,1.388,0,0,1,1.44,1.395v.12a7.352,7.352,0,0,1-.825.015ZM64.17-5.655c.09.03.135-.015.135-.09v-1.32a.183.183,0,0,0-.09-.18,4.624,4.624,0,0,0-1.89-.3c-1.875,0-2.805,1.065-2.805,2.2,0,1.08.585,1.755,2.22,2.355.93.375,1.215.615,1.215.99s-.375.66-1.155.66a4.083,4.083,0,0,1-2.145-.6.078.078,0,0,0-.12.075V-.435c0,.09.03.12.1.165a4.614,4.614,0,0,0,2.115.42C63.6.15,64.71-.735,64.71-2.145c0-1.065-.585-1.74-2.3-2.37-.96-.375-1.185-.6-1.185-.93,0-.315.27-.645,1.065-.645A4.266,4.266,0,0,1,64.17-5.655Zm9.105,4.2a2.742,2.742,0,0,1-1.065.18c-1.08,0-1.47-.48-1.47-1.035,0-.645.525-1.035,1.71-1.035a6.171,6.171,0,0,1,.825.045Zm1.755-3.12a2.722,2.722,0,0,0-2.985-2.97,5.573,5.573,0,0,0-2.28.45.143.143,0,0,0-.09.15V-5.64a.088.088,0,0,0,.12.09,4.462,4.462,0,0,1,1.965-.42c1.32,0,1.515.78,1.515,1.125v.18c-.135-.015-.48-.03-.93-.03-1.95,0-3.375.795-3.375,2.385,0,1.695,1.305,2.46,2.94,2.46a7.3,7.3,0,0,0,3.12-.675c.03-.015.03-.03.03-.06-.03-.315-.03-.615-.03-.945ZM76.92-.12c0,.075.03.12.12.12h1.575a.11.11,0,0,0,.12-.12V-5.355A1.92,1.92,0,0,1,80.19-5.97c.87,0,1.29.57,1.29,1.56V-.135A.119.119,0,0,0,81.615,0h1.56c.075,0,.12-.03.12-.135v-4.44c0-2.4-1.38-2.97-2.5-2.97a3.307,3.307,0,0,0-2.175.825,3.266,3.266,0,0,0-.1-.57c-.03-.075-.075-.105-.18-.105H76.965c-.09,0-.1.03-.1.105.03.3.06,1.11.06,1.62ZM88.56.15a7.113,7.113,0,0,0,2.835-.585.117.117,0,0,0,.09-.135c-.03-.27-.06-.66-.06-.96v-9.06c0-.06,0-.09-.075-.09H89.715c-.06,0-.09.03-.09.105V-7.5a5.19,5.19,0,0,0-.645-.045A3.921,3.921,0,0,0,84.72-3.63,3.535,3.535,0,0,0,88.56.15Zm1.065-1.68a2.774,2.774,0,0,1-.87.12A2.048,2.048,0,0,1,86.58-3.72a2.2,2.2,0,0,1,2.34-2.31,1.994,1.994,0,0,1,.705.105ZM99.09.15c2.265,0,3.645-1.14,3.645-2.895,0-1.185-.555-2.13-2.505-2.94l-.57-.24c-1.185-.495-1.53-.87-1.53-1.41,0-.525.4-1.065,1.695-1.065a4.686,4.686,0,0,1,2.265.495c.09.06.135,0,.135-.06V-9.42c0-.1-.015-.15-.09-.195a5.5,5.5,0,0,0-2.3-.39c-2.265,0-3.48,1.23-3.48,2.835,0,1.125.48,2.055,2.325,2.835l.72.3c1.14.48,1.5.9,1.5,1.455,0,.645-.525,1.125-1.755,1.125a5.047,5.047,0,0,1-2.67-.78c-.06-.03-.12,0-.12.06v1.56a.223.223,0,0,0,.1.225A5.709,5.709,0,0,0,99.09.15Zm9.615-3.435a11.425,11.425,0,0,0,1.545-.06.129.129,0,0,0,.12-.105,4.539,4.539,0,0,0,.06-.93,2.982,2.982,0,0,0-3.075-3.165c-2.265,0-3.525,1.845-3.525,3.93a3.465,3.465,0,0,0,3.7,3.765,4.981,4.981,0,0,0,2.25-.435.159.159,0,0,0,.09-.165V-1.695c0-.075-.045-.09-.09-.06a4.727,4.727,0,0,1-1.86.36c-1.53,0-2.22-.84-2.265-1.89Zm-3.045-1.29a1.639,1.639,0,0,1,1.62-1.53,1.388,1.388,0,0,1,1.44,1.395v.12a7.352,7.352,0,0,1-.825.015Zm9.96,3.12a2.742,2.742,0,0,1-1.065.18c-1.08,0-1.47-.48-1.47-1.035,0-.645.525-1.035,1.71-1.035a6.171,6.171,0,0,1,.825.045Zm1.755-3.12a2.722,2.722,0,0,0-2.985-2.97,5.573,5.573,0,0,0-2.28.45.143.143,0,0,0-.09.15V-5.64a.088.088,0,0,0,.12.09,4.462,4.462,0,0,1,1.965-.42c1.32,0,1.515.78,1.515,1.125v.18c-.135-.015-.48-.03-.93-.03-1.95,0-3.375.795-3.375,2.385,0,1.695,1.305,2.46,2.94,2.46a7.3,7.3,0,0,0,3.12-.675c.03-.015.03-.03.03-.06-.03-.315-.03-.615-.03-.945Zm1.9-2.82c-.075,0-.09.015-.09.09.06.495.075,1.365.075,2.01V-.12c0,.075.03.12.135.12h1.56c.09,0,.135-.03.135-.12V-4.95a2.914,2.914,0,0,1,2.295-.795c.105,0,.135-.03.135-.105V-7.44c0-.09-.03-.105-.12-.105a3.125,3.125,0,0,0-2.4,1.17,3.391,3.391,0,0,0-.15-.9.149.149,0,0,0-.165-.12Zm10.5,5.85c0-.06-.03-.105-.1-.075a4.319,4.319,0,0,1-1.305.15,2.152,2.152,0,0,1-2.34-2.265,2.131,2.131,0,0,1,2.325-2.25,3.526,3.526,0,0,1,1.29.195c.06.015.12.015.12-.09l.015-1.335c0-.09-.015-.135-.075-.165a4.308,4.308,0,0,0-1.41-.165,3.837,3.837,0,0,0-4.125,3.87A3.649,3.649,0,0,0,128.04.15a4.569,4.569,0,0,0,1.665-.24c.06-.015.075-.045.075-.12Zm3.21-3.9a2.128,2.128,0,0,1,1.44-.525c.87,0,1.305.57,1.305,1.575v4.26A.119.119,0,0,0,135.87,0h1.56c.075,0,.12-.03.12-.135v-4.44c0-2.4-1.365-2.97-2.505-2.97a3.289,3.289,0,0,0-2.055.69v-3.72c0-.075-.015-.105-.1-.105h-1.59c-.09,0-.12.045-.12.105V-.12c0,.075.03.12.12.12h1.59c.09,0,.1-.03.1-.105Zm11.88-4.29c0-.09-.03-.12-.12-.12h-1.575c-.075,0-.12.015-.12.12v9.6c0,.09.03.135.12.135h1.575c.09,0,.12-.03.12-.135ZM146.835-.12c0,.075.03.12.12.12h1.575a.11.11,0,0,0,.12-.12V-5.355A1.921,1.921,0,0,1,150.1-5.97c.87,0,1.29.57,1.29,1.56V-.135A.119.119,0,0,0,151.53,0h1.56c.075,0,.12-.03.12-.135v-4.44c0-2.4-1.38-2.97-2.505-2.97a3.307,3.307,0,0,0-2.175.825,3.266,3.266,0,0,0-.1-.57c-.03-.075-.075-.105-.18-.105H146.88c-.09,0-.105.03-.105.105.03.3.06,1.11.06,1.62Zm11.64.27a7.113,7.113,0,0,0,2.835-.585.117.117,0,0,0,.09-.135c-.03-.27-.06-.66-.06-.96v-9.06c0-.06,0-.09-.075-.09H159.63c-.06,0-.09.03-.09.105V-7.5a5.19,5.19,0,0,0-.645-.045,3.921,3.921,0,0,0-4.26,3.915A3.535,3.535,0,0,0,158.475.15Zm1.065-1.68a2.774,2.774,0,0,1-.87.12,2.048,2.048,0,0,1-2.175-2.31,2.2,2.2,0,0,1,2.34-2.31,1.994,1.994,0,0,1,.705.105Zm8.115-1.755a11.425,11.425,0,0,0,1.545-.06.129.129,0,0,0,.12-.105,4.54,4.54,0,0,0,.06-.93,2.982,2.982,0,0,0-3.075-3.165c-2.265,0-3.525,1.845-3.525,3.93A3.465,3.465,0,0,0,166.485.15a4.981,4.981,0,0,0,2.25-.435.159.159,0,0,0,.09-.165V-1.695c0-.075-.045-.09-.09-.06a4.727,4.727,0,0,1-1.86.36c-1.53,0-2.22-.84-2.265-1.89Zm-3.045-1.29a1.639,1.639,0,0,1,1.62-1.53,1.388,1.388,0,0,1,1.44,1.395v.12a7.352,7.352,0,0,1-.825.015Zm7.575.9c-.645.945-1.68,2.6-2.31,3.54A.084.084,0,0,0,169.95,0h1.6c.1,0,.135-.03.165-.09l1.545-2.64h.015l1.5,2.61a.216.216,0,0,0,.195.12h1.845c.105,0,.135-.06.075-.12-.525-.765-1.77-2.64-2.415-3.645.585-.825,1.74-2.67,2.265-3.51.045-.075.015-.12-.075-.12h-1.59c-.075,0-.09,0-.135.075l-1.5,2.625h-.03l-1.425-2.6c-.045-.09-.075-.105-.18-.105h-1.8c-.1,0-.12.075-.075.135Zm9.96.39a11.425,11.425,0,0,0,1.545-.06.129.129,0,0,0,.12-.105,4.54,4.54,0,0,0,.06-.93,2.982,2.982,0,0,0-3.075-3.165c-2.265,0-3.525,1.845-3.525,3.93A3.465,3.465,0,0,0,180.975.15a4.981,4.981,0,0,0,2.25-.435.159.159,0,0,0,.09-.165V-1.695c0-.075-.045-.09-.09-.06a4.727,4.727,0,0,1-1.86.36c-1.53,0-2.22-.84-2.265-1.89ZM179.1-4.575a1.639,1.639,0,0,1,1.62-1.53,1.388,1.388,0,0,1,1.44,1.395v.12a7.352,7.352,0,0,1-.825.015Zm10.485-1.08c.09.03.135-.015.135-.09v-1.32a.183.183,0,0,0-.09-.18,4.624,4.624,0,0,0-1.89-.3c-1.875,0-2.805,1.065-2.805,2.2,0,1.08.585,1.755,2.22,2.355.93.375,1.215.615,1.215.99s-.375.66-1.155.66a4.083,4.083,0,0,1-2.145-.6.078.078,0,0,0-.12.075V-.435c0,.09.03.12.1.165a4.614,4.614,0,0,0,2.115.42c1.845,0,2.955-.885,2.955-2.295,0-1.065-.585-1.74-2.295-2.37-.96-.375-1.185-.6-1.185-.93,0-.315.27-.645,1.065-.645A4.266,4.266,0,0,1,189.585-5.655Z" transform="translate(1026 4541)"/><g class="ac" transform="translate(994 4524)"><rect class="o" width="24" height="24"/><line class="ad" x1="4.172" y1="4.172" transform="translate(18.828 14.828)"/><line class="ad" x1="7" transform="translate(1 9)"/><line class="ad" x1="7" transform="translate(1 15)"/><line class="ad" x1="15" transform="translate(1 21)"/><line class="ad" x1="15" transform="translate(1 3)"/><circle class="ad" cx="4" cy="4" r="4" transform="translate(12 8)"/></g></g><g transform="translate(273 -351)"><g class="ao" transform="matrix(1, 0, 0, 1, 129.62, 4705)"><rect class="c" width="94" height="45" rx="14" transform="translate(848.38 193)"/></g><path class="ab" d="M7.86-1.65c0-.09-.045-.105-.1-.075A5.33,5.33,0,0,1,5.91-1.47,3.28,3.28,0,0,1,2.415-4.95,3.233,3.233,0,0,1,5.88-8.4a4.8,4.8,0,0,1,1.95.33c.06.03.12.03.12-.09V-9.585a.159.159,0,0,0-.09-.165,5.135,5.135,0,0,0-1.95-.255C2.64-10.005.54-7.92.54-4.9.54-1.485,2.91.15,5.685.15a6.468,6.468,0,0,0,2.07-.27.19.19,0,0,0,.1-.195ZM11.13,0c.075,0,.12-.03.12-.12V-3.78h1.29c.165,0,.24.075.345.255.66,1.05,1.71,2.775,2.145,3.45A.25.25,0,0,0,15.24,0h1.875c.09,0,.075-.075.03-.165C16.71-.915,14.91-3.6,14.415-4.29A2.788,2.788,0,0,0,16.35-6.93c0-1.92-1.41-2.955-3.81-2.955-1.155,0-1.785.015-2.97.045-.09,0-.105.06-.105.135V-.12c0,.09.03.12.12.12Zm.12-5.325V-8.28c.24-.015.72-.03,1.23-.03,1.275,0,2.07.495,2.07,1.485,0,.96-.78,1.5-1.995,1.5Zm7.335-4.44L18.015-.12c-.015.105.015.12.1.12h1.5c.09,0,.12-.015.12-.105.15-3.15.27-6.96.285-8.475h.03c.42,1.83,1.62,6.195,2.265,8.475.015.09.045.105.15.105h1.5A.119.119,0,0,0,24.1-.12c.6-2,2.145-7,2.49-8.445h.015c-.015.945.015,5.265.09,8.46,0,.09.045.105.12.105h1.665c.075,0,.12-.03.1-.12l-.405-9.645c-.015-.075-.045-.09-.12-.09h-2.34c-.09,0-.105.045-.135.105-.465,1.545-1.95,6.09-2.265,7.365H23.31c-.3-1.395-1.6-5.85-2.055-7.365a.135.135,0,0,0-.15-.105H18.7C18.63-9.855,18.6-9.855,18.585-9.765Z" transform="translate(1026 4926)"/><g class="ac" transform="translate(994 4909)"><rect class="o" width="24" height="24"/><rect class="ae" width="10" height="2" transform="translate(1 13)"/><rect class="ae" width="10" height="2" transform="translate(13 13)"/><rect class="ae" width="10" height="2" transform="translate(1 17)"/><rect class="ae" width="10" height="2" transform="translate(13 17)"/><rect class="ae" width="10" height="2" transform="translate(1 21)"/><rect class="ae" width="10" height="2" transform="translate(13 21)"/><path class="ae" d="M1,2v8a1,1,0,0,0,1,1H22a1,1,0,0,0,1-1V2a1,1,0,0,0-1-1H2A1,1,0,0,0,1,2ZM11,8H4V4h7Zm9,0H13V4h7Z"/></g></g></g><g transform="translate(15)"><g transform="translate(-55 -308)"><g class="an" transform="matrix(1, 0, 0, 1, 431.62, 4662)"><rect class="c" width="227" height="45" rx="14" transform="translate(546.38 71)"/></g><path class="ab" d="M1.515-9.765.945-.12C.93-.015.96,0,1.05,0h1.5c.09,0,.12-.015.12-.105.15-3.15.27-6.96.285-8.475h.03C3.4-6.75,4.605-2.385,5.25-.105c.015.09.045.105.15.105H6.9a.119.119,0,0,0,.135-.12c.6-2,2.145-7,2.49-8.445H9.54c-.015.945.015,5.265.09,8.46,0,.09.045.105.12.105h1.665c.075,0,.12-.03.105-.12l-.405-9.645c-.015-.075-.045-.09-.12-.09H8.655c-.09,0-.105.045-.135.105C8.055-8.2,6.57-3.66,6.255-2.385H6.24C5.94-3.78,4.635-8.235,4.185-9.75a.135.135,0,0,0-.15-.105h-2.4C1.56-9.855,1.53-9.855,1.515-9.765ZM17.16-1.455a2.742,2.742,0,0,1-1.065.18c-1.08,0-1.47-.48-1.47-1.035,0-.645.525-1.035,1.71-1.035a6.171,6.171,0,0,1,.825.045Zm1.755-3.12a2.722,2.722,0,0,0-2.985-2.97,5.573,5.573,0,0,0-2.28.45.143.143,0,0,0-.09.15V-5.64a.088.088,0,0,0,.12.09,4.462,4.462,0,0,1,1.965-.42c1.32,0,1.515.78,1.515,1.125v.18c-.135-.015-.48-.03-.93-.03-1.95,0-3.375.795-3.375,2.385,0,1.695,1.3,2.46,2.94,2.46a7.3,7.3,0,0,0,3.12-.675c.03-.015.03-.03.03-.06-.03-.315-.03-.615-.03-.945Zm6.975,3.03c0-.06-.03-.105-.1-.075a4.319,4.319,0,0,1-1.305.15,2.152,2.152,0,0,1-2.34-2.265,2.131,2.131,0,0,1,2.325-2.25,3.526,3.526,0,0,1,1.29.195c.06.015.12.015.12-.09l.015-1.335c0-.09-.015-.135-.075-.165a4.308,4.308,0,0,0-1.41-.165,3.837,3.837,0,0,0-4.125,3.87A3.649,3.649,0,0,0,24.15.15a4.569,4.569,0,0,0,1.665-.24c.06-.015.075-.045.075-.12Zm3.21-3.9a2.128,2.128,0,0,1,1.44-.525c.87,0,1.305.57,1.305,1.575v4.26A.119.119,0,0,0,31.98,0h1.56c.075,0,.12-.03.12-.135v-4.44c0-2.4-1.365-2.97-2.5-2.97a3.289,3.289,0,0,0-2.055.69v-3.72c0-.075-.015-.105-.1-.105h-1.59c-.09,0-.12.045-.12.105V-.12c0,.075.03.12.12.12H29c.09,0,.1-.03.1-.105Zm6.465,5.31c0,.09.045.135.15.135H37.26c.1,0,.135-.03.135-.12V-7.29c0-.09-.03-.105-.12-.105h-1.59c-.075,0-.12.03-.12.105ZM36.48-8.4a.976.976,0,0,0,1.035-1.035.964.964,0,0,0-1.02-1.035A.992.992,0,0,0,35.46-9.435.972.972,0,0,0,36.48-8.4ZM39.24-.12c0,.075.03.12.12.12h1.575a.11.11,0,0,0,.12-.12V-5.355A1.921,1.921,0,0,1,42.51-5.97c.87,0,1.29.57,1.29,1.56V-.135A.119.119,0,0,0,43.935,0h1.56c.075,0,.12-.03.12-.135v-4.44c0-2.4-1.38-2.97-2.505-2.97a3.307,3.307,0,0,0-2.175.825,3.266,3.266,0,0,0-.1-.57c-.03-.075-.075-.105-.18-.105H39.285c-.09,0-.105.03-.105.105.03.3.06,1.11.06,1.62ZM51.915-3.285a11.425,11.425,0,0,0,1.545-.06.129.129,0,0,0,.12-.105,4.54,4.54,0,0,0,.06-.93,2.982,2.982,0,0,0-3.075-3.165c-2.265,0-3.525,1.845-3.525,3.93A3.465,3.465,0,0,0,50.745.15,4.981,4.981,0,0,0,53-.285a.159.159,0,0,0,.09-.165V-1.695c0-.075-.045-.09-.09-.06a4.727,4.727,0,0,1-1.86.36c-1.53,0-2.22-.84-2.265-1.89ZM48.87-4.575a1.639,1.639,0,0,1,1.62-1.53A1.388,1.388,0,0,1,51.93-4.71v.12a7.352,7.352,0,0,1-.825.015ZM64.575,0c.075,0,.12-.015.135-.12l.255-1.41c.015-.06-.015-.105-.105-.105H60.45V-9.75c0-.06-.03-.105-.09-.105h-1.6c-.09,0-.12.06-.12.135V-.15c0,.1.03.15.15.15Zm5.91-3.285a11.425,11.425,0,0,0,1.545-.06.129.129,0,0,0,.12-.105,4.539,4.539,0,0,0,.06-.93,2.982,2.982,0,0,0-3.075-3.165c-2.265,0-3.525,1.845-3.525,3.93A3.465,3.465,0,0,0,69.315.15a4.981,4.981,0,0,0,2.25-.435.159.159,0,0,0,.09-.165V-1.695c0-.075-.045-.09-.09-.06a4.727,4.727,0,0,1-1.86.36c-1.53,0-2.22-.84-2.265-1.89ZM67.44-4.575a1.639,1.639,0,0,1,1.62-1.53A1.388,1.388,0,0,1,70.5-4.71v.12a7.352,7.352,0,0,1-.825.015Zm9.96,3.12a2.742,2.742,0,0,1-1.065.18c-1.08,0-1.47-.48-1.47-1.035,0-.645.525-1.035,1.71-1.035A6.171,6.171,0,0,1,77.4-3.3Zm1.755-3.12a2.722,2.722,0,0,0-2.985-2.97,5.573,5.573,0,0,0-2.28.45.143.143,0,0,0-.09.15V-5.64a.088.088,0,0,0,.12.09,4.462,4.462,0,0,1,1.965-.42c1.32,0,1.515.78,1.515,1.125v.18c-.135-.015-.48-.03-.93-.03-1.95,0-3.375.795-3.375,2.385C73.1-.615,74.4.15,76.035.15a7.3,7.3,0,0,0,3.12-.675c.03-.015.03-.03.03-.06-.03-.315-.03-.615-.03-.945Zm1.9-2.82c-.075,0-.09.015-.09.09.06.495.075,1.365.075,2.01V-.12c0,.075.03.12.135.12h1.56c.09,0,.135-.03.135-.12V-4.95a2.914,2.914,0,0,1,2.295-.795c.105,0,.135-.03.135-.105V-7.44c0-.09-.03-.105-.12-.105a3.125,3.125,0,0,0-2.4,1.17,3.391,3.391,0,0,0-.15-.9.149.149,0,0,0-.165-.12ZM86.37-.12c0,.075.03.12.12.12h1.575a.11.11,0,0,0,.12-.12V-5.355A1.92,1.92,0,0,1,89.64-5.97c.87,0,1.29.57,1.29,1.56V-.135A.119.119,0,0,0,91.065,0h1.56c.075,0,.12-.03.12-.135v-4.44c0-2.4-1.38-2.97-2.5-2.97a3.307,3.307,0,0,0-2.175.825,3.266,3.266,0,0,0-.1-.57c-.03-.075-.075-.105-.18-.105H86.415c-.09,0-.1.03-.1.105.03.3.06,1.11.06,1.62Zm8.265-.015c0,.09.045.135.15.135H96.33c.105,0,.135-.03.135-.12V-7.29c0-.09-.03-.105-.12-.105h-1.59c-.075,0-.12.03-.12.105ZM95.55-8.4a.976.976,0,0,0,1.035-1.035.964.964,0,0,0-1.02-1.035A.992.992,0,0,0,94.53-9.435.972.972,0,0,0,95.55-8.4ZM98.31-.12c0,.075.03.12.12.12H100a.11.11,0,0,0,.12-.12V-5.355a1.92,1.92,0,0,1,1.455-.615c.87,0,1.29.57,1.29,1.56V-.135A.119.119,0,0,0,103,0h1.56c.075,0,.12-.03.12-.135v-4.44c0-2.4-1.38-2.97-2.5-2.97A3.307,3.307,0,0,0,100-6.72a3.266,3.266,0,0,0-.1-.57c-.03-.075-.075-.105-.18-.105H98.355c-.09,0-.1.03-.1.105.03.3.06,1.11.06,1.62Zm11.43.075C110.655,0,111.4.18,111.4.84c0,.57-.63,1.155-2.055,1.155-1.245,0-1.965-.585-1.965-1.11a1.646,1.646,0,0,1,.72-1Zm-.72-6.2a1.127,1.127,0,0,1,1.2,1.26,1.089,1.089,0,0,1-1.2,1.17,1.122,1.122,0,0,1-1.215-1.2A1.131,1.131,0,0,1,109.02-6.24Zm-.42,4.605A.844.844,0,0,1,108.4-2.1a.927.927,0,0,1,.045-.45,4.039,4.039,0,0,0,.6.045c1.62,0,2.895-.81,2.895-2.415a1.943,1.943,0,0,0-.33-1.14,10.632,10.632,0,0,0,1.155.075c.075,0,.09-.03.09-.09V-7.3c0-.06-.015-.09-.09-.09h-2.085a1.673,1.673,0,0,1-.345-.045,7.556,7.556,0,0,0-1.32-.105c-1.89,0-2.985,1.125-2.985,2.565a2.2,2.2,0,0,0,1.035,1.95,1.874,1.874,0,0,0-.27.975,1.857,1.857,0,0,0,.315,1.125c-.99.855-1.395,1.47-1.395,1.95,0,1.095,1.1,2.31,3.51,2.31,2.34,0,3.84-1.23,3.84-2.76,0-1.23-.885-2.04-2.94-2.145Zm9.435-8.13-.57,9.645c-.015.105.015.12.105.12h1.5c.09,0,.12-.015.12-.105.15-3.15.27-6.96.285-8.475h.03c.42,1.83,1.62,6.195,2.265,8.475.015.09.045.105.15.105h1.5a.119.119,0,0,0,.135-.12c.6-2,2.145-7,2.49-8.445h.015c-.015.945.015,5.265.09,8.46,0,.09.045.105.12.105h1.665c.075,0,.12-.03.1-.12l-.4-9.645c-.015-.075-.045-.09-.12-.09h-2.34c-.09,0-.1.045-.135.105-.465,1.545-1.95,6.09-2.265,7.365h-.015c-.3-1.395-1.6-5.85-2.055-7.365a.135.135,0,0,0-.15-.105h-2.4C118.08-9.855,118.05-9.855,118.035-9.765Zm14.955,2.22a3.609,3.609,0,0,0-3.645,3.855A3.545,3.545,0,0,0,132.96.15a3.57,3.57,0,0,0,3.6-3.885A3.519,3.519,0,0,0,132.99-7.545ZM132.9-6.03c1.275,0,1.815,1.1,1.815,2.34,0,1.545-.795,2.31-1.725,2.31-1.14,0-1.815-.96-1.815-2.34C131.175-5.145,131.9-6.03,132.9-6.03ZM141.435.15a7.113,7.113,0,0,0,2.835-.585.117.117,0,0,0,.09-.135c-.03-.27-.06-.66-.06-.96v-9.06c0-.06,0-.09-.075-.09H142.59c-.06,0-.09.03-.09.105V-7.5a5.19,5.19,0,0,0-.645-.045A3.921,3.921,0,0,0,137.6-3.63,3.535,3.535,0,0,0,141.435.15ZM142.5-1.53a2.774,2.774,0,0,1-.87.12,2.048,2.048,0,0,1-2.175-2.31,2.2,2.2,0,0,1,2.34-2.31,1.994,1.994,0,0,1,.7.105Zm8.115-1.755a11.425,11.425,0,0,0,1.545-.06.129.129,0,0,0,.12-.105,4.54,4.54,0,0,0,.06-.93,2.982,2.982,0,0,0-3.075-3.165c-2.265,0-3.525,1.845-3.525,3.93A3.465,3.465,0,0,0,149.445.15a4.981,4.981,0,0,0,2.25-.435.159.159,0,0,0,.09-.165V-1.695c0-.075-.045-.09-.09-.06a4.727,4.727,0,0,1-1.86.36c-1.53,0-2.22-.84-2.265-1.89Zm-3.045-1.29a1.639,1.639,0,0,1,1.62-1.53,1.388,1.388,0,0,1,1.44,1.395v.12a7.352,7.352,0,0,1-.825.015Zm6.12,2.79c0,1.575.78,1.935,1.74,1.935a2.187,2.187,0,0,0,.855-.12c.075-.045.09-.06.09-.165V-1.26c0-.075-.015-.105-.06-.09a1.913,1.913,0,0,1-.285.015c-.36,0-.525-.15-.525-.615v-8.61c0-.075-.045-.12-.135-.12h-1.545c-.09,0-.135.045-.135.12Zm8.265-3.87c.09.03.135-.015.135-.09v-1.32a.183.183,0,0,0-.09-.18,4.624,4.624,0,0,0-1.89-.3c-1.875,0-2.805,1.065-2.805,2.2,0,1.08.585,1.755,2.22,2.355.93.375,1.215.615,1.215.99s-.375.66-1.155.66a4.083,4.083,0,0,1-2.145-.6.078.078,0,0,0-.12.075V-.435c0,.09.03.12.1.165a4.614,4.614,0,0,0,2.115.42c1.845,0,2.955-.885,2.955-2.295,0-1.065-.585-1.74-2.295-2.37-.96-.375-1.185-.6-1.185-.93,0-.315.27-.645,1.065-.645A4.266,4.266,0,0,1,161.955-5.655Z" transform="translate(1026 4761)"/><g class="ac" transform="translate(994.015 4744)"><rect class="o" width="24" height="24"/><path class="ae" d="M24,8a2.989,2.989,0,0,0-5.215-2.006l-6.8-2.834c0-.054.016-.1.016-.16A3,3,0,1,0,6,3a2.968,2.968,0,0,0,.606,1.789L3.731,9.1A2.937,2.937,0,0,0,3,9a3,3,0,1,0,2.963,3.366L17.57,9.787,10.4,16.362A2.957,2.957,0,0,0,9,16a3,3,0,1,0,2.76,1.826l7.819-7.167-1.138,7.4a3.021,3.021,0,1,0,1.975.315l1.143-7.429A3,3,0,0,0,24,8ZM11.215,5.006l6.486,2.7-12.166,2.7c-.044-.07-.092-.135-.141-.2L8.269,5.9A2.937,2.937,0,0,0,9,6a2.984,2.984,0,0,0,2.215-.994Z"/></g></g><g transform="translate(180 -253)"><g class="am" transform="matrix(1, 0, 0, 1, 196.62, 4607)"><rect class="c" width="199" height="45" rx="14" transform="translate(781.38 71)"/></g><path class="ab" d="M7.86-1.65c0-.09-.045-.105-.1-.075A5.33,5.33,0,0,1,5.91-1.47,3.28,3.28,0,0,1,2.415-4.95,3.233,3.233,0,0,1,5.88-8.4a4.8,4.8,0,0,1,1.95.33c.06.03.12.03.12-.09V-9.585a.159.159,0,0,0-.09-.165,5.135,5.135,0,0,0-1.95-.255C2.64-10.005.54-7.92.54-4.9.54-1.485,2.91.15,5.685.15a6.468,6.468,0,0,0,2.07-.27.19.19,0,0,0,.1-.195Zm4.53-5.9A3.609,3.609,0,0,0,8.745-3.69,3.545,3.545,0,0,0,12.36.15a3.57,3.57,0,0,0,3.6-3.885A3.519,3.519,0,0,0,12.39-7.545ZM12.3-6.03c1.275,0,1.815,1.1,1.815,2.34,0,1.545-.795,2.31-1.725,2.31-1.14,0-1.815-.96-1.815-2.34C10.575-5.145,11.3-6.03,12.3-6.03ZM17.37-.12c0,.075.03.12.12.12h1.575a.11.11,0,0,0,.12-.12V-5.355A1.921,1.921,0,0,1,20.64-5.97c.87,0,1.29.57,1.29,1.56V-.135A.119.119,0,0,0,22.065,0h1.56c.075,0,.12-.03.12-.135v-4.44c0-2.4-1.38-2.97-2.5-2.97a3.307,3.307,0,0,0-2.175.825,3.266,3.266,0,0,0-.1-.57c-.03-.075-.075-.105-.18-.105H17.415c-.09,0-.1.03-.1.105.03.3.06,1.11.06,1.62Zm11.76-1.2c0-.09-.045-.105-.09-.09a2.542,2.542,0,0,1-.57.06c-.645,0-.855-.315-.855-.975V-5.88h1.47c.075,0,.1-.03.1-.105V-7.29c0-.075-.03-.105-.1-.105H27.63c0-.735.03-1.62.075-2.115,0-.075-.03-.09-.1-.075l-1.515.21a.144.144,0,0,0-.12.135,15.832,15.832,0,0,0-.15,1.845H24.87c-.09,0-.12.03-.12.12v1.26c0,.09.03.12.105.135H25.8v3.945C25.8-.45,26.535.15,27.765.15A3.448,3.448,0,0,0,29.04-.06c.075-.03.09-.09.09-.18Zm5.64-1.965a11.425,11.425,0,0,0,1.545-.06.129.129,0,0,0,.12-.105,4.54,4.54,0,0,0,.06-.93A2.982,2.982,0,0,0,33.42-7.545c-2.265,0-3.525,1.845-3.525,3.93A3.465,3.465,0,0,0,33.6.15a4.981,4.981,0,0,0,2.25-.435.159.159,0,0,0,.09-.165V-1.695c0-.075-.045-.09-.09-.06a4.727,4.727,0,0,1-1.86.36c-1.53,0-2.22-.84-2.265-1.89Zm-3.045-1.29a1.639,1.639,0,0,1,1.62-1.53,1.388,1.388,0,0,1,1.44,1.395v.12a7.352,7.352,0,0,1-.825.015ZM37.89-.12c0,.075.03.12.12.12h1.575a.11.11,0,0,0,.12-.12V-5.355A1.921,1.921,0,0,1,41.16-5.97c.87,0,1.29.57,1.29,1.56V-.135A.119.119,0,0,0,42.585,0h1.56c.075,0,.12-.03.12-.135v-4.44c0-2.4-1.38-2.97-2.505-2.97a3.307,3.307,0,0,0-2.175.825,3.266,3.266,0,0,0-.1-.57c-.03-.075-.075-.105-.18-.105H37.935c-.09,0-.105.03-.105.105.03.3.06,1.11.06,1.62Zm11.76-1.2c0-.09-.045-.105-.09-.09a2.542,2.542,0,0,1-.57.06c-.645,0-.855-.315-.855-.975V-5.88H49.6c.075,0,.1-.03.1-.105V-7.29c0-.075-.03-.105-.1-.105H48.15c0-.735.03-1.62.075-2.115,0-.075-.03-.09-.1-.075l-1.515.21a.144.144,0,0,0-.12.135,15.832,15.832,0,0,0-.15,1.845H45.39c-.09,0-.12.03-.12.12v1.26c0,.09.03.12.1.135h.945v3.945C46.32-.45,47.055.15,48.285.15A3.448,3.448,0,0,0,49.56-.06c.075-.03.09-.09.09-.18ZM56.145,0c.075,0,.12-.03.12-.12V-3.78h1.29c.165,0,.24.075.345.255.66,1.05,1.71,2.775,2.145,3.45a.25.25,0,0,0,.21.075H62.13c.09,0,.075-.075.03-.165-.435-.75-2.235-3.435-2.73-4.125a2.788,2.788,0,0,0,1.935-2.64c0-1.92-1.41-2.955-3.81-2.955-1.155,0-1.785.015-2.97.045-.09,0-.1.06-.1.135V-.12c0,.09.03.12.12.12Zm.12-5.325V-8.28c.24-.015.72-.03,1.23-.03,1.275,0,2.07.495,2.07,1.485,0,.96-.78,1.5-1.995,1.5ZM67.35-3.285a11.425,11.425,0,0,0,1.545-.06.129.129,0,0,0,.12-.105,4.54,4.54,0,0,0,.06-.93A2.982,2.982,0,0,0,66-7.545c-2.265,0-3.525,1.845-3.525,3.93A3.465,3.465,0,0,0,66.18.15a4.981,4.981,0,0,0,2.25-.435.159.159,0,0,0,.09-.165V-1.695c0-.075-.045-.09-.09-.06a4.727,4.727,0,0,1-1.86.36c-1.53,0-2.22-.84-2.265-1.89Zm-3.045-1.29a1.639,1.639,0,0,1,1.62-1.53,1.388,1.388,0,0,1,1.44,1.395v.12a7.352,7.352,0,0,1-.825.015Zm9.21-2.97a9.156,9.156,0,0,0-3.03.6.07.07,0,0,0-.06.075c.03.21.045.7.045.885V3c0,.075.015.09.105.09.075,0,1.08-.09,1.6-.15.09-.015.105-.06.105-.12V.12a3.991,3.991,0,0,0,.45.03C75,.15,77.22-1.2,77.22-3.945A3.442,3.442,0,0,0,73.515-7.545ZM73.35-6a1.918,1.918,0,0,1,2.01,2.175A2.327,2.327,0,0,1,72.885-1.38a2.567,2.567,0,0,1-.6-.045V-5.85A3.385,3.385,0,0,1,73.35-6ZM84.915-7.29c0-.075-.015-.105-.1-.105H83.235c-.09,0-.12.03-.12.105v5.325a1.9,1.9,0,0,1-1.365.54c-.9,0-1.305-.57-1.305-1.5V-7.29c0-.075-.015-.105-.105-.105H78.765c-.09,0-.12.015-.12.105v4.575c0,2.1,1.1,2.865,2.52,2.865A2.964,2.964,0,0,0,83.25-.615a3.253,3.253,0,0,0,.1.525c.015.06.045.09.15.09h1.38c.09,0,.135-.03.12-.105a13.317,13.317,0,0,1-.09-1.545Zm2.01-3.39a.1.1,0,0,0-.105.105V-.315a.16.16,0,0,0,.105.135,7.5,7.5,0,0,0,2.25.33A4.092,4.092,0,0,0,93.555-4a3.386,3.386,0,0,0-3.54-3.54,4.343,4.343,0,0,0-1.365.21l-.015-3.225c0-.105-.03-.12-.135-.12ZM91.71-3.825A2.269,2.269,0,0,1,89.34-1.38a2.5,2.5,0,0,1-.69-.075v-4.38A2.754,2.754,0,0,1,89.7-6,1.932,1.932,0,0,1,91.71-3.825ZM95-1.785C95-.21,95.775.15,96.735.15A2.187,2.187,0,0,0,97.59.03c.075-.045.09-.06.09-.165V-1.26c0-.075-.015-.105-.06-.09a1.913,1.913,0,0,1-.285.015c-.36,0-.525-.15-.525-.615v-8.61c0-.075-.045-.12-.135-.12H95.13c-.09,0-.135.045-.135.12Zm3.93,1.65c0,.09.045.135.15.135h1.545c.105,0,.135-.03.135-.12V-7.29c0-.09-.03-.105-.12-.105h-1.59c-.075,0-.12.03-.12.105ZM99.84-8.4a.976.976,0,0,0,1.035-1.035.964.964,0,0,0-1.02-1.035A.992.992,0,0,0,98.82-9.435.972.972,0,0,0,99.84-8.4Zm7.095,2.745c.09.03.135-.015.135-.09v-1.32a.183.183,0,0,0-.09-.18,4.624,4.624,0,0,0-1.89-.3c-1.875,0-2.805,1.065-2.805,2.2,0,1.08.585,1.755,2.22,2.355.93.375,1.215.615,1.215.99s-.375.66-1.155.66a4.083,4.083,0,0,1-2.145-.6.078.078,0,0,0-.12.075V-.435c0,.09.03.12.105.165a4.614,4.614,0,0,0,2.115.42c1.845,0,2.955-.885,2.955-2.295,0-1.065-.585-1.74-2.295-2.37-.96-.375-1.185-.6-1.185-.93,0-.315.27-.645,1.065-.645A4.266,4.266,0,0,1,106.935-5.655Zm3.63.21A2.128,2.128,0,0,1,112-5.97c.87,0,1.305.57,1.305,1.575v4.26a.119.119,0,0,0,.135.135H115c.075,0,.12-.03.12-.135v-4.44c0-2.4-1.365-2.97-2.5-2.97a3.289,3.289,0,0,0-2.055.69v-3.72c0-.075-.015-.105-.105-.105h-1.59c-.09,0-.12.045-.12.105V-.12c0,.075.03.12.12.12h1.59c.09,0,.105-.03.105-.105Zm6.465,5.31c0,.09.045.135.15.135h1.545c.105,0,.135-.03.135-.12V-7.29c0-.09-.03-.105-.12-.105h-1.59c-.075,0-.12.03-.12.105Zm.915-8.265a.976.976,0,0,0,1.035-1.035.964.964,0,0,0-1.02-1.035.992.992,0,0,0-1.035,1.035A.972.972,0,0,0,117.945-8.4Zm2.76,8.28c0,.075.03.12.12.12H122.4a.11.11,0,0,0,.12-.12V-5.355a1.92,1.92,0,0,1,1.455-.615c.87,0,1.29.57,1.29,1.56V-.135A.119.119,0,0,0,125.4,0h1.56c.075,0,.12-.03.12-.135v-4.44c0-2.4-1.38-2.97-2.5-2.97a3.307,3.307,0,0,0-2.175.825,3.266,3.266,0,0,0-.1-.57c-.03-.075-.075-.105-.18-.105H120.75c-.09,0-.1.03-.1.105.03.3.06,1.11.06,1.62Zm11.43.075C133.05,0,133.8.18,133.8.84c0,.57-.63,1.155-2.055,1.155C130.5,2,129.78,1.41,129.78.885a1.646,1.646,0,0,1,.72-1Zm-.72-6.2a1.127,1.127,0,0,1,1.2,1.26,1.089,1.089,0,0,1-1.2,1.17,1.122,1.122,0,0,1-1.215-1.2A1.131,1.131,0,0,1,131.415-6.24Zm-.42,4.605A.844.844,0,0,1,130.8-2.1a.927.927,0,0,1,.045-.45,4.039,4.039,0,0,0,.6.045c1.62,0,2.9-.81,2.9-2.415a1.943,1.943,0,0,0-.33-1.14,10.632,10.632,0,0,0,1.155.075c.075,0,.09-.03.09-.09V-7.3c0-.06-.015-.09-.09-.09H133.08a1.672,1.672,0,0,1-.345-.045,7.556,7.556,0,0,0-1.32-.105c-1.89,0-2.985,1.125-2.985,2.565a2.2,2.2,0,0,0,1.035,1.95,1.874,1.874,0,0,0-.27.975A1.857,1.857,0,0,0,129.51-.93c-.99.855-1.4,1.47-1.4,1.95,0,1.095,1.1,2.31,3.51,2.31,2.34,0,3.84-1.23,3.84-2.76,0-1.23-.885-2.04-2.94-2.145Z" transform="translate(1026 4706)"/><g class="ac" transform="translate(994 4688)"><rect class="af" width="24" height="24"/><path class="ae" d="M4.431,8.327c-.7-2.525,1.1-3.611.925-5.769A10.715,10.715,0,0,0,1,11.147c0,6.075,5.3,9.695,9.036,10.487a4.57,4.57,0,0,0,.7.113c1.333-3.4-1.182-7.193-2.842-9.663C6.508,10.026,5.252,11.3,4.431,8.327Z" transform="translate(0.333 0.853)"/><path class="ae" d="M19.956,12.354c-1.074-.409-1.995.983-2.076-2.776a3.842,3.842,0,0,1,1.111-2.667,2.055,2.055,0,0,1,.486-.233c-.127-.233-.267-.456-.413-.679-.025.013-.047.03-.073.041-.833.389-.949.5-1.333,0a1.051,1.051,0,0,1,.231-1.55A10.658,10.658,0,0,0,10.12,1.01c1.352.019,2.965,1.02,2.142,2.619.124-.254-2.685-.86-3.067-.86-.515,0,1.05-1.926.907-1.759a10.728,10.728,0,0,0-4.409.948c.728.472,1.54.307,2.361.51a2.009,2.009,0,0,1,.733.3,2.49,2.49,0,0,0-.733-.3c-1.211-.14.587,3.185.519,2.743a1.536,1.536,0,0,1,3.044-.1,2.5,2.5,0,0,1-.559,1.51c-.94,1.236-1.133,3.436-1.6,2.873-4.393-1.8-3.91.581-2.467,2.172,2.309,2.547,1.137.261,4.161,1.595,2.432,1.072,5.359,1.326,4.645,2.133-2.161,2.447-1.707,4.067-5.529,6.933.318-.009,1.333-.11,1.541-.144a10.85,10.85,0,0,0,8.917-9.6,1.6,1.6,0,0,1-.77-.231Z" transform="translate(1.898 0.333)"/></g></g></g><g transform="translate(-14)"><g transform="translate(-27 -302)"><g class="al" transform="matrix(1, 0, 0, 1, 432.62, 4656)"><rect class="c" width="181" height="45" rx="14" transform="translate(545.38 132)"/></g><path class="ab" d="M3.27.15C5.535.15,6.915-.99,6.915-2.745c0-1.185-.555-2.13-2.505-2.94l-.57-.24C2.655-6.42,2.31-6.8,2.31-7.335,2.31-7.86,2.715-8.4,4-8.4a4.686,4.686,0,0,1,2.265.495c.09.06.135,0,.135-.06V-9.42c0-.1-.015-.15-.09-.195a5.5,5.5,0,0,0-2.3-.39C1.755-10.005.54-8.775.54-7.17c0,1.125.48,2.055,2.325,2.835l.72.3c1.14.48,1.5.9,1.5,1.455,0,.645-.525,1.125-1.755,1.125a5.047,5.047,0,0,1-2.67-.78c-.06-.03-.12,0-.12.06v1.56A.223.223,0,0,0,.645-.39,5.709,5.709,0,0,0,3.27.15ZM7.23-7.395c-.075,0-.12.045-.09.105.9,2.355,2.34,5.925,2.745,6.915a.328.328,0,0,1-.015.24C9.39,1,8.91,2.07,8.46,2.97c-.03.09-.015.12.075.12l1.635-.12a.185.185,0,0,0,.195-.105C11.58.09,13.215-3.96,14.3-7.275c.015-.075,0-.12-.09-.12H12.66a.159.159,0,0,0-.165.09c-.675,2.1-1.2,3.645-1.7,5.16C10.6-2.88,10.1-4.5,9.12-7.3a.125.125,0,0,0-.135-.09Zm12.48,1.74c.09.03.135-.015.135-.09v-1.32a.183.183,0,0,0-.09-.18,4.624,4.624,0,0,0-1.89-.3c-1.875,0-2.8,1.065-2.8,2.2,0,1.08.585,1.755,2.22,2.355.93.375,1.215.615,1.215.99s-.375.66-1.155.66a4.083,4.083,0,0,1-2.145-.6.078.078,0,0,0-.12.075V-.435c0,.09.03.12.1.165A4.614,4.614,0,0,0,17.3.15c1.845,0,2.955-.885,2.955-2.295,0-1.065-.585-1.74-2.3-2.37-.96-.375-1.185-.6-1.185-.93,0-.315.27-.645,1.065-.645A4.266,4.266,0,0,1,19.71-5.655Zm5.5,4.335c0-.09-.045-.105-.09-.09a2.542,2.542,0,0,1-.57.06c-.645,0-.855-.315-.855-.975V-5.88h1.47c.075,0,.1-.03.1-.105V-7.29c0-.075-.03-.105-.1-.105H23.715c0-.735.03-1.62.075-2.115,0-.075-.03-.09-.1-.075l-1.515.21a.144.144,0,0,0-.12.135,15.832,15.832,0,0,0-.15,1.845h-.945c-.09,0-.12.03-.12.12v1.26c0,.09.03.12.105.135h.945v3.945C21.885-.45,22.62.15,23.85.15a3.448,3.448,0,0,0,1.275-.21c.075-.03.09-.09.09-.18Zm5.64-1.965a11.425,11.425,0,0,0,1.545-.06.129.129,0,0,0,.12-.105,4.54,4.54,0,0,0,.06-.93A2.982,2.982,0,0,0,29.5-7.545c-2.265,0-3.525,1.845-3.525,3.93A3.465,3.465,0,0,0,29.685.15a4.981,4.981,0,0,0,2.25-.435.159.159,0,0,0,.09-.165V-1.695c0-.075-.045-.09-.09-.06a4.727,4.727,0,0,1-1.86.36c-1.53,0-2.22-.84-2.265-1.89ZM27.81-4.575a1.639,1.639,0,0,1,1.62-1.53A1.388,1.388,0,0,1,30.87-4.71v.12a7.352,7.352,0,0,1-.825.015ZM35.67,0c.09,0,.12-.03.12-.12V-5.415a2.111,2.111,0,0,1,1.425-.555c.81,0,1.26.48,1.26,1.47V-.135c0,.1.045.135.135.135h1.56c.09,0,.1-.045.1-.12V-4.485a6.863,6.863,0,0,0-.045-.885,2.125,2.125,0,0,1,1.47-.615c.915,0,1.26.675,1.26,1.53v4.32c0,.09.03.135.135.135H44.64c.075,0,.135-.03.135-.12v-4.5c0-2.265-1.29-2.925-2.535-2.925a3.7,3.7,0,0,0-2.46.99,2.1,2.1,0,0,0-1.935-.99,3.2,3.2,0,0,0-2.19.84,2.542,2.542,0,0,0-.09-.6.143.143,0,0,0-.15-.09h-1.38c-.09,0-.135.03-.12.105.03.285.06.9.06,1.485v5.67c0,.09.03.135.12.135ZM50.88-5.655c.09.03.135-.015.135-.09v-1.32a.183.183,0,0,0-.09-.18,4.624,4.624,0,0,0-1.89-.3c-1.875,0-2.805,1.065-2.805,2.2,0,1.08.585,1.755,2.22,2.355.93.375,1.215.615,1.215.99s-.375.66-1.155.66a4.083,4.083,0,0,1-2.145-.6.078.078,0,0,0-.12.075V-.435c0,.09.03.12.1.165a4.614,4.614,0,0,0,2.115.42c1.845,0,2.955-.885,2.955-2.295,0-1.065-.585-1.74-2.3-2.37-.96-.375-1.185-.6-1.185-.93,0-.315.27-.645,1.065-.645A4.266,4.266,0,0,1,50.88-5.655Zm8.49-1.89A3.609,3.609,0,0,0,55.725-3.69,3.545,3.545,0,0,0,59.34.15a3.57,3.57,0,0,0,3.6-3.885A3.519,3.519,0,0,0,59.37-7.545ZM59.28-6.03c1.275,0,1.815,1.1,1.815,2.34,0,1.545-.795,2.31-1.725,2.31-1.14,0-1.815-.96-1.815-2.34C57.555-5.145,58.275-6.03,59.28-6.03Zm5.265.15V-.12c0,.075.03.12.12.12h1.56c.12,0,.135-.045.135-.12V-5.88h1.32c.09-.015.12-.03.12-.105V-7.3c0-.06-.015-.09-.12-.09H66.36v-.5c0-1.035.375-1.365.99-1.365a2.564,2.564,0,0,1,.465.045c.075.03.1-.015.1-.075v-1.29c0-.075,0-.12-.09-.15a2,2,0,0,0-.735-.09,2.255,2.255,0,0,0-2.22,1.32,4.063,4.063,0,0,0-.33,1.755v.345H63.63c-.06,0-.09.015-.09.09v1.32c0,.075.015.105.09.105ZM73.815,0c.075,0,.12-.03.12-.12V-3.78h1.29c.165,0,.24.075.345.255.66,1.05,1.71,2.775,2.145,3.45a.25.25,0,0,0,.21.075H79.8c.09,0,.075-.075.03-.165C79.4-.915,77.6-3.6,77.1-4.29a2.788,2.788,0,0,0,1.935-2.64c0-1.92-1.41-2.955-3.81-2.955-1.155,0-1.785.015-2.97.045-.09,0-.1.06-.1.135V-.12c0,.09.03.12.12.12Zm.12-5.325V-8.28c.24-.015.72-.03,1.23-.03,1.275,0,2.07.495,2.07,1.485,0,.96-.78,1.5-2,1.5ZM85.02-3.285a11.425,11.425,0,0,0,1.545-.06.129.129,0,0,0,.12-.105,4.539,4.539,0,0,0,.06-.93A2.982,2.982,0,0,0,83.67-7.545c-2.265,0-3.525,1.845-3.525,3.93A3.465,3.465,0,0,0,83.85.15,4.981,4.981,0,0,0,86.1-.285a.159.159,0,0,0,.09-.165V-1.695c0-.075-.045-.09-.09-.06a4.727,4.727,0,0,1-1.86.36c-1.53,0-2.22-.84-2.265-1.89Zm-3.045-1.29a1.639,1.639,0,0,1,1.62-1.53,1.388,1.388,0,0,1,1.44,1.395v.12a7.352,7.352,0,0,1-.825.015ZM93.39-1.545c0-.06-.03-.105-.1-.075a4.319,4.319,0,0,1-1.305.15,2.152,2.152,0,0,1-2.34-2.265,2.131,2.131,0,0,1,2.325-2.25,3.526,3.526,0,0,1,1.29.195c.06.015.12.015.12-.09l.015-1.335c0-.09-.015-.135-.075-.165a4.308,4.308,0,0,0-1.41-.165,3.837,3.837,0,0,0-4.125,3.87A3.648,3.648,0,0,0,91.65.15a4.569,4.569,0,0,0,1.665-.24c.06-.015.075-.045.075-.12Zm4.5-6A3.609,3.609,0,0,0,94.245-3.69,3.545,3.545,0,0,0,97.86.15a3.57,3.57,0,0,0,3.6-3.885A3.519,3.519,0,0,0,97.89-7.545ZM97.8-6.03c1.275,0,1.815,1.1,1.815,2.34,0,1.545-.795,2.31-1.725,2.31-1.14,0-1.815-.96-1.815-2.34C96.075-5.145,96.795-6.03,97.8-6.03Zm5.085-1.365c-.075,0-.09.015-.09.09.06.495.075,1.365.075,2.01V-.12c0,.075.03.12.135.12h1.56c.09,0,.135-.03.135-.12V-4.95A2.914,2.914,0,0,1,107-5.745c.105,0,.135-.03.135-.105V-7.44c0-.09-.03-.105-.12-.105a3.125,3.125,0,0,0-2.4,1.17,3.391,3.391,0,0,0-.15-.9.149.149,0,0,0-.165-.12ZM111.615.15a7.113,7.113,0,0,0,2.835-.585.117.117,0,0,0,.09-.135c-.03-.27-.06-.66-.06-.96v-9.06c0-.06,0-.09-.075-.09H112.77c-.06,0-.09.03-.09.105V-7.5a5.19,5.19,0,0,0-.645-.045,3.921,3.921,0,0,0-4.26,3.915A3.535,3.535,0,0,0,111.615.15Zm1.065-1.68a2.774,2.774,0,0,1-.87.12,2.048,2.048,0,0,1-2.175-2.31,2.2,2.2,0,0,1,2.34-2.31,1.994,1.994,0,0,1,.705.105Z" transform="translate(1026 4816)"/><g class="ac" transform="translate(994 4799)"><rect class="af" width="24" height="24"/><ellipse class="ae" cx="10.667" cy="3.333" rx="10.667" ry="3.333" transform="translate(1.333 1.333)"/><path class="ae" d="M11.667,12.805c-3.291,0-9.475-.779-10.667-2.667v5.817c0,1.841,4.775,3.333,10.667,3.333S22.333,17.8,22.333,15.955v-5.82C20.7,12.2,14.957,12.805,11.667,12.805Z" transform="translate(0.333 3.378)"/><path class="ae" d="M11.667,7.8C8.376,7.8,2.192,7.026,1,5.135V9.622c0,1.841,4.775,3.333,10.667,3.333s10.667-1.493,10.667-3.333V5.135C20.7,7.2,14.957,7.8,11.667,7.8Z" transform="translate(0.333 1.712)"/></g></g><g transform="translate(162 -357)"><g class="ak" transform="matrix(1, 0, 0, 1, 243.62, 4711)"><rect class="c" width="247" height="45" rx="14" transform="translate(734.38 132)"/></g><path class="ab" d="M2.7,0c.09,0,.12-.045.12-.135v-5.01c0-1.365-.015-2.025-.075-2.79H2.76c.585,1.455,3.33,6.3,4.11,7.83A.19.19,0,0,0,7.065,0H8.97c.105,0,.15-.03.15-.135V-9.72c0-.09-.03-.135-.135-.135H7.545c-.09,0-.135.045-.135.12V-4.74c0,1.41.03,1.905.045,2.325H7.44C6.915-3.54,4.62-7.77,3.51-9.75a.159.159,0,0,0-.18-.105H1.215c-.075,0-.105.03-.105.105V-.135c0,.12.045.135.135.135ZM14.79-1.455a2.742,2.742,0,0,1-1.065.18c-1.08,0-1.47-.48-1.47-1.035,0-.645.525-1.035,1.71-1.035a6.171,6.171,0,0,1,.825.045Zm1.755-3.12a2.722,2.722,0,0,0-2.985-2.97,5.573,5.573,0,0,0-2.28.45.143.143,0,0,0-.09.15V-5.64a.088.088,0,0,0,.12.09,4.462,4.462,0,0,1,1.965-.42c1.32,0,1.515.78,1.515,1.125v.18c-.135-.015-.48-.03-.93-.03-1.95,0-3.375.795-3.375,2.385,0,1.695,1.3,2.46,2.94,2.46a7.3,7.3,0,0,0,3.12-.675c.03-.015.03-.03.03-.06-.03-.315-.03-.615-.03-.945Zm5.31,3.255c0-.09-.045-.105-.09-.09a2.542,2.542,0,0,1-.57.06c-.645,0-.855-.315-.855-.975V-5.88h1.47c.075,0,.1-.03.1-.105V-7.29c0-.075-.03-.105-.1-.105H20.355c0-.735.03-1.62.075-2.115,0-.075-.03-.09-.1-.075l-1.515.21a.144.144,0,0,0-.12.135,15.832,15.832,0,0,0-.15,1.845H17.6c-.09,0-.12.03-.12.12v1.26c0,.09.03.12.105.135h.945v3.945C18.525-.45,19.26.15,20.49.15a3.448,3.448,0,0,0,1.275-.21c.075-.03.09-.09.09-.18ZM29.3-7.29c0-.075-.015-.105-.1-.105H27.615c-.09,0-.12.03-.12.105v5.325a1.9,1.9,0,0,1-1.365.54c-.9,0-1.305-.57-1.305-1.5V-7.29c0-.075-.015-.105-.105-.105H23.145c-.09,0-.12.015-.12.105v4.575c0,2.1,1.1,2.865,2.52,2.865A2.964,2.964,0,0,0,27.63-.615a3.253,3.253,0,0,0,.1.525c.015.06.045.09.15.09h1.38c.09,0,.135-.03.12-.105A13.317,13.317,0,0,1,29.3-1.65Zm1.92-.105c-.075,0-.09.015-.09.09.06.495.075,1.365.075,2.01V-.12c0,.075.03.12.135.12H32.9c.09,0,.135-.03.135-.12V-4.95a2.914,2.914,0,0,1,2.3-.795c.1,0,.135-.03.135-.105V-7.44c0-.09-.03-.105-.12-.105a3.125,3.125,0,0,0-2.4,1.17,3.391,3.391,0,0,0-.15-.9.149.149,0,0,0-.165-.12Zm8.94,5.94a2.742,2.742,0,0,1-1.065.18c-1.08,0-1.47-.48-1.47-1.035,0-.645.525-1.035,1.71-1.035a6.171,6.171,0,0,1,.825.045Zm1.755-3.12a2.722,2.722,0,0,0-2.985-2.97,5.573,5.573,0,0,0-2.28.45.143.143,0,0,0-.09.15V-5.64a.088.088,0,0,0,.12.09,4.462,4.462,0,0,1,1.965-.42c1.32,0,1.515.78,1.515,1.125v.18c-.135-.015-.48-.03-.93-.03-1.95,0-3.375.795-3.375,2.385,0,1.695,1.305,2.46,2.94,2.46a7.3,7.3,0,0,0,3.12-.675c.03-.015.03-.03.03-.06-.03-.315-.03-.615-.03-.945Zm1.89,2.79C43.8-.21,44.58.15,45.54.15A2.187,2.187,0,0,0,46.4.03c.075-.045.09-.06.09-.165V-1.26c0-.075-.015-.105-.06-.09a1.913,1.913,0,0,1-.285.015c-.36,0-.525-.15-.525-.615v-8.61c0-.075-.045-.12-.135-.12H43.935c-.09,0-.135.045-.135.12ZM57.315,0c.075,0,.12-.015.135-.12L57.7-1.53c.015-.06-.015-.105-.1-.105H53.19V-9.75c0-.06-.03-.105-.09-.105h-1.6c-.09,0-.12.06-.12.135V-.15c0,.1.03.15.15.15Zm5.52-1.455a2.742,2.742,0,0,1-1.065.18c-1.08,0-1.47-.48-1.47-1.035,0-.645.525-1.035,1.71-1.035a6.171,6.171,0,0,1,.825.045Zm1.755-3.12A2.722,2.722,0,0,0,61.6-7.545a5.573,5.573,0,0,0-2.28.45.143.143,0,0,0-.09.15V-5.64a.088.088,0,0,0,.12.09,4.462,4.462,0,0,1,1.965-.42c1.32,0,1.515.78,1.515,1.125v.18c-.135-.015-.48-.03-.93-.03-1.95,0-3.375.795-3.375,2.385,0,1.695,1.305,2.46,2.94,2.46a7.3,7.3,0,0,0,3.12-.675c.03-.015.03-.03.03-.06-.03-.315-.03-.615-.03-.945ZM66.48-.12c0,.075.03.12.12.12h1.575a.11.11,0,0,0,.12-.12V-5.355A1.92,1.92,0,0,1,69.75-5.97c.87,0,1.29.57,1.29,1.56V-.135A.119.119,0,0,0,71.175,0h1.56c.075,0,.12-.03.12-.135v-4.44c0-2.4-1.38-2.97-2.5-2.97a3.307,3.307,0,0,0-2.175.825,3.266,3.266,0,0,0-.1-.57c-.03-.075-.075-.105-.18-.105H66.525c-.09,0-.1.03-.1.105.03.3.06,1.11.06,1.62Zm11.43.075C78.825,0,79.575.18,79.575.84c0,.57-.63,1.155-2.055,1.155-1.245,0-1.965-.585-1.965-1.11a1.646,1.646,0,0,1,.72-1Zm-.72-6.2a1.127,1.127,0,0,1,1.2,1.26,1.089,1.089,0,0,1-1.2,1.17,1.122,1.122,0,0,1-1.215-1.2A1.131,1.131,0,0,1,77.19-6.24Zm-.42,4.605a.844.844,0,0,1-.195-.465.927.927,0,0,1,.045-.45,4.039,4.039,0,0,0,.6.045c1.62,0,2.895-.81,2.895-2.415a1.943,1.943,0,0,0-.33-1.14,10.632,10.632,0,0,0,1.155.075c.075,0,.09-.03.09-.09V-7.3c0-.06-.015-.09-.09-.09H78.855a1.673,1.673,0,0,1-.345-.045,7.556,7.556,0,0,0-1.32-.105c-1.89,0-2.985,1.125-2.985,2.565A2.2,2.2,0,0,0,75.24-3.03a1.874,1.874,0,0,0-.27.975A1.857,1.857,0,0,0,75.285-.93c-.99.855-1.395,1.47-1.395,1.95,0,1.095,1.1,2.31,3.51,2.31,2.34,0,3.84-1.23,3.84-2.76,0-1.23-.885-2.04-2.94-2.145ZM88.335-7.29c0-.075-.015-.105-.105-.105H86.655c-.09,0-.12.03-.12.105v5.325a1.9,1.9,0,0,1-1.365.54c-.9,0-1.305-.57-1.305-1.5V-7.29c0-.075-.015-.105-.105-.105H82.185c-.09,0-.12.015-.12.105v4.575c0,2.1,1.1,2.865,2.52,2.865A2.964,2.964,0,0,0,86.67-.615a3.253,3.253,0,0,0,.1.525c.015.06.045.09.15.09h1.38c.09,0,.135-.03.12-.105a13.318,13.318,0,0,1-.09-1.545ZM94.1-1.455a2.742,2.742,0,0,1-1.065.18c-1.08,0-1.47-.48-1.47-1.035,0-.645.525-1.035,1.71-1.035A6.171,6.171,0,0,1,94.1-3.3Zm1.755-3.12a2.722,2.722,0,0,0-2.985-2.97,5.573,5.573,0,0,0-2.28.45.143.143,0,0,0-.09.15V-5.64a.088.088,0,0,0,.12.09,4.462,4.462,0,0,1,1.965-.42c1.32,0,1.515.78,1.515,1.125v.18c-.135-.015-.48-.03-.93-.03-1.95,0-3.375.795-3.375,2.385C89.79-.615,91.1.15,92.73.15a7.3,7.3,0,0,0,3.12-.675c.03-.015.03-.03.03-.06-.03-.315-.03-.615-.03-.945Zm5.01,4.53c.915.045,1.665.225,1.665.885,0,.57-.63,1.155-2.055,1.155-1.245,0-1.965-.585-1.965-1.11a1.646,1.646,0,0,1,.72-1Zm-.72-6.2a1.127,1.127,0,0,1,1.2,1.26,1.089,1.089,0,0,1-1.2,1.17,1.122,1.122,0,0,1-1.215-1.2A1.131,1.131,0,0,1,100.14-6.24Zm-.42,4.605a.844.844,0,0,1-.195-.465.927.927,0,0,1,.045-.45,4.039,4.039,0,0,0,.6.045c1.62,0,2.895-.81,2.895-2.415a1.943,1.943,0,0,0-.33-1.14,10.632,10.632,0,0,0,1.155.075c.075,0,.09-.03.09-.09V-7.3c0-.06-.015-.09-.09-.09h-2.085a1.672,1.672,0,0,1-.345-.045,7.556,7.556,0,0,0-1.32-.105c-1.89,0-2.985,1.125-2.985,2.565A2.2,2.2,0,0,0,98.19-3.03a1.874,1.874,0,0,0-.27.975A1.857,1.857,0,0,0,98.235-.93c-.99.855-1.395,1.47-1.395,1.95,0,1.095,1.1,2.31,3.51,2.31,2.34,0,3.84-1.23,3.84-2.76,0-1.23-.885-2.04-2.94-2.145Zm9.72-1.65a11.425,11.425,0,0,0,1.545-.06.129.129,0,0,0,.12-.105,4.539,4.539,0,0,0,.06-.93,2.982,2.982,0,0,0-3.075-3.165c-2.265,0-3.525,1.845-3.525,3.93A3.465,3.465,0,0,0,108.27.15a4.981,4.981,0,0,0,2.25-.435.159.159,0,0,0,.09-.165V-1.695c0-.075-.045-.09-.09-.06a4.727,4.727,0,0,1-1.86.36c-1.53,0-2.22-.84-2.265-1.89Zm-3.045-1.29a1.639,1.639,0,0,1,1.62-1.53,1.388,1.388,0,0,1,1.44,1.395v.12a7.352,7.352,0,0,1-.825.015Zm9.765,4.47c0,.075.045.105.12.105h1.575c.09,0,.12-.045.12-.12V-3.195h.945c2.265,0,4.11-1.035,4.11-3.42,0-1.65-1.08-3.27-3.99-3.27-1.1,0-2.2.03-2.775.045-.075,0-.1.045-.1.12Zm1.815-8.175c.165-.015.585-.03,1.11-.03,1.38,0,2.16.645,2.16,1.74,0,1.365-1.065,1.785-2.325,1.785-.5,0-.69,0-.945-.015Zm6.375.885c-.075,0-.09.015-.09.09.06.495.075,1.365.075,2.01V-.12c0,.075.03.12.135.12h1.56c.09,0,.135-.03.135-.12V-4.95a2.914,2.914,0,0,1,2.3-.795c.1,0,.135-.03.135-.105V-7.44c0-.09-.03-.105-.12-.105a3.125,3.125,0,0,0-2.4,1.17,3.391,3.391,0,0,0-.15-.9.149.149,0,0,0-.165-.12Zm8.535-.15A3.609,3.609,0,0,0,129.24-3.69,3.545,3.545,0,0,0,132.855.15a3.57,3.57,0,0,0,3.6-3.885A3.519,3.519,0,0,0,132.885-7.545Zm-.09,1.515c1.275,0,1.815,1.1,1.815,2.34,0,1.545-.795,2.31-1.725,2.31-1.14,0-1.815-.96-1.815-2.34C131.07-5.145,131.79-6.03,132.795-6.03Zm10.3,4.485c0-.06-.03-.105-.1-.075a4.319,4.319,0,0,1-1.3.15,2.152,2.152,0,0,1-2.34-2.265,2.131,2.131,0,0,1,2.325-2.25,3.526,3.526,0,0,1,1.29.195c.06.015.12.015.12-.09l.015-1.335c0-.09-.015-.135-.075-.165a4.308,4.308,0,0,0-1.41-.165,3.837,3.837,0,0,0-4.125,3.87A3.649,3.649,0,0,0,141.36.15a4.569,4.569,0,0,0,1.665-.24c.06-.015.075-.045.075-.12Zm5.73-1.74a11.425,11.425,0,0,0,1.545-.06.129.129,0,0,0,.12-.105,4.54,4.54,0,0,0,.06-.93,2.982,2.982,0,0,0-3.075-3.165c-2.265,0-3.525,1.845-3.525,3.93A3.465,3.465,0,0,0,147.66.15a4.981,4.981,0,0,0,2.25-.435A.159.159,0,0,0,150-.45V-1.695c0-.075-.045-.09-.09-.06a4.727,4.727,0,0,1-1.86.36c-1.53,0-2.22-.84-2.265-1.89Zm-3.045-1.29a1.639,1.639,0,0,1,1.62-1.53,1.388,1.388,0,0,1,1.44,1.395v.12a7.352,7.352,0,0,1-.825.015Zm10.485-1.08c.09.03.135-.015.135-.09v-1.32a.183.183,0,0,0-.09-.18,4.624,4.624,0,0,0-1.89-.3c-1.875,0-2.805,1.065-2.805,2.2,0,1.08.585,1.755,2.22,2.355.93.375,1.215.615,1.215.99s-.375.66-1.155.66a4.083,4.083,0,0,1-2.145-.6.078.078,0,0,0-.12.075V-.435c0,.09.03.12.1.165a4.614,4.614,0,0,0,2.115.42c1.845,0,2.955-.885,2.955-2.295,0-1.065-.585-1.74-2.295-2.37-.96-.375-1.185-.6-1.185-.93,0-.315.27-.645,1.065-.645A4.266,4.266,0,0,1,156.27-5.655Zm6.21,0c.09.03.135-.015.135-.09v-1.32a.183.183,0,0,0-.09-.18,4.624,4.624,0,0,0-1.89-.3c-1.875,0-2.805,1.065-2.805,2.2,0,1.08.585,1.755,2.22,2.355.93.375,1.215.615,1.215.99s-.375.66-1.155.66a4.083,4.083,0,0,1-2.145-.6.078.078,0,0,0-.12.075V-.435c0,.09.03.12.1.165a4.614,4.614,0,0,0,2.115.42c1.845,0,2.955-.885,2.955-2.295,0-1.065-.585-1.74-2.295-2.37-.96-.375-1.185-.6-1.185-.93,0-.315.27-.645,1.065-.645A4.266,4.266,0,0,1,162.48-5.655Zm1.875,5.52c0,.09.045.135.15.135h1.545c.1,0,.135-.03.135-.12V-7.29c0-.09-.03-.105-.12-.105h-1.59c-.075,0-.12.03-.12.105ZM165.27-8.4a.976.976,0,0,0,1.035-1.035.964.964,0,0,0-1.02-1.035.992.992,0,0,0-1.035,1.035A.972.972,0,0,0,165.27-8.4Zm2.76,8.28c0,.075.03.12.12.12h1.575a.11.11,0,0,0,.12-.12V-5.355A1.921,1.921,0,0,1,171.3-5.97c.87,0,1.29.57,1.29,1.56V-.135a.119.119,0,0,0,.135.135h1.56c.075,0,.12-.03.12-.135v-4.44c0-2.4-1.38-2.97-2.505-2.97a3.307,3.307,0,0,0-2.175.825,3.266,3.266,0,0,0-.1-.57c-.03-.075-.075-.105-.18-.105h-1.365c-.09,0-.105.03-.105.105.03.3.06,1.11.06,1.62Zm11.43.075c.915.045,1.665.225,1.665.885,0,.57-.63,1.155-2.055,1.155C177.825,2,177.1,1.41,177.1.885a1.646,1.646,0,0,1,.72-1Zm-.72-6.2a1.127,1.127,0,0,1,1.2,1.26,1.089,1.089,0,0,1-1.2,1.17,1.122,1.122,0,0,1-1.215-1.2A1.131,1.131,0,0,1,178.74-6.24Zm-.42,4.605a.844.844,0,0,1-.2-.465.927.927,0,0,1,.045-.45,4.039,4.039,0,0,0,.6.045c1.62,0,2.9-.81,2.9-2.415a1.943,1.943,0,0,0-.33-1.14,10.632,10.632,0,0,0,1.155.075c.075,0,.09-.03.09-.09V-7.3c0-.06-.015-.09-.09-.09H180.4a1.673,1.673,0,0,1-.345-.045,7.556,7.556,0,0,0-1.32-.105c-1.89,0-2.985,1.125-2.985,2.565a2.2,2.2,0,0,0,1.035,1.95,1.874,1.874,0,0,0-.27.975,1.857,1.857,0,0,0,.315,1.125c-.99.855-1.4,1.47-1.4,1.95,0,1.095,1.1,2.31,3.51,2.31,2.34,0,3.84-1.23,3.84-2.76,0-1.23-.885-2.04-2.94-2.145Z" transform="translate(1026 4871)"/><g class="ac" transform="translate(12911.72 7872.96)"><circle class="ae" cx="1.5" cy="1.5" r="1.5" transform="translate(-11893.277 -3009.959) rotate(90)"/><circle class="ae" cx="1.5" cy="1.5" r="1.5" transform="translate(-11897.191 -3004.959) rotate(90)"/><circle class="ae" cx="1.5" cy="1.5" r="1.5" transform="translate(-11896.277 -3015.959) rotate(90)"/><path class="ag" d="M-11972.5-2517.347v-2.153l2-3v-2.37" transform="translate(-14420.277 8962.041) rotate(90)"/><path class="ag" d="M-11973.5-2522.5l2,3v2.15" transform="translate(-14420.277 8959.041) rotate(90)"/><path class="ag" d="M-11971.5-2517.35v-1.293l2.453-2.943h1.642" transform="translate(-14420.277 8963.041) rotate(90)"/><path class="ae" d="M12128.727,3238h0v-3h-3a4.53,4.53,0,0,1-2.119-.378,1.677,1.677,0,0,1-.881-1.623v-3.7l-2.168-.408a1.021,1.021,0,0,1-.506-.582,1.009,1.009,0,0,1,.059-.764l2.615-4.784v-.411a7.19,7.19,0,0,1,2.635-5.99,12.372,12.372,0,0,1,6.682-2.339c.245-.016.48-.024.7-.024a10.1,10.1,0,0,1,2.053.213v3.746a2.008,2.008,0,0,0-1.971,2h-1.6a.5.5,0,0,0,0,1h1.6v1h-2.6a.5.5,0,1,0,0,1h2.6v1h-1.6a.5.5,0,0,0,0,1h1.6a2.006,2.006,0,0,0,1.971,2v10.132l-6.063.911Z" transform="translate(-24037.721 -6232.959)"/></g></g></g><g transform="translate(7)"><g transform="translate(0 -204)"><g class="aj" transform="matrix(1, 0, 0, 1, 384.62, 4558)"><rect class="c" width="89" height="45" rx="14" transform="translate(593.38 10)"/></g><path class="ab" d="M7.575-1.515c.015-.075-.015-.12-.105-.12H2.925v-2.58h3.9c.06,0,.105-.015.105-.09V-5.73c0-.09-.03-.105-.105-.105h-3.9V-8.22h4.29c.09,0,.12-.06.105-.135l-.165-1.4c-.015-.09-.045-.105-.135-.105H1.23c-.09,0-.12.045-.12.12V-.12c0,.075.03.12.135.12h5.97c.09,0,.12-.015.135-.12ZM10.665,0c.075,0,.12-.03.12-.12V-3.78h1.29c.165,0,.24.075.345.255.66,1.05,1.71,2.775,2.145,3.45a.25.25,0,0,0,.21.075H16.65c.09,0,.075-.075.03-.165-.435-.75-2.235-3.435-2.73-4.125a2.788,2.788,0,0,0,1.935-2.64c0-1.92-1.41-2.955-3.81-2.955-1.155,0-1.785.015-2.97.045-.09,0-.1.06-.1.135V-.12c0,.09.03.12.12.12Zm.12-5.325V-8.28c.24-.015.72-.03,1.23-.03,1.275,0,2.07.495,2.07,1.485,0,.96-.78,1.5-1.995,1.5Zm7.02,5.22c0,.075.045.105.12.105H19.5c.09,0,.12-.045.12-.12V-3.195h.945c2.265,0,4.11-1.035,4.11-3.42,0-1.65-1.08-3.27-3.99-3.27-1.095,0-2.2.03-2.775.045-.075,0-.1.045-.1.12ZM19.62-8.28c.165-.015.585-.03,1.11-.03,1.38,0,2.16.645,2.16,1.74,0,1.365-1.065,1.785-2.325,1.785-.495,0-.69,0-.945-.015Z" transform="translate(1026 4596)"/><g class="ah" transform="translate(994 4579)"><rect class="o" width="24" height="24"/><path class="ae" d="M22,10H20.769a8.943,8.943,0,0,0-1.156-2.785l.872-.872a2,2,0,1,0-2.828-2.828l-.872.872A8.943,8.943,0,0,0,14,3.231V2a2,2,0,1,0-4,0V3.231A8.943,8.943,0,0,0,7.215,4.387l-.872-.872A2,2,0,1,0,3.515,6.343l.872.872A8.943,8.943,0,0,0,3.231,10H2a2,2,0,0,0,0,4H3.231a8.943,8.943,0,0,0,1.156,2.785l-.872.872a2,2,0,1,0,2.828,2.828l.872-.872A8.943,8.943,0,0,0,10,20.769V22a2,2,0,0,0,4,0V20.769a8.943,8.943,0,0,0,2.785-1.156l.872.872a2,2,0,1,0,2.828-2.828l-.872-.872A8.943,8.943,0,0,0,20.769,14H22a2,2,0,0,0,0-4ZM12,16a4,4,0,1,1,4-4A4,4,0,0,1,12,16Z"/></g></g><g transform="translate(97 -259)"><g class="ai" transform="matrix(1, 0, 0, 1, 287.62, 4613)"><rect class="c" width="243" height="45" rx="14" transform="translate(690.38 10)"/></g><path class="ab" d="M2.775,0c.075,0,.12-.03.12-.12V-3.78h1.29c.165,0,.24.075.345.255C5.19-2.475,6.24-.75,6.675-.075A.25.25,0,0,0,6.885,0H8.76c.09,0,.075-.075.03-.165C8.355-.915,6.555-3.6,6.06-4.29A2.788,2.788,0,0,0,7.995-6.93c0-1.92-1.41-2.955-3.81-2.955-1.155,0-1.785.015-2.97.045-.09,0-.105.06-.105.135V-.12c0,.09.03.12.12.12Zm.12-5.325V-8.28c.24-.015.72-.03,1.23-.03,1.275,0,2.07.495,2.07,1.485,0,.96-.78,1.5-1.995,1.5Zm9.855-2.22A3.609,3.609,0,0,0,9.1-3.69,3.545,3.545,0,0,0,12.72.15a3.57,3.57,0,0,0,3.6-3.885A3.519,3.519,0,0,0,12.75-7.545ZM12.66-6.03c1.275,0,1.815,1.1,1.815,2.34,0,1.545-.8,2.31-1.725,2.31-1.14,0-1.815-.96-1.815-2.34C10.935-5.145,11.655-6.03,12.66-6.03Zm5.175-4.65a.1.1,0,0,0-.1.105V-.315a.16.16,0,0,0,.1.135,7.5,7.5,0,0,0,2.25.33A4.092,4.092,0,0,0,24.465-4a3.386,3.386,0,0,0-3.54-3.54,4.343,4.343,0,0,0-1.365.21l-.015-3.225c0-.105-.03-.12-.135-.12ZM22.62-3.825A2.269,2.269,0,0,1,20.25-1.38a2.5,2.5,0,0,1-.69-.075v-4.38A2.754,2.754,0,0,1,20.61-6,1.932,1.932,0,0,1,22.62-3.825Zm6.555-3.72A3.609,3.609,0,0,0,25.53-3.69,3.545,3.545,0,0,0,29.145.15a3.57,3.57,0,0,0,3.6-3.885A3.519,3.519,0,0,0,29.175-7.545Zm-.09,1.515c1.275,0,1.815,1.1,1.815,2.34,0,1.545-.8,2.31-1.725,2.31-1.14,0-1.815-.96-1.815-2.34C27.36-5.145,28.08-6.03,29.085-6.03Zm8.67,4.71c0-.09-.045-.105-.09-.09a2.542,2.542,0,0,1-.57.06c-.645,0-.855-.315-.855-.975V-5.88h1.47c.075,0,.1-.03.1-.105V-7.29c0-.075-.03-.105-.1-.105H36.255c0-.735.03-1.62.075-2.115,0-.075-.03-.09-.1-.075l-1.515.21a.144.144,0,0,0-.12.135,15.832,15.832,0,0,0-.15,1.845h-.945c-.09,0-.12.03-.12.12v1.26c0,.09.03.12.1.135h.945v3.945C34.425-.45,35.16.15,36.39.15a3.448,3.448,0,0,0,1.275-.21c.075-.03.09-.09.09-.18Zm1.32,1.185c0,.09.045.135.15.135H40.77c.1,0,.135-.03.135-.12V-7.29c0-.09-.03-.105-.12-.105h-1.59c-.075,0-.12.03-.12.105ZM39.99-8.4a.976.976,0,0,0,1.035-1.035.964.964,0,0,0-1.02-1.035A.992.992,0,0,0,38.97-9.435.972.972,0,0,0,39.99-8.4Zm7.95,6.855c0-.06-.03-.105-.1-.075a4.319,4.319,0,0,1-1.305.15,2.152,2.152,0,0,1-2.34-2.265,2.131,2.131,0,0,1,2.325-2.25,3.526,3.526,0,0,1,1.29.195c.06.015.12.015.12-.09l.015-1.335c0-.09-.015-.135-.075-.165a4.308,4.308,0,0,0-1.41-.165,3.837,3.837,0,0,0-4.125,3.87A3.649,3.649,0,0,0,46.2.15a4.569,4.569,0,0,0,1.665-.24c.06-.015.075-.045.075-.12Zm4.92,1.44c0,.075.045.105.12.105h1.575c.09,0,.12-.045.12-.12V-3.195h.945c2.265,0,4.11-1.035,4.11-3.42,0-1.65-1.08-3.27-3.99-3.27-1.1,0-2.205.03-2.775.045-.075,0-.1.045-.1.12ZM54.675-8.28c.165-.015.585-.03,1.11-.03,1.38,0,2.16.645,2.16,1.74,0,1.365-1.065,1.785-2.325,1.785-.495,0-.69,0-.945-.015Zm6.375.885c-.075,0-.09.015-.09.09.06.495.075,1.365.075,2.01V-.12c0,.075.03.12.135.12h1.56c.09,0,.135-.03.135-.12V-4.95a2.914,2.914,0,0,1,2.3-.795c.1,0,.135-.03.135-.105V-7.44c0-.09-.03-.105-.12-.105a3.125,3.125,0,0,0-2.4,1.17,3.391,3.391,0,0,0-.15-.9.149.149,0,0,0-.165-.12Zm8.535-.15A3.609,3.609,0,0,0,65.94-3.69,3.545,3.545,0,0,0,69.555.15a3.57,3.57,0,0,0,3.6-3.885A3.519,3.519,0,0,0,69.585-7.545Zm-.09,1.515c1.275,0,1.815,1.1,1.815,2.34,0,1.545-.795,2.31-1.725,2.31-1.14,0-1.815-.96-1.815-2.34C67.77-5.145,68.49-6.03,69.495-6.03ZM79.8-1.545c0-.06-.03-.105-.1-.075a4.319,4.319,0,0,1-1.305.15,2.152,2.152,0,0,1-2.34-2.265,2.131,2.131,0,0,1,2.325-2.25,3.526,3.526,0,0,1,1.29.195c.06.015.12.015.12-.09L79.8-7.215c0-.09-.015-.135-.075-.165a4.308,4.308,0,0,0-1.41-.165,3.837,3.837,0,0,0-4.125,3.87A3.648,3.648,0,0,0,78.06.15a4.569,4.569,0,0,0,1.665-.24c.06-.015.075-.045.075-.12Zm5.73-1.74a11.425,11.425,0,0,0,1.545-.06.129.129,0,0,0,.12-.105,4.539,4.539,0,0,0,.06-.93A2.982,2.982,0,0,0,84.18-7.545c-2.265,0-3.525,1.845-3.525,3.93A3.465,3.465,0,0,0,84.36.15a4.981,4.981,0,0,0,2.25-.435A.159.159,0,0,0,86.7-.45V-1.695c0-.075-.045-.09-.09-.06a4.727,4.727,0,0,1-1.86.36c-1.53,0-2.22-.84-2.265-1.89Zm-3.045-1.29a1.639,1.639,0,0,1,1.62-1.53,1.388,1.388,0,0,1,1.44,1.395v.12a7.352,7.352,0,0,1-.825.015ZM92.97-5.655c.09.03.135-.015.135-.09v-1.32a.183.183,0,0,0-.09-.18,4.624,4.624,0,0,0-1.89-.3c-1.875,0-2.805,1.065-2.805,2.2,0,1.08.585,1.755,2.22,2.355.93.375,1.215.615,1.215.99s-.375.66-1.155.66a4.083,4.083,0,0,1-2.145-.6.078.078,0,0,0-.12.075V-.435c0,.09.03.12.105.165a4.614,4.614,0,0,0,2.115.42C92.4.15,93.51-.735,93.51-2.145c0-1.065-.585-1.74-2.295-2.37-.96-.375-1.185-.6-1.185-.93,0-.315.27-.645,1.065-.645A4.266,4.266,0,0,1,92.97-5.655Zm6.21,0c.09.03.135-.015.135-.09v-1.32a.183.183,0,0,0-.09-.18,4.624,4.624,0,0,0-1.89-.3c-1.875,0-2.805,1.065-2.805,2.2,0,1.08.585,1.755,2.22,2.355.93.375,1.215.615,1.215.99s-.375.66-1.155.66a4.083,4.083,0,0,1-2.145-.6.078.078,0,0,0-.12.075V-.435c0,.09.03.12.105.165a4.614,4.614,0,0,0,2.115.42c1.845,0,2.955-.885,2.955-2.295,0-1.065-.585-1.74-2.295-2.37-.96-.375-1.185-.6-1.185-.93,0-.315.27-.645,1.065-.645A4.266,4.266,0,0,1,99.18-5.655Zm10.6,3.06.87,2.5a.151.151,0,0,0,.15.09h1.68c.09,0,.1-.045.09-.135l-3.465-9.63c-.015-.075-.03-.09-.105-.09H106.92c-.06,0-.09.045-.09.105a2.294,2.294,0,0,1-.135.81L103.6-.15c-.015.1.015.15.105.15h1.5a.149.149,0,0,0,.165-.12l.825-2.475Zm-3.1-1.635c.45-1.365,1.05-3.12,1.29-4.125h.015c.3,1.05,1,3.135,1.32,4.125ZM119.6-7.29c0-.075-.015-.105-.105-.105h-1.575c-.09,0-.12.03-.12.105v5.325a1.9,1.9,0,0,1-1.365.54c-.9,0-1.305-.57-1.305-1.5V-7.29c0-.075-.015-.105-.105-.105h-1.575c-.09,0-.12.015-.12.105v4.575c0,2.1,1.1,2.865,2.52,2.865a2.964,2.964,0,0,0,2.085-.765,3.253,3.253,0,0,0,.1.525c.015.06.045.09.15.09h1.38c.09,0,.135-.03.12-.105a13.318,13.318,0,0,1-.09-1.545Zm5.565,5.97c0-.09-.045-.105-.09-.09a2.542,2.542,0,0,1-.57.06c-.645,0-.855-.315-.855-.975V-5.88h1.47c.075,0,.105-.03.105-.105V-7.29c0-.075-.03-.105-.105-.105H123.66c0-.735.03-1.62.075-2.115,0-.075-.03-.09-.1-.075l-1.515.21a.144.144,0,0,0-.12.135,15.831,15.831,0,0,0-.15,1.845H120.9c-.09,0-.12.03-.12.12v1.26c0,.09.03.12.105.135h.945v3.945c0,1.485.735,2.085,1.965,2.085a3.448,3.448,0,0,0,1.275-.21c.075-.03.09-.09.09-.18Zm4.41-6.225a3.609,3.609,0,0,0-3.645,3.855A3.545,3.545,0,0,0,129.54.15a3.57,3.57,0,0,0,3.6-3.885A3.519,3.519,0,0,0,129.57-7.545Zm-.09,1.515c1.275,0,1.815,1.1,1.815,2.34,0,1.545-.795,2.31-1.725,2.31-1.14,0-1.815-.96-1.815-2.34C127.755-5.145,128.475-6.03,129.48-6.03ZM136.245,0c.09,0,.12-.03.12-.12V-5.415a2.111,2.111,0,0,1,1.425-.555c.81,0,1.26.48,1.26,1.47V-.135c0,.1.045.135.135.135h1.56c.09,0,.1-.045.1-.12V-4.485a6.863,6.863,0,0,0-.045-.885,2.125,2.125,0,0,1,1.47-.615c.915,0,1.26.675,1.26,1.53v4.32c0,.09.03.135.135.135h1.545c.075,0,.135-.03.135-.12v-4.5c0-2.265-1.29-2.925-2.535-2.925a3.7,3.7,0,0,0-2.46.99,2.1,2.1,0,0,0-1.935-.99,3.2,3.2,0,0,0-2.19.84,2.543,2.543,0,0,0-.09-.6.143.143,0,0,0-.15-.09h-1.38c-.09,0-.135.03-.12.105.03.285.06.9.06,1.485v5.67c0,.09.03.135.12.135Zm14.79-1.455a2.742,2.742,0,0,1-1.065.18c-1.08,0-1.47-.48-1.47-1.035,0-.645.525-1.035,1.71-1.035a6.171,6.171,0,0,1,.825.045Zm1.755-3.12a2.722,2.722,0,0,0-2.985-2.97,5.573,5.573,0,0,0-2.28.45.143.143,0,0,0-.09.15V-5.64a.088.088,0,0,0,.12.09,4.462,4.462,0,0,1,1.965-.42c1.32,0,1.515.78,1.515,1.125v.18c-.135-.015-.48-.03-.93-.03-1.95,0-3.375.795-3.375,2.385,0,1.695,1.305,2.46,2.94,2.46a7.3,7.3,0,0,0,3.12-.675c.03-.015.03-.03.03-.06-.03-.315-.03-.615-.03-.945ZM158.1-1.32c0-.09-.045-.105-.09-.09a2.542,2.542,0,0,1-.57.06c-.645,0-.855-.315-.855-.975V-5.88h1.47c.075,0,.1-.03.1-.105V-7.29c0-.075-.03-.105-.1-.105H156.6c0-.735.03-1.62.075-2.115,0-.075-.03-.09-.1-.075l-1.515.21a.144.144,0,0,0-.12.135,15.833,15.833,0,0,0-.15,1.845h-.945c-.09,0-.12.03-.12.12v1.26c0,.09.03.12.1.135h.945v3.945c0,1.485.735,2.085,1.965,2.085a3.448,3.448,0,0,0,1.275-.21c.075-.03.09-.09.09-.18Zm1.32,1.185c0,.09.045.135.15.135h1.545c.1,0,.135-.03.135-.12V-7.29c0-.09-.03-.105-.12-.105h-1.59c-.075,0-.12.03-.12.105Zm.915-8.265a.976.976,0,0,0,1.035-1.035.964.964,0,0,0-1.02-1.035.992.992,0,0,0-1.035,1.035A.972.972,0,0,0,160.335-8.4Zm5.985.855a3.609,3.609,0,0,0-3.645,3.855A3.545,3.545,0,0,0,166.29.15a3.57,3.57,0,0,0,3.6-3.885A3.519,3.519,0,0,0,166.32-7.545Zm-.09,1.515c1.275,0,1.815,1.1,1.815,2.34,0,1.545-.8,2.31-1.725,2.31-1.14,0-1.815-.96-1.815-2.34C164.505-5.145,165.225-6.03,166.23-6.03ZM171.3-.12c0,.075.03.12.12.12h1.575a.11.11,0,0,0,.12-.12V-5.355a1.921,1.921,0,0,1,1.455-.615c.87,0,1.29.57,1.29,1.56V-.135a.119.119,0,0,0,.135.135h1.56c.075,0,.12-.03.12-.135v-4.44c0-2.4-1.38-2.97-2.505-2.97a3.307,3.307,0,0,0-2.175.825,3.266,3.266,0,0,0-.1-.57c-.03-.075-.075-.105-.18-.105h-1.365c-.09,0-.105.03-.105.105.03.3.06,1.11.06,1.62Z" transform="translate(1026 4651)"/><g class="ac" transform="translate(990 4633)"><rect class="af" width="24" height="24"/><rect class="ae" width="5.333" height="7.467" rx="0.5" transform="translate(1.333 8)"/><rect class="ae" width="4" height="4" rx="0.5" transform="translate(18.667 2.667)"/><rect class="ae" width="4" height="4" rx="0.5" transform="translate(18.667 9.333)"/><rect class="ae" width="4" height="4" rx="0.5" transform="translate(18.667 16)"/><path class="ae" d="M15.333,4V3.333A.333.333,0,0,0,15,3H10.333A.333.333,0,0,0,10,3.333V9.667H6.333A.333.333,0,0,0,6,10v.667A.333.333,0,0,0,6.333,11H10v6.333a.333.333,0,0,0,.333.333H15a.333.333,0,0,0,.333-.333v-.667A.333.333,0,0,0,15,16.333H11.333V11H15a.333.333,0,0,0,.333-.333V10A.333.333,0,0,0,15,9.667H11.333V4.333H15A.333.333,0,0,0,15.333,4Z" transform="translate(2 1)"/></g></g></g></g></g></svg>