<svg xmlns="http://www.w3.org/2000/svg" xmlns:xlink="http://www.w3.org/1999/xlink" width="998" height="259" viewBox="0 0 998 259"><defs><style>.a{fill:#c7c7c7;}.b,.c{fill:#fff;}.b{opacity:0.5;}.d{fill:#e1e1e1;}.e{fill:rgba(20,115,230,0.2);stroke:#1473e6;}.ad,.e,.i,.k{stroke-width:2px;}.e,.i,.k{mix-blend-mode:multiply;isolation:isolate;}.f,.h{fill:#b3b3b3;}.f,.g{opacity:0.504;}.i{fill:rgba(61,167,78,0.15);stroke:#3da74e;}.j{fill:#d9d9d9;}.k{fill:rgba(206,39,131,0.15);stroke:#ce2783;}.l,.s{fill:#1473e6;}.ab,.l,.m,.n{stroke:rgba(0,0,0,0);font-weight:700;}.l,.m,.n{font-size:16px;font-family:AdobeClean-BoldIt, Adobe Clean;font-style:italic;}.aa,.m{fill:#3da74e;}.n,.w{fill:#ce2783;}.ad,.ag,.o{fill:none;}.p{fill:#043e84;}.q{fill:#cdddf2;}.r{fill:#a9c7ed;}.t{fill:#790b48;}.u{fill:#e5c9d8;}.v{fill:#d9abc4;}.x{fill:#1a6425;}.y{fill:#c7ddcb;}.z{fill:#a6c3ab;}.ab{fill:#535353;font-size:15px;font-family:AdobeClean-Bold, Adobe Clean;}.ac{opacity:0.8;}.ad,.ag{stroke:#7e9cc3;stroke-linecap:round;stroke-linejoin:round;}.ad{stroke-miterlimit:10;}.ae,.af{fill:#7e9cc3;}.af{opacity:0;}.ah{opacity:0.7;}.ai{filter:url(#s);}.aj{filter:url(#q);}.ak{filter:url(#o);}.al{filter:url(#m);}.am{filter:url(#k);}.an{filter:url(#i);}.ao{filter:url(#g);}.ap{filter:url(#e);}.aq{filter:url(#c);}.ar{filter:url(#a);}</style><filter id="a" x="76.228" y="19.795" width="183.254" height="233.271" filterUnits="userSpaceOnUse"><feOffset dy="3" input="SourceAlpha"/><feGaussianBlur stdDeviation="5" result="b"/><feFlood flood-opacity="0.122"/><feComposite operator="in" in2="b"/><feComposite in="SourceGraphic"/></filter><filter id="c" x="89.001" y="0" width="185" height="238" filterUnits="userSpaceOnUse"><feOffset dx="-4" dy="4" input="SourceAlpha"/><feGaussianBlur stdDeviation="5" result="d"/><feFlood flood-opacity="0.071"/><feComposite operator="in" in2="d"/><feComposite in="SourceGraphic"/></filter><filter id="e" x="572" y="184" width="285" height="75" filterUnits="userSpaceOnUse"><feOffset dy="6" input="SourceAlpha"/><feGaussianBlur stdDeviation="5" result="f"/><feFlood flood-opacity="0.039"/><feComposite operator="in" in2="f"/><feComposite in="SourceGraphic"/></filter><filter id="g" x="835" y="184" width="124" height="75" filterUnits="userSpaceOnUse"><feOffset dy="6" input="SourceAlpha"/><feGaussianBlur stdDeviation="5" result="h"/><feFlood flood-opacity="0.039"/><feComposite operator="in" in2="h"/><feComposite in="SourceGraphic"/></filter><filter id="i" x="533" y="62" width="257" height="75" filterUnits="userSpaceOnUse"><feOffset dy="6" input="SourceAlpha"/><feGaussianBlur stdDeviation="5" result="j"/><feFlood flood-opacity="0.039"/><feComposite operator="in" in2="j"/><feComposite in="SourceGraphic"/></filter><filter id="k" x="768" y="62" width="229" height="75" filterUnits="userSpaceOnUse"><feOffset dy="6" input="SourceAlpha"/><feGaussianBlur stdDeviation="5" result="l"/><feFlood flood-opacity="0.039"/><feComposite operator="in" in2="l"/><feComposite in="SourceGraphic"/></filter><filter id="m" x="532" y="123" width="211" height="75" filterUnits="userSpaceOnUse"><feOffset dy="6" input="SourceAlpha"/><feGaussianBlur stdDeviation="5" result="n"/><feFlood flood-opacity="0.039"/><feComposite operator="in" in2="n"/><feComposite in="SourceGraphic"/></filter><filter id="o" x="721" y="123" width="277" height="75" filterUnits="userSpaceOnUse"><feOffset dy="6" input="SourceAlpha"/><feGaussianBlur stdDeviation="5" result="p"/><feFlood flood-opacity="0.039"/><feComposite operator="in" in2="p"/><feComposite in="SourceGraphic"/></filter><filter id="q" x="580" y="1" width="119" height="75" filterUnits="userSpaceOnUse"><feOffset dy="6" input="SourceAlpha"/><feGaussianBlur stdDeviation="5" result="r"/><feFlood flood-opacity="0.039"/><feComposite operator="in" in2="r"/><feComposite in="SourceGraphic"/></filter><filter id="s" x="677" y="1" width="273" height="75" filterUnits="userSpaceOnUse"><feOffset dy="6" input="SourceAlpha"/><feGaussianBlur stdDeviation="5" result="t"/><feFlood flood-opacity="0.039"/><feComposite operator="in" in2="t"/><feComposite in="SourceGraphic"/></filter></defs><g transform="translate(-429 -5019)"><g transform="translate(-2166.58 19365.008)"><path class="a" d="M1881.239,1358.142a11.389,11.389,0,0,1-10.9-11.807c.01-.316.036-.629.076-.946l.006-78.812a8.172,8.172,0,0,0-4.068-7.593.536.536,0,0,1-.3-.3.455.455,0,0,1,.018-.354.467.467,0,0,1,.218-.216,8.216,8.216,0,0,0,4.118-7.7c0-1.973,0-72.055-.065-78.5a11.285,11.285,0,0,1,9.8-12.678l.242-.028c.308-.03.569-.045.832-.053l2.026-.314a.742.742,0,0,1,.708.72v5.624a.73.73,0,0,1-.735.663l-3.933.309-.08,0a2.585,2.585,0,0,0-2.571,2.4l0,81.558a14.037,14.037,0,0,1-4.208,7.766l-.742.694.732.706a14.427,14.427,0,0,1,4.205,7.772v81.512a2.619,2.619,0,0,0,2.609,2.469l4.093,0a.75.75,0,0,1,.776.722v5.676a.737.737,0,0,1-.736.708Z" transform="translate(1083.336 -15480.695)"/><path class="a" d="M1868.868,1358.142a11.389,11.389,0,0,0,10.9-11.807c-.01-.316-.036-.629-.076-.946l-.006-78.812a8.172,8.172,0,0,1,4.068-7.593.536.536,0,0,0,.3-.3.455.455,0,0,0-.018-.354.467.467,0,0,0-.218-.216,8.216,8.216,0,0,1-4.118-7.7c0-1.973,0-72.055.065-78.5a11.285,11.285,0,0,0-9.8-12.678l-.242-.028c-.308-.03-.569-.045-.832-.053l-2.026-.314a.742.742,0,0,0-.708.72v5.624a.73.73,0,0,0,.735.663l3.933.309.08,0a2.585,2.585,0,0,1,2.571,2.4l0,81.558a14.037,14.037,0,0,0,4.208,7.766l.742.694-.732.706a14.427,14.427,0,0,0-4.205,7.772v81.512a2.619,2.619,0,0,1-2.609,2.469l-4.093,0a.75.75,0,0,0-.776.722v5.676a.737.737,0,0,0,.736.708Z" transform="translate(1171.337 -15480.695)"/></g><g transform="translate(-1117.267 3568.123)"><g class="ar" transform="matrix(1, 0, 0, 1, 1546.27, 1450.88)"><path class="b" d="M10.972,0h94.949C109.2,0,115-.441,118.821,3.62S142.808,29.093,147.6,34.189s5.653,8.2,5.653,11.173V191.518c0,6.484-4.912,11.741-10.972,11.741H10.972C4.912,203.259,0,198,0,191.518V11.742C0,5.258,4.912,0,10.972,0Z" transform="translate(91.23 31.81)"/></g><g class="aq" transform="matrix(1, 0, 0, 1, 1546.27, 1450.88)"><rect class="c" width="155" height="208" rx="10" transform="translate(108 11)"/></g><g transform="translate(0 -15)"><g transform="translate(1678.211 1522.941)"><rect class="d" width="48" height="4" rx="2" transform="translate(0.056 41.936)"/><rect class="d" width="54" height="4" rx="2" transform="translate(0.056 49.936)"/><rect class="d" width="17" height="4" rx="2" transform="translate(0.056 65.936)"/><rect class="d" width="53" height="4" rx="2" transform="translate(0.056 57.936)"/><rect class="d" width="39.431" height="5.407" rx="2.201" transform="translate(0 28.279)"/></g><g transform="translate(1690.211 1522.941)"><rect class="d" width="5" height="4" rx="2" transform="translate(62.056 65.936)"/><rect class="d" width="5" height="4" rx="2" transform="translate(62.056 57.936)"/><rect class="d" width="5" height="4" rx="2" transform="translate(62.056 49.936)"/><rect class="d" width="5" height="4" rx="2" transform="translate(62.056 41.936)"/><rect class="d" width="12" height="4" rx="2" transform="translate(69.056 41.936)"/><rect class="d" width="23" height="4" rx="2" transform="translate(69.056 49.936)"/><rect class="d" width="16" height="4" rx="2" transform="translate(69.056 57.936)"/><rect class="d" width="16" height="4" rx="2" transform="translate(69.056 65.936)"/></g><rect class="e" width="117" height="54" rx="8" transform="translate(1672.767 1545.377)"/></g><g transform="translate(0 5)"><rect class="f" width="13.517" height="5.407" rx="2.201" transform="translate(1766.717 1625.503)"/><rect class="f" width="13.517" height="5.407" rx="2.201" transform="translate(1766.717 1616.041)"/><rect class="f" width="13.517" height="5.407" rx="2.201" transform="translate(1743.738 1625.503)"/><rect class="f" width="13.517" height="5.407" rx="2.201" transform="translate(1743.738 1616.041)"/><rect class="f" width="35.144" height="5.407" rx="2.201" transform="translate(1696.431 1625.503)"/><rect class="f" width="35.144" height="5.407" rx="2.201" transform="translate(1696.431 1616.041)"/><g class="g" transform="translate(1677.692 1594.601)"><path class="h" d="M1690.852,1602.488h-9.573c-1.97,0-3.572-1.281-3.572-2.855v-36.787h13.145Zm-9.461-2.942h5.777v-33.757h-5.777Z" transform="translate(-1677.707 -1553.386)"/><path class="h" d="M1739.107,1602.488h-53.7v-39.641h53.7Zm-50.012-2.942h46.328v-33.757H1689.1Z" transform="translate(-1675.95 -1553.386)"/><path class="h" d="M1767.935,1602.488h-23.087v-39.641h26.662v36.787C1771.51,1601.208,1769.907,1602.488,1767.935,1602.488Zm-19.4-2.942h19.294v-33.757h-19.294Z" transform="translate(-1662.396 -1553.386)"/><path class="h" d="M1752.8,1602.488h-26.664v-39.641H1752.8Zm-22.979-2.942h19.3v-33.757h-19.3Z" transform="translate(-1666.662 -1553.386)"/><path class="h" d="M1786.822,1568.288H1677.707v-9.573a3.575,3.575,0,0,1,3.572-3.572h101.968a3.577,3.577,0,0,1,3.575,3.572Zm-105.431-3.684h101.746v-5.777H1681.391Z" transform="translate(-1677.707 -1555.143)"/></g><rect class="i" width="119" height="59" rx="8" transform="translate(1672.767 1589.377)"/></g><g transform="translate(0 -6)"><rect class="d" width="51" height="6" rx="2.201" transform="translate(1676.267 1493.877)"/><rect class="e" width="58" height="13" rx="6.5" transform="translate(1672.767 1490.377)"/></g><g transform="translate(75.627 -24.5)"><path class="j" d="M15088.769,2349.378h-25a4,4,0,0,1-4-4v-19a4,4,0,0,1,4-4h25a4,4,0,0,1,4,4v19A4,4,0,0,1,15088.769,2349.378Zm-18.48-13.347-.054,0a.6.6,0,0,0-.432.261l-4.72,7.075a.589.589,0,0,0,.493.917h23.59a.585.585,0,0,0,.5-.894l-7.079-11.8a.592.592,0,0,0-.47-.284l-.043,0a.577.577,0,0,0-.461.236l-6.671,8.894-4.238-4.239A.586.586,0,0,0,15070.288,2336.032Zm.595-9.437a2.36,2.36,0,1,0,2.359,2.36A2.363,2.363,0,0,0,15070.883,2326.595Z" transform="translate(-13382.999 -810)"/><rect class="k" width="41.354" height="35" rx="8" transform="translate(1672.767 1508.377)"/></g></g><path class="a" d="M2014.267,1533.3h-24.159a1.42,1.42,0,0,0-1.421,1.421h0v14.211a1.42,1.42,0,0,0,1.421,1.421h24.159v9.937a.709.709,0,0,0,1.213.5l18.969-18.969-18.968-18.966a.71.71,0,0,0-1,0,.7.7,0,0,0-.21.506Z" transform="translate(-1076.104 3600.851)"/><path class="a" d="M1841.267,1533.3h-24.158a1.421,1.421,0,0,0-1.421,1.421h0v14.211a1.42,1.42,0,0,0,1.421,1.421h24.158v9.937a.709.709,0,0,0,1.213.5l18.969-18.969-18.968-18.966a.71.71,0,0,0-1.214.5Z" transform="translate(-1100.714 3600.851)"/><text class="l" transform="translate(503 5064)"><tspan x="-28.144" y="0">Title</tspan></text><text class="l" transform="translate(503 5112)"><tspan x="-47.04" y="0">Header</tspan></text><text class="l" transform="translate(503 5132)"><tspan x="-72.288" y="0">Parapgaph</tspan></text><text class="l" transform="translate(503 5152)"><tspan x="-22.896" y="0">List</tspan></text><text class="m" transform="translate(503 5199)"><tspan x="-34.912" y="0">Table</tspan></text><text class="n" transform="translate(503 5084)"><tspan x="-40.624" y="0">Image</tspan></text><g transform="translate(812 5055)"><rect class="o" width="48" height="48"/><path class="p" d="M44,27H4L1,23l4-4H43l4,4Z"/><path class="q" d="M41,47H7a2,2,0,0,1-2-2V3A2,2,0,0,1,7,1H31L43,13V45A2,2,0,0,1,41,47Z"/><path class="r" d="M31,1V11a2,2,0,0,0,2,2H43Z"/><path class="s" d="M1,23H47V39a2,2,0,0,1-2,2H3a2,2,0,0,1-2-2Z"/><path class="c" d="M10.586,38.465a5.218,5.218,0,0,1-1.1-.112V36.7c.116.022.237.046.366.073a2.052,2.052,0,0,0,.42.04.858.858,0,0,0,.751-.316,1.942,1.942,0,0,0,.225-1.086V28.147h2.133v7.085a3.636,3.636,0,0,1-.7,2.414,2.6,2.6,0,0,1-2.095.819Z"/><path class="c" d="M20.211,33.615a2.307,2.307,0,0,1-.371,1.3,2.42,2.42,0,0,1-1.069.881,3.947,3.947,0,0,1-1.638.314A6.662,6.662,0,0,1,15.817,36a4.85,4.85,0,0,1-1.106-.384v-1.89a6.378,6.378,0,0,0,1.262.486,4.719,4.719,0,0,0,1.2.174,1.177,1.177,0,0,0,.693-.163.5.5,0,0,0,.221-.422A.465.465,0,0,0,18,33.516a1.065,1.065,0,0,0-.285-.245,11.172,11.172,0,0,0-1.044-.5,4.991,4.991,0,0,1-1.152-.677,2.078,2.078,0,0,1-.57-.752,2.486,2.486,0,0,1-.185-1,2.009,2.009,0,0,1,.79-1.692,3.468,3.468,0,0,1,2.17-.607,6.091,6.091,0,0,1,2.486.564l-.65,1.637a4.716,4.716,0,0,0-1.9-.5.985.985,0,0,0-.6.145.439.439,0,0,0-.189.359.516.516,0,0,0,.239.414,9.229,9.229,0,0,0,1.3.666,3.583,3.583,0,0,1,1.41.981,2.13,2.13,0,0,1,.391,1.306Z"/><path class="c" d="M28.773,32.062a4.234,4.234,0,0,1-.972,3.014,3.729,3.729,0,0,1-2.848,1.031A3.722,3.722,0,0,1,22.12,35.07a4.215,4.215,0,0,1-.985-3.017,4.187,4.187,0,0,1,.98-3,3.745,3.745,0,0,1,2.85-1.035,3.718,3.718,0,0,1,2.842,1.027A4.239,4.239,0,0,1,28.773,32.062Zm-5.4,0q0,2.279,1.584,2.278a1.361,1.361,0,0,0,1.2-.553,3.026,3.026,0,0,0,.391-1.725,3.069,3.069,0,0,0-.394-1.737,1.35,1.35,0,0,0-1.18-.561q-1.606,0-1.605,2.3Z"/><path class="c" d="M37.666,36H34.885l-2.869-5.532h-.047q.1,1.305.1,1.993V36h-1.88V28.147h2.772L35.818,33.6h.034c-.051-.792-.077-1.426-.077-1.907v-3.55h1.891Z"/></g><g transform="translate(812 5117)"><rect class="o" width="48" height="48"/><path class="t" d="M44,27H4L1,23l4-4H43l4,4Z"/><path class="u" d="M41,47H7a2,2,0,0,1-2-2V3A2,2,0,0,1,7,1H31L43,13V45A2,2,0,0,1,41,47Z"/><path class="v" d="M31,1V11a2,2,0,0,0,2,2H43Z"/><path class="w" d="M1,23H47V39a2,2,0,0,1-2,2H3a2,2,0,0,1-2-2Z"/><path class="c" d="M18.414,30.645a2.632,2.632,0,0,1-.775,2.033,3.129,3.129,0,0,1-2.2.717h-.6V36H12.715V28.147h2.719a3.33,3.33,0,0,1,2.234.649A2.325,2.325,0,0,1,18.414,30.645Zm-3.577,1.021h.387a1.058,1.058,0,0,0,.761-.27.973.973,0,0,0,.281-.74q0-.8-.881-.8h-.548v1.805Z" transform="translate(-0.048 -0.07)"/><path class="c" d="M27.143,36H24.36l-2.867-5.532h-.049q.1,1.305.1,1.993V36H19.667V28.147h2.771L25.3,33.6h.031q-.075-1.187-.074-1.907v-3.55h1.891V36Z" transform="translate(-0.048 -0.07)"/><path class="c" d="M31.992,31.4h3.389v4.232a9.318,9.318,0,0,1-3.034.473,3.666,3.666,0,0,1-2.806-1.053,4.209,4.209,0,0,1-.992-3,3.941,3.941,0,0,1,1.086-2.96,4.17,4.17,0,0,1,3.039-1.058,6.748,6.748,0,0,1,1.4.139,6,6,0,0,1,1.146.355l-.672,1.664a4.158,4.158,0,0,0-1.863-.418,1.773,1.773,0,0,0-1.438.6,2.618,2.618,0,0,0-.508,1.727,2.657,2.657,0,0,0,.459,1.679,1.593,1.593,0,0,0,1.324.577,3.9,3.9,0,0,0,.871-.091V33.041h-1.4V31.4Z" transform="translate(-0.048 -0.07)"/></g><g transform="translate(812 5179)"><rect class="o" width="48" height="48"/><path class="x" d="M44,27H4L1,23l4-4H43l4,4Z"/><path class="y" d="M41,47H7a2,2,0,0,1-2-2V3A2,2,0,0,1,7,1H31L43,13V45A2,2,0,0,1,41,47Z"/><path class="z" d="M31,1V11a2,2,0,0,0,2,2H43Z"/><path class="aa" d="M1,23H47V39a2,2,0,0,1-2,2H3a2,2,0,0,1-2-2Z"/><path class="c" d="M17.786,29.775a1.352,1.352,0,0,0-1.182.62,2.991,2.991,0,0,0-.424,1.71q0,2.268,1.724,2.268a3.525,3.525,0,0,0,1.01-.146,10.247,10.247,0,0,0,.983-.349v1.793a5.422,5.422,0,0,1-2.224.436,3.52,3.52,0,0,1-2.726-1.031A4.255,4.255,0,0,1,14,32.1a4.765,4.765,0,0,1,.459-2.144,3.293,3.293,0,0,1,1.321-1.421,4,4,0,0,1,2.028-.5,5.58,5.58,0,0,1,2.433.553l-.65,1.67a7.476,7.476,0,0,0-.87-.344A3.04,3.04,0,0,0,17.786,29.775Z" transform="translate(-0.279 -0.071)"/><path class="c" d="M26.562,33.615a2.317,2.317,0,0,1-.371,1.3,2.425,2.425,0,0,1-1.069.881,3.953,3.953,0,0,1-1.638.314A6.662,6.662,0,0,1,22.168,36a4.833,4.833,0,0,1-1.106-.384V33.722a6.28,6.28,0,0,0,1.262.486,4.719,4.719,0,0,0,1.2.174,1.172,1.172,0,0,0,.693-.163.5.5,0,0,0,.22-.422.473.473,0,0,0-.088-.282,1.046,1.046,0,0,0-.285-.244c-.13-.082-.479-.251-1.044-.505a4.964,4.964,0,0,1-1.152-.677,2.075,2.075,0,0,1-.569-.752,2.485,2.485,0,0,1-.186-1,2.01,2.01,0,0,1,.79-1.692,3.486,3.486,0,0,1,2.17-.606,6.1,6.1,0,0,1,2.487.563l-.65,1.638a4.716,4.716,0,0,0-1.9-.5.991.991,0,0,0-.6.145.438.438,0,0,0-.188.359.521.521,0,0,0,.239.414,8.994,8.994,0,0,0,1.3.666,3.6,3.6,0,0,1,1.41.98A2.139,2.139,0,0,1,26.562,33.615Z" transform="translate(-0.279 -0.071)"/><path class="c" d="M32.186,28.147H34.56L31.987,36h-2.5l-2.562-7.853h2.385l1.069,3.979a12.1,12.1,0,0,1,.365,1.848q.037-.375.15-.939c.075-.376.142-.672.2-.887Z" transform="translate(-0.279 -0.071)"/></g><g transform="translate(39 665)"><g transform="translate(-11)"><g transform="translate(10 34)"><g class="ap" transform="matrix(1, 0, 0, 1, 391, 4320)"><rect class="c" width="255" height="45" rx="14" transform="translate(587 193)"/></g><text class="ab" transform="translate(1026 4541)"><tspan x="0" y="0">Databases and Search Indexes</tspan></text><g class="ac" transform="translate(994 4524)"><rect class="o" width="24" height="24"/><line class="ad" x1="4.172" y1="4.172" transform="translate(18.828 14.828)"/><line class="ad" x1="7" transform="translate(1 9)"/><line class="ad" x1="7" transform="translate(1 15)"/><line class="ad" x1="15" transform="translate(1 21)"/><line class="ad" x1="15" transform="translate(1 3)"/><circle class="ad" cx="4" cy="4" r="4" transform="translate(12 8)"/></g></g><g transform="translate(273 -351)"><g class="ao" transform="matrix(1, 0, 0, 1, 128, 4705)"><rect class="c" width="94" height="45" rx="14" transform="translate(850 193)"/></g><text class="ab" transform="translate(1026 4926)"><tspan x="0" y="0">CRM</tspan></text><g class="ac" transform="translate(994 4909)"><rect class="o" width="24" height="24"/><rect class="ae" width="10" height="2" transform="translate(1 13)"/><rect class="ae" width="10" height="2" transform="translate(13 13)"/><rect class="ae" width="10" height="2" transform="translate(1 17)"/><rect class="ae" width="10" height="2" transform="translate(13 17)"/><rect class="ae" width="10" height="2" transform="translate(1 21)"/><rect class="ae" width="10" height="2" transform="translate(13 21)"/><path class="ae" d="M1,2v8a1,1,0,0,0,1,1H22a1,1,0,0,0,1-1V2a1,1,0,0,0-1-1H2A1,1,0,0,0,1,2ZM11,8H4V4h7Zm9,0H13V4h7Z"/></g></g></g><g transform="translate(15)"><g transform="translate(-55 -308)"><g class="an" transform="matrix(1, 0, 0, 1, 430, 4662)"><rect class="c" width="227" height="45" rx="14" transform="translate(548 71)"/></g><text class="ab" transform="translate(1026 4761)"><tspan x="0" y="0">Machine Learning Models</tspan></text><g class="ac" transform="translate(994.015 4744)"><rect class="o" width="24" height="24"/><path class="ae" d="M24,8a2.989,2.989,0,0,0-5.215-2.006l-6.8-2.834c0-.054.016-.1.016-.16A3,3,0,1,0,6,3a2.968,2.968,0,0,0,.606,1.789L3.731,9.1A2.937,2.937,0,0,0,3,9a3,3,0,1,0,2.963,3.366L17.57,9.787,10.4,16.362A2.957,2.957,0,0,0,9,16a3,3,0,1,0,2.76,1.826l7.819-7.167-1.138,7.4a3.021,3.021,0,1,0,1.975.315l1.143-7.429A3,3,0,0,0,24,8ZM11.215,5.006l6.486,2.7-12.166,2.7c-.044-.07-.092-.135-.141-.2L8.269,5.9A2.937,2.937,0,0,0,9,6a2.984,2.984,0,0,0,2.215-.994Z"/></g></g><g transform="translate(180 -253)"><g class="am" transform="matrix(1, 0, 0, 1, 195, 4607)"><rect class="c" width="199" height="45" rx="14" transform="translate(783 71)"/></g><text class="ab" transform="translate(1026 4706)"><tspan x="0" y="0">Content Republishing</tspan></text><g class="ac" transform="translate(994 4688)"><rect class="af" width="24" height="24"/><path class="ae" d="M4.431,8.327c-.7-2.525,1.1-3.611.925-5.769A10.715,10.715,0,0,0,1,11.147c0,6.075,5.3,9.695,9.036,10.487a4.57,4.57,0,0,0,.7.113c1.333-3.4-1.182-7.193-2.842-9.663C6.508,10.026,5.252,11.3,4.431,8.327Z" transform="translate(0.333 0.853)"/><path class="ae" d="M19.956,12.354c-1.074-.409-1.995.983-2.076-2.776a3.842,3.842,0,0,1,1.111-2.667,2.055,2.055,0,0,1,.486-.233c-.127-.233-.267-.456-.413-.679-.025.013-.047.03-.073.041-.833.389-.949.5-1.333,0a1.051,1.051,0,0,1,.231-1.55A10.658,10.658,0,0,0,10.12,1.01c1.352.019,2.965,1.02,2.142,2.619.124-.254-2.685-.86-3.067-.86-.515,0,1.05-1.926.907-1.759a10.728,10.728,0,0,0-4.409.948c.728.472,1.54.307,2.361.51a2.009,2.009,0,0,1,.733.3,2.49,2.49,0,0,0-.733-.3c-1.211-.14.587,3.185.519,2.743a1.536,1.536,0,0,1,3.044-.1,2.5,2.5,0,0,1-.559,1.51c-.94,1.236-1.133,3.436-1.6,2.873-4.393-1.8-3.91.581-2.467,2.172,2.309,2.547,1.137.261,4.161,1.595,2.432,1.072,5.359,1.326,4.645,2.133-2.161,2.447-1.707,4.067-5.529,6.933.318-.009,1.333-.11,1.541-.144a10.85,10.85,0,0,0,8.917-9.6,1.6,1.6,0,0,1-.77-.231Z" transform="translate(1.898 0.333)"/></g></g></g><g transform="translate(-14)"><g transform="translate(-27 -302)"><g class="al" transform="matrix(1, 0, 0, 1, 431, 4656)"><rect class="c" width="181" height="45" rx="14" transform="translate(547 132)"/></g><text class="ab" transform="translate(1026 4816)"><tspan x="0" y="0">Systems of Record</tspan></text><g class="ac" transform="translate(994 4799)"><rect class="af" width="24" height="24"/><ellipse class="ae" cx="10.667" cy="3.333" rx="10.667" ry="3.333" transform="translate(1.333 1.333)"/><path class="ae" d="M11.667,12.805c-3.291,0-9.475-.779-10.667-2.667v5.817c0,1.841,4.775,3.333,10.667,3.333S22.333,17.8,22.333,15.955v-5.82C20.7,12.2,14.957,12.805,11.667,12.805Z" transform="translate(0.333 3.378)"/><path class="ae" d="M11.667,7.8C8.376,7.8,2.192,7.026,1,5.135V9.622c0,1.841,4.775,3.333,10.667,3.333s10.667-1.493,10.667-3.333V5.135C20.7,7.2,14.957,7.8,11.667,7.8Z" transform="translate(0.333 1.712)"/></g></g><g transform="translate(162 -357)"><g class="ak" transform="matrix(1, 0, 0, 1, 242, 4711)"><rect class="c" width="247" height="45" rx="14" transform="translate(736 132)"/></g><text class="ab" transform="translate(1026 4871)"><tspan x="0" y="0">Natural Language Processing</tspan></text><g class="ac" transform="translate(12911.72 7872.96)"><circle class="ae" cx="1.5" cy="1.5" r="1.5" transform="translate(-11893.277 -3009.959) rotate(90)"/><circle class="ae" cx="1.5" cy="1.5" r="1.5" transform="translate(-11897.191 -3004.959) rotate(90)"/><circle class="ae" cx="1.5" cy="1.5" r="1.5" transform="translate(-11896.277 -3015.959) rotate(90)"/><path class="ag" d="M-11972.5-2517.347v-2.153l2-3v-2.37" transform="translate(-14420.277 8962.041) rotate(90)"/><path class="ag" d="M-11973.5-2522.5l2,3v2.15" transform="translate(-14420.277 8959.041) rotate(90)"/><path class="ag" d="M-11971.5-2517.35v-1.293l2.453-2.943h1.642" transform="translate(-14420.277 8963.041) rotate(90)"/><path class="ae" d="M12128.727,3238h0v-3h-3a4.53,4.53,0,0,1-2.119-.378,1.677,1.677,0,0,1-.881-1.623v-3.7l-2.168-.408a1.021,1.021,0,0,1-.506-.582,1.009,1.009,0,0,1,.059-.764l2.615-4.784v-.411a7.19,7.19,0,0,1,2.635-5.99,12.372,12.372,0,0,1,6.682-2.339c.245-.016.48-.024.7-.024a10.1,10.1,0,0,1,2.053.213v3.746a2.008,2.008,0,0,0-1.971,2h-1.6a.5.5,0,0,0,0,1h1.6v1h-2.6a.5.5,0,1,0,0,1h2.6v1h-1.6a.5.5,0,0,0,0,1h1.6a2.006,2.006,0,0,0,1.971,2v10.132l-6.063.911Z" transform="translate(-24037.721 -6232.959)"/></g></g></g><g transform="translate(7)"><g transform="translate(0 -204)"><g class="aj" transform="matrix(1, 0, 0, 1, 383, 4558)"><rect class="c" width="89" height="45" rx="14" transform="translate(595 10)"/></g><text class="ab" transform="translate(1026 4596)"><tspan x="0" y="0">ERP</tspan></text><g class="ah" transform="translate(994 4579)"><rect class="o" width="24" height="24"/><path class="ae" d="M22,10H20.769a8.943,8.943,0,0,0-1.156-2.785l.872-.872a2,2,0,1,0-2.828-2.828l-.872.872A8.943,8.943,0,0,0,14,3.231V2a2,2,0,1,0-4,0V3.231A8.943,8.943,0,0,0,7.215,4.387l-.872-.872A2,2,0,1,0,3.515,6.343l.872.872A8.943,8.943,0,0,0,3.231,10H2a2,2,0,0,0,0,4H3.231a8.943,8.943,0,0,0,1.156,2.785l-.872.872a2,2,0,1,0,2.828,2.828l.872-.872A8.943,8.943,0,0,0,10,20.769V22a2,2,0,0,0,4,0V20.769a8.943,8.943,0,0,0,2.785-1.156l.872.872a2,2,0,1,0,2.828-2.828l-.872-.872A8.943,8.943,0,0,0,20.769,14H22a2,2,0,0,0,0-4ZM12,16a4,4,0,1,1,4-4A4,4,0,0,1,12,16Z"/></g></g><g transform="translate(97 -259)"><g class="ai" transform="matrix(1, 0, 0, 1, 286, 4613)"><rect class="c" width="243" height="45" rx="14" transform="translate(692 10)"/></g><text class="ab" transform="translate(1026 4651)"><tspan x="0" y="0">Robotic Process Automation</tspan></text><g class="ac" transform="translate(990 4633)"><rect class="af" width="24" height="24"/><rect class="ae" width="5.333" height="7.467" rx="0.5" transform="translate(1.333 8)"/><rect class="ae" width="4" height="4" rx="0.5" transform="translate(18.667 2.667)"/><rect class="ae" width="4" height="4" rx="0.5" transform="translate(18.667 9.333)"/><rect class="ae" width="4" height="4" rx="0.5" transform="translate(18.667 16)"/><path class="ae" d="M15.333,4V3.333A.333.333,0,0,0,15,3H10.333A.333.333,0,0,0,10,3.333V9.667H6.333A.333.333,0,0,0,6,10v.667A.333.333,0,0,0,6.333,11H10v6.333a.333.333,0,0,0,.333.333H15a.333.333,0,0,0,.333-.333v-.667A.333.333,0,0,0,15,16.333H11.333V11H15a.333.333,0,0,0,.333-.333V10A.333.333,0,0,0,15,9.667H11.333V4.333H15A.333.333,0,0,0,15.333,4Z" transform="translate(2 1)"/></g></g></g></g></g></svg>