<svg xmlns="http://www.w3.org/2000/svg" width="40" height="40" viewBox="0 0 40 40"><defs><style>.a,.b{fill:#fff;}.b{opacity:0.1;}.c{fill:rgba(255,255,255,0);}</style></defs><g transform="translate(2 4.004)"><path class="a" d="M33.98,10.889A1.87,1.87,0,0,0,32.09,9.01H24.4a.51.51,0,1,0,0,1h7.82a.76.76,0,0,1,.76.75V29.181a.77.77,0,0,1-.76.77H3.87a.76.76,0,0,1-.75-.76V10.759a.76.76,0,0,1,.75-.75h7.11a.51.51,0,1,0,0-1H3.89A1.87,1.87,0,0,0,2,10.889V29.121A1.87,1.87,0,0,0,3.89,31H32.11A1.87,1.87,0,0,0,34,29.121Z"/><path class="b" d="M21,10v7a3,3,0,0,1-6,0V10H3V30H33V10Z"/><path class="a" d="M18.677.267,23.73,5.04a.955.955,0,0,1-1.363,1.337L19,3.083V17a1,1,0,1,1-2.005,0V3.083L13.664,6.377a1,1,0,0,1-1.363,0,.893.893,0,0,1,0-1.337L17.313.305A.955.955,0,0,1,18.677.267Z"/></g><rect class="c" width="40" height="40"/></svg>