<svg xmlns="http://www.w3.org/2000/svg" width="40" height="40" viewBox="0 0 40 40"><defs><style>.a,.b,.c{fill:#fff;}.a{opacity:0.1;}.c{fill-rule:evenodd;}.d{fill:none;stroke:#fff;stroke-linecap:round;stroke-linejoin:round;stroke-width:1.6px;}.e{fill:rgba(255,255,255,0);}</style></defs><g transform="translate(2 2)"><path class="a" d="M23.38,3a1.5,1.5,0,0,1,1.06.44l5.12,5.1A1.5,1.5,0,0,1,30,9.6V31a2,2,0,0,1-2,2H8a2,2,0,0,1-2-2V5A2,2,0,0,1,8,3Z"/><path class="b" d="M23.38,3a1.5,1.5,0,0,1,1.06.44l5.12,5.1A1.5,1.5,0,0,1,30,9.6V31a2,2,0,0,1-2,2H8a2,2,0,0,1-2-2V5A2,2,0,0,1,8,3Zm0-1H8A3,3,0,0,0,5,5V31a3,3,0,0,0,3,3H28a3,3,0,0,0,3-3V9.6a2.52,2.52,0,0,0-.74-1.77l-5.12-5.1A2.47,2.47,0,0,0,23.38,2Z"/><path class="b" d="M27.5,29a.5.5,0,0,1,0,1h-7a.5.5,0,0,1,0-1Zm-9.995,0a.5.5,0,0,1,0,1h-4.5l.73-1ZM14,21.14A1.16,1.16,0,0,0,12.818,20H10.179A1.16,1.16,0,0,0,9,21.14v5.63L11.5,30,14,26.77Z"/><path class="c" d="M10.5,7h6a.5.5,0,0,1,0,1h-6a.5.5,0,0,1,0-1Zm0,9h14a.5.5,0,0,1,0,1h-14a.5.5,0,0,1,0-1Zm0-6h14a.5.5,0,0,1,0,1h-14a.5.5,0,0,1,0-1Zm0,3h11a.5.5,0,0,1,0,1h-11a.5.5,0,0,1,0-1Z"/><path class="d" d="M20.5,23.5l3,3,5-5" transform="translate(-1)"/></g><rect class="e" width="40" height="40"/></svg>