<svg xmlns="http://www.w3.org/2000/svg" xmlns:xlink="http://www.w3.org/1999/xlink" width="1440" height="331.226" viewBox="0 0 1440 331.226"><defs><style>.a{fill:#fff;stroke:#707070;}.b,.f{fill:none;}.c{fill:#404753;}.d{clip-path:url(#a);}.e{opacity:0.75;clip-path:url(#b);}.f{stroke:#fff;stroke-linecap:round;stroke-width:2px;stroke-dasharray:1 16;}.g{fill:url(#c);}.h{fill:#272c35;}.i{fill:url(#d);}</style><clipPath id="a"><rect class="a" width="1440" height="331.226" transform="translate(-4309 15933)"/></clipPath><clipPath id="b"><rect class="b" width="1655.701" height="842.36"/></clipPath><radialGradient id="c" cx="0.5" cy="0.638" r="0.214" gradientUnits="objectBoundingBox"><stop offset="0" stop-color="#0d1420" stop-opacity="0.349"/><stop offset="1" stop-color="#0d1420" stop-opacity="0"/></radialGradient><linearGradient id="d" x1="1" y1="0.479" x2="0" y2="0.476" gradientUnits="objectBoundingBox"><stop offset="0" stop-opacity="0"/><stop offset="0.877" stop-color="#4a4a4a" stop-opacity="0.878"/><stop offset="1" stop-color="#545454"/></linearGradient></defs><g transform="translate(-848 -180)"><rect class="c" width="1440" height="331" transform="translate(848 180)"/><g class="d" transform="translate(5157 -15753)"><g class="e" transform="matrix(0.875, 0, -0.271, 0.829, -4507.563, 15764.428)"><g transform="translate(-3411.231 -21534.578)"><path class="f" d="M3160.525,20942.873s90.805,559.012,563.352,559.012,1005.9-559.012,1590.843-559.012" transform="translate(252.999 593.994)"/></g><g transform="translate(-3411.231 -21523.578)"><path class="f" d="M3160.525,20942.873s90.805,559.012,563.352,559.012,1005.9-559.012,1590.843-559.012" transform="translate(252.999 593.994)"/></g><g transform="translate(-3411.231 -21512.578)"><path class="f" d="M3160.525,20942.873s90.805,559.012,563.352,559.012,1005.9-559.012,1590.843-559.012" transform="translate(252.999 593.994)"/></g><g transform="translate(-3411.231 -21501.578)"><path class="f" d="M3160.525,20942.873s90.805,559.012,563.352,559.012,1005.9-559.012,1590.843-559.012" transform="translate(252.999 593.994)"/></g><g transform="translate(-3411.231 -21490.578)"><path class="f" d="M3160.525,20942.873s90.805,559.012,563.352,559.012,1005.9-559.012,1590.843-559.012" transform="translate(252.999 593.994)"/></g><g transform="translate(-3411.231 -21479.578)"><path class="f" d="M3160.525,20942.873s90.805,559.012,563.352,559.012,1005.9-559.012,1590.843-559.012" transform="translate(252.999 593.994)"/></g><g transform="translate(-3411.231 -21468.578)"><path class="f" d="M3160.525,20942.873s90.805,559.012,563.352,559.012,1005.9-559.012,1590.843-559.012" transform="translate(252.999 593.994)"/></g><g transform="translate(-3411.231 -21457.578)"><path class="f" d="M3160.525,20942.873s90.805,559.012,563.352,559.012,1005.9-559.012,1590.843-559.012" transform="translate(252.999 593.994)"/></g><g transform="translate(-3411.231 -21446.578)"><path class="f" d="M3160.525,20942.873s90.805,559.012,563.352,559.012,1005.9-559.012,1590.843-559.012" transform="translate(252.999 593.994)"/></g><g transform="translate(-3411.231 -21435.578)"><path class="f" d="M3160.525,20942.873s90.805,559.012,563.352,559.012,1005.9-559.012,1590.843-559.012" transform="translate(252.999 593.994)"/></g><g transform="translate(-3411.231 -21424.578)"><path class="f" d="M3160.525,20942.873s90.805,559.012,563.352,559.012,1005.9-559.012,1590.843-559.012" transform="translate(252.999 593.994)"/></g><g transform="translate(-3411.231 -21413.578)"><path class="f" d="M3160.525,20942.873s90.805,559.012,563.352,559.012,1005.9-559.012,1590.843-559.012" transform="translate(252.999 593.994)"/></g><g transform="translate(-3411.231 -21402.578)"><path class="f" d="M3160.525,20942.873s90.805,559.012,563.352,559.012,1005.9-559.012,1590.843-559.012" transform="translate(252.999 593.994)"/></g><g transform="translate(-3411.231 -21391.578)"><path class="f" d="M3160.525,20942.873s90.805,559.012,563.352,559.012,1005.9-559.012,1590.843-559.012" transform="translate(252.999 593.994)"/></g><g transform="translate(-3411.231 -21380.578)"><path class="f" d="M3160.525,20942.873s90.805,559.012,563.352,559.012,1005.9-559.012,1590.843-559.012" transform="translate(252.999 593.994)"/></g><g transform="translate(-3411.231 -21369.578)"><path class="f" d="M3160.525,20942.873s90.805,559.012,563.352,559.012,1005.9-559.012,1590.843-559.012" transform="translate(252.999 593.994)"/></g><g transform="translate(-3411.231 -21358.578)"><path class="f" d="M3160.525,20942.873s90.805,559.012,563.352,559.012,1005.9-559.012,1590.843-559.012" transform="translate(252.999 593.994)"/></g><g transform="translate(-3411.231 -21347.578)"><path class="f" d="M3160.525,20942.873s90.805,559.012,563.352,559.012,1005.9-559.012,1590.843-559.012" transform="translate(252.999 593.994)"/></g><g transform="translate(-3411.231 -21336.578)"><path class="f" d="M3160.525,20942.873s90.805,559.012,563.352,559.012,1005.9-559.012,1590.843-559.012" transform="translate(252.999 593.994)"/></g><g transform="translate(-3411.231 -21325.578)"><path class="f" d="M3160.525,20942.873s90.805,559.012,563.352,559.012,1005.9-559.012,1590.843-559.012" transform="translate(252.999 593.994)"/></g><g transform="translate(-3411.231 -21314.578)"><path class="f" d="M3160.525,20942.873s90.805,559.012,563.352,559.012,1005.9-559.012,1590.843-559.012" transform="translate(252.999 593.994)"/></g><g transform="translate(-3411.231 -21303.578)"><path class="f" d="M3160.525,20942.873s90.805,559.012,563.352,559.012,1005.9-559.012,1590.843-559.012" transform="translate(252.999 593.994)"/></g><g transform="translate(-3411.231 -21292.578)"><path class="f" d="M3160.525,20942.873s90.805,559.012,563.352,559.012,1005.9-559.012,1590.843-559.012" transform="translate(252.999 593.994)"/></g><g transform="translate(-3411.231 -21281.578)"><path class="f" d="M3160.525,20942.873s90.805,559.012,563.352,559.012,1005.9-559.012,1590.843-559.012" transform="translate(252.999 593.994)"/></g><g transform="translate(-3411.231 -21270.578)"><path class="f" d="M3160.525,20942.873s90.805,559.012,563.352,559.012,1005.9-559.012,1590.843-559.012" transform="translate(252.999 593.994)"/></g><g transform="translate(-3411.231 -21259.578)"><path class="f" d="M3160.525,20942.873s90.805,559.012,563.352,559.012,1005.9-559.012,1590.843-559.012" transform="translate(252.999 593.994)"/></g><g transform="translate(-3411.231 -21248.578)"><path class="f" d="M3160.525,20942.873s90.805,559.012,563.352,559.012,1005.9-559.012,1590.843-559.012" transform="translate(252.999 593.994)"/></g><g transform="translate(-3411.231 -21237.578)"><path class="f" d="M3160.525,20942.873s90.805,559.012,563.352,559.012,1005.9-559.012,1590.843-559.012" transform="translate(252.999 593.994)"/></g><g transform="translate(-3411.231 -21226.578)"><path class="f" d="M3160.525,20942.873s90.805,559.012,563.352,559.012,1005.9-559.012,1590.843-559.012" transform="translate(252.999 593.994)"/></g><g transform="translate(-3411.231 -21215.578)"><path class="f" d="M3160.525,20942.873s90.805,559.012,563.352,559.012,1005.9-559.012,1590.843-559.012" transform="translate(252.999 593.994)"/></g><g transform="translate(-3411.231 -21204.578)"><path class="f" d="M3160.525,20942.873s90.805,559.012,563.352,559.012,1005.9-559.012,1590.843-559.012" transform="translate(252.999 593.994)"/></g><g transform="translate(-3411.231 -21193.578)"><path class="f" d="M3160.525,20942.873s90.805,559.012,563.352,559.012,1005.9-559.012,1590.843-559.012" transform="translate(252.999 593.994)"/></g><g transform="translate(-3411.231 -21182.578)"><path class="f" d="M3160.525,20942.873s90.805,559.012,563.352,559.012,1005.9-559.012,1590.843-559.012" transform="translate(252.999 593.994)"/></g><g transform="translate(-3411.231 -21171.578)"><path class="f" d="M3160.525,20942.873s90.805,559.012,563.352,559.012,1005.9-559.012,1590.843-559.012" transform="translate(252.999 593.994)"/></g><g transform="translate(-3411.231 -21160.578)"><path class="f" d="M3160.525,20942.873s90.805,559.012,563.352,559.012,1005.9-559.012,1590.843-559.012" transform="translate(252.999 593.994)"/></g><g transform="translate(-3411.231 -21149.578)"><path class="f" d="M3160.525,20942.873s90.805,559.012,563.352,559.012,1005.9-559.012,1590.843-559.012" transform="translate(252.999 593.994)"/></g><g transform="translate(-3411.231 -21138.578)"><path class="f" d="M3160.525,20942.873s90.805,559.012,563.352,559.012,1005.9-559.012,1590.843-559.012" transform="translate(252.999 593.994)"/></g><g transform="translate(-3411.231 -21127.578)"><path class="f" d="M3160.525,20942.873s90.805,559.012,563.352,559.012,1005.9-559.012,1590.843-559.012" transform="translate(252.999 593.994)"/></g><g transform="translate(-3411.231 -21116.578)"><path class="f" d="M3160.525,20942.873s90.805,559.012,563.352,559.012,1005.9-559.012,1590.843-559.012" transform="translate(252.999 593.994)"/></g><g transform="translate(-3411.231 -21105.578)"><path class="f" d="M3160.525,20942.873s90.805,559.012,563.352,559.012,1005.9-559.012,1590.843-559.012" transform="translate(252.999 593.994)"/></g><g transform="translate(-3411.231 -21094.578)"><path class="f" d="M3160.525,20942.873s90.805,559.012,563.352,559.012,1005.9-559.012,1590.843-559.012" transform="translate(252.999 593.994)"/></g><g transform="translate(-3411.231 -21083.578)"><path class="f" d="M3160.525,20942.873s90.805,559.012,563.352,559.012,1005.9-559.012,1590.843-559.012" transform="translate(252.999 593.994)"/></g><g transform="translate(-3411.231 -21072.578)"><path class="f" d="M3160.525,20942.873s90.805,559.012,563.352,559.012,1005.9-559.012,1590.843-559.012" transform="translate(252.999 593.994)"/></g><g transform="translate(-3411.231 -21061.578)"><path class="f" d="M3160.525,20942.873s90.805,559.012,563.352,559.012,1005.9-559.012,1590.843-559.012" transform="translate(252.999 593.994)"/></g><g transform="translate(-3411.231 -21050.578)"><path class="f" d="M3160.525,20942.873s90.805,559.012,563.352,559.012,1005.9-559.012,1590.843-559.012" transform="translate(252.999 593.994)"/></g><g transform="translate(-3411.231 -21039.578)"><path class="f" d="M3160.525,20942.873s90.805,559.012,563.352,559.012,1005.9-559.012,1590.843-559.012" transform="translate(252.999 593.994)"/></g><g transform="translate(-3411.231 -21028.578)"><path class="f" d="M3160.525,20942.873s90.805,559.012,563.352,559.012,1005.9-559.012,1590.843-559.012" transform="translate(252.999 593.994)"/></g><g transform="translate(-3411.231 -21017.578)"><path class="f" d="M3160.525,20942.873s90.805,559.012,563.352,559.012,1005.9-559.012,1590.843-559.012" transform="translate(252.999 593.994)"/></g><g transform="translate(-3411.231 -21006.578)"><path class="f" d="M3160.525,20942.873s90.805,559.012,563.352,559.012,1005.9-559.012,1590.843-559.012" transform="translate(252.999 593.994)"/></g><g transform="translate(-3411.231 -20995.578)"><path class="f" d="M3160.525,20942.873s90.805,559.012,563.352,559.012,1005.9-559.012,1590.843-559.012" transform="translate(252.999 593.994)"/></g><g transform="translate(-3411.231 -20984.578)"><path class="f" d="M3160.525,20942.873s90.805,559.012,563.352,559.012,1005.9-559.012,1590.843-559.012" transform="translate(252.999 593.994)"/></g><g transform="translate(-3411.231 -20973.578)"><path class="f" d="M3160.525,20942.873s90.805,559.012,563.352,559.012,1005.9-559.012,1590.843-559.012" transform="translate(252.999 593.994)"/></g><g transform="translate(-3411.231 -20962.578)"><path class="f" d="M3160.525,20942.873s90.805,559.012,563.352,559.012,1005.9-559.012,1590.843-559.012" transform="translate(252.999 593.994)"/></g><g transform="translate(-3411.231 -20951.578)"><path class="f" d="M3160.525,20942.873s90.805,559.012,563.352,559.012,1005.9-559.012,1590.843-559.012" transform="translate(252.999 593.994)"/></g><g transform="translate(-3411.231 -20940.578)"><path class="f" d="M3160.525,20942.873s90.805,559.012,563.352,559.012,1005.9-559.012,1590.843-559.012" transform="translate(252.999 593.994)"/></g><g transform="translate(-3411.231 -20929.578)"><path class="f" d="M3160.525,20942.873s90.805,559.012,563.352,559.012,1005.9-559.012,1590.843-559.012" transform="translate(252.999 593.994)"/></g><g transform="translate(-3411.231 -20918.578)"><path class="f" d="M3160.525,20942.873s90.805,559.012,563.352,559.012,1005.9-559.012,1590.843-559.012" transform="translate(252.999 593.994)"/></g><g transform="translate(-3411.231 -20907.578)"><path class="f" d="M3160.525,20942.873s90.805,559.012,563.352,559.012,1005.9-559.012,1590.843-559.012" transform="translate(252.999 593.994)"/></g><g transform="translate(-3411.231 -20896.578)"><path class="f" d="M3160.525,20942.873s90.805,559.012,563.352,559.012,1005.9-559.012,1590.843-559.012" transform="translate(252.999 593.994)"/></g><g transform="translate(-3411.231 -20885.578)"><path class="f" d="M3160.525,20942.873s90.805,559.012,563.352,559.012,1005.9-559.012,1590.843-559.012" transform="translate(252.999 593.994)"/></g><g transform="translate(-3411.231 -20874.578)"><path class="f" d="M3160.525,20942.873s90.805,559.012,563.352,559.012,1005.9-559.012,1590.843-559.012" transform="translate(252.999 593.994)"/></g><g transform="translate(-3411.231 -20863.578)"><path class="f" d="M3160.525,20942.873s90.805,559.012,563.352,559.012,1005.9-559.012,1590.843-559.012" transform="translate(252.999 593.994)"/></g><g transform="translate(-3411.231 -20852.578)"><path class="f" d="M3160.525,20942.873s90.805,559.012,563.352,559.012,1005.9-559.012,1590.843-559.012" transform="translate(252.999 593.994)"/></g><g transform="translate(-3411.231 -20841.578)"><path class="f" d="M3160.525,20942.873s90.805,559.012,563.352,559.012,1005.9-559.012,1590.843-559.012" transform="translate(252.999 593.994)"/></g><g transform="translate(-3411.231 -20830.578)"><path class="f" d="M3160.525,20942.873s90.805,559.012,563.352,559.012,1005.9-559.012,1590.843-559.012" transform="translate(252.999 593.994)"/></g><g transform="translate(-3411.231 -20819.578)"><path class="f" d="M3160.525,20942.873s90.805,559.012,563.352,559.012,1005.9-559.012,1590.843-559.012" transform="translate(252.999 593.994)"/></g><g transform="translate(-3411.231 -20808.578)"><path class="f" d="M3160.525,20942.873s90.805,559.012,563.352,559.012,1005.9-559.012,1590.843-559.012" transform="translate(252.999 593.994)"/></g><g transform="translate(-3411.231 -20797.578)"><path class="f" d="M3160.525,20942.873s90.805,559.012,563.352,559.012,1005.9-559.012,1590.843-559.012" transform="translate(252.999 593.994)"/></g><g transform="translate(-3411.231 -20786.578)"><path class="f" d="M3160.525,20942.873s90.805,559.012,563.352,559.012,1005.9-559.012,1590.843-559.012" transform="translate(252.999 593.994)"/></g><g transform="translate(-3411.231 -20775.578)"><path class="f" d="M3160.525,20942.873s90.805,559.012,563.352,559.012,1005.9-559.012,1590.843-559.012" transform="translate(252.999 593.994)"/></g><g transform="translate(-3411.231 -20764.578)"><path class="f" d="M3160.525,20942.873s90.805,559.012,563.352,559.012,1005.9-559.012,1590.843-559.012" transform="translate(252.999 593.994)"/></g><g transform="translate(-3411.231 -20753.578)"><path class="f" d="M3160.525,20942.873s90.805,559.012,563.352,559.012,1005.9-559.012,1590.843-559.012" transform="translate(252.999 593.994)"/></g><g transform="translate(-3411.231 -20742.578)"><path class="f" d="M3160.525,20942.873s90.805,559.012,563.352,559.012,1005.9-559.012,1590.843-559.012" transform="translate(252.999 593.994)"/></g><g transform="translate(-3411.231 -20731.578)"><path class="f" d="M3160.525,20942.873s90.805,559.012,563.352,559.012,1005.9-559.012,1590.843-559.012" transform="translate(252.999 593.994)"/></g><g transform="translate(-3411.231 -20720.578)"><path class="f" d="M3160.525,20942.873s90.805,559.012,563.352,559.012,1005.9-559.012,1590.843-559.012" transform="translate(252.999 593.994)"/></g><g transform="translate(-3411.231 -20709.578)"><path class="f" d="M3160.525,20942.873s90.805,559.012,563.352,559.012,1005.9-559.012,1590.843-559.012" transform="translate(252.999 593.994)"/></g><g transform="translate(-3411.231 -20698.578)"><path class="f" d="M3160.525,20942.873s90.805,559.012,563.352,559.012,1005.9-559.012,1590.843-559.012" transform="translate(252.999 593.994)"/></g></g></g><path class="g" d="M0,0H1440V331.226H0Z" transform="translate(848 180)"/><rect class="h" width="1440" height="331.226" transform="translate(848 180)"/><path class="i" d="M0,0H1440V331.226H0Z" transform="translate(848 180)"/></g></svg>