<?xml version="1.0" encoding="utf-8"?>
<!-- Generator: Adobe Illustrator 25.4.1, SVG Export Plug-In . SVG Version: 6.00 Build 0)  -->
<svg version="1.1" id="Layer_1" xmlns="http://www.w3.org/2000/svg" xmlns:xlink="http://www.w3.org/1999/xlink" x="0px" y="0px"
	 viewBox="0 0 35 35.6" style="enable-background:new 0 0 35 35.6;" xml:space="preserve">
<style type="text/css">
	.st0{fill:#B3B3B3;}
	.st1{fill:#FA0F00;}
	.st2{fill-rule:evenodd;clip-rule:evenodd;fill:#FA0F00;}
</style>
<path class="st0" d="M23.7,19.5h-7.5c-0.2-1.2-1.4-1.9-2.5-1.7c-0.8,0.2-1.5,0.8-1.7,1.7h-1.5c-0.1,0-0.2,0.1-0.2,0.2v0.4
	c0,0.1,0.1,0.2,0.2,0.2H12c0.2,1.2,1.4,1.9,2.5,1.7c0.8-0.2,1.5-0.8,1.7-1.7h7.5c0.1,0,0.2-0.1,0.2-0.2v-0.4
	C24,19.6,23.9,19.5,23.7,19.5z M14.1,21.2c-0.7,0-1.3-0.6-1.3-1.3c0-0.7,0.6-1.3,1.3-1.3s1.3,0.6,1.3,1.3
	C15.4,20.7,14.8,21.2,14.1,21.2z"/>
<path class="st0" d="M23.7,28.1h-5.8c-0.2-1.2-1.4-1.9-2.5-1.7c-0.8,0.2-1.5,0.8-1.7,1.7h-3.2c-0.1,0-0.2,0.1-0.2,0.2v0.4
	c0,0.1,0.1,0.2,0.2,0.2h3.2c0.2,1.2,1.4,1.9,2.5,1.7c0.8-0.2,1.5-0.8,1.7-1.7h5.8c0.1,0,0.2-0.1,0.2-0.2v-0.4
	C24,28.2,23.9,28.1,23.7,28.1z M15.8,29.8c-0.7,0-1.3-0.6-1.3-1.3s0.6-1.3,1.3-1.3c0.7,0,1.3,0.6,1.3,1.3S16.5,29.8,15.8,29.8z"/>
<path class="st0" d="M10.3,24v0.4c0,0.1,0.1,0.2,0.2,0.2H18c0.2,1.2,1.4,1.9,2.5,1.7c0.8-0.2,1.5-0.8,1.7-1.7h1.5
	c0.1,0,0.2-0.1,0.2-0.2V24c0-0.1-0.1-0.2-0.2-0.2h-1.5c-0.2-1.2-1.4-1.9-2.5-1.7c-0.8,0.2-1.5,0.8-1.7,1.7h-7.5
	C10.4,23.8,10.3,23.9,10.3,24z M18.8,24.2c0-0.7,0.6-1.3,1.3-1.3c0.7,0,1.3,0.6,1.3,1.3c0,0.7-0.6,1.3-1.3,1.3
	C19.4,25.5,18.8,24.9,18.8,24.2z"/>
<path class="st1" d="M30,7.8l-5.1-5.1c-0.5-0.4-1.1-0.7-1.8-0.7H7.6c-1.6,0-3,1.3-3,2.9c0,0,0,0.1,0,0.1l0,26.1c0,1.6,1.3,3,2.9,3
	h20.2c1.6,0,3-1.3,3-2.9c0,0,0-0.1,0-0.1V9.6C30.7,9,30.4,8.3,30,7.8z M29.7,31.1c0,1.1-0.9,2-2,2H7.6c-1.1,0-2-0.9-2-2L5.6,5
	c0-1.1,0.9-2,2-2h15.5c0.4,0,0.8,0.2,1.1,0.4l5.1,5.1c0.2,0.3,0.4,0.7,0.4,1.1V31.1z"/>
<path class="st2" d="M10.3,11.3c-0.6,0.9-1.1,1.5-1.4,1.5c-0.1,0-0.1,0-0.1-0.1c-0.1,0-0.1-0.1-0.1-0.2C8.7,12.2,9.3,11.8,10.3,11.3
	L10.3,11.3z M13,10c-0.2,0.1-0.5,0.1-0.7,0.2c-0.2,0-0.4,0.1-0.5,0.2c0.1-0.2,0.2-0.4,0.3-0.6c0.1-0.2,0.2-0.5,0.3-0.7
	c0.1,0.1,0.2,0.2,0.2,0.4C12.6,9.6,12.8,9.8,13,10L13,10z M11.7,5.8c0-0.1,0.1-0.1,0.2-0.1c0.2,0,0.3,0.3,0.3,0.5
	c0,0.5-0.1,1-0.3,1.5C11.6,7,11.5,6.4,11.7,5.8L11.7,5.8z M15.7,10.7c0,0.2-0.2,0.3-0.4,0.3c-0.1,0-0.1,0-0.2,0
	c-0.4-0.1-0.9-0.3-1.2-0.6c0.3,0,0.6-0.1,0.9-0.1c0.2,0,0.4,0,0.6,0C15.5,10.3,15.7,10.4,15.7,10.7L15.7,10.7z M16.3,10.3
	c-0.4-0.3-1-0.5-1.5-0.4c-0.4,0-0.8,0-1.2,0.1c-0.3-0.3-0.5-0.5-0.7-0.8c-0.2-0.2-0.3-0.4-0.4-0.7c0.2-0.6,0.4-1.3,0.4-2
	c0-0.6-0.2-1.2-0.9-1.2c-0.2,0-0.4,0.1-0.6,0.3c-0.3,0.5-0.2,1.5,0.3,2.5c-0.2,0.5-0.3,0.9-0.5,1.4c-0.2,0.4-0.4,0.9-0.6,1.3
	c-0.7,0.3-2.1,0.9-2.3,1.7c0,0.2,0,0.4,0.2,0.6c0.2,0.1,0.4,0.2,0.6,0.2c0.9,0,1.7-1.2,2.3-2.2c0.3-0.1,0.7-0.2,1-0.3
	c0.4-0.1,0.7-0.2,1.1-0.2c0.6,0.6,1.3,0.9,2.1,0.9c0.6,0,0.8-0.2,0.9-0.5C16.5,10.7,16.4,10.4,16.3,10.3L16.3,10.3z"/>
</svg>
