<?xml version="1.0" encoding="utf-8"?>
<!-- Generator: Adobe Illustrator 25.4.1, SVG Export Plug-In . SVG Version: 6.00 Build 0)  -->
<svg version="1.1" id="Layer_1" xmlns="http://www.w3.org/2000/svg" xmlns:xlink="http://www.w3.org/1999/xlink" x="0px" y="0px"
	 viewBox="0 0 35 35.6" style="enable-background:new 0 0 35 35.6;" xml:space="preserve">
<style type="text/css">
	.st0{fill:#D7373F;}
</style>
<path class="st0" d="M33.6,27.7H16.4c-0.6-2.8-3.4-4.4-6-3.9c-1.8,0.5-3.6,1.8-4.1,3.9H1.3c-0.2,0-0.5,0.2-0.5,0.5v1.3
	C0.8,29.8,1,30,1.3,30h5.1c0.6,2.8,3.4,4.4,6,3.9c1.8-0.5,3.6-1.8,4.1-3.9h17.2c0.2,0,0.5-0.2,0.5-0.5v-1.3
	C34.1,28,33.8,27.7,33.6,27.7z M11.4,31.8c-1.5,0-2.9-1.3-2.9-2.9c0-1.5,1.3-2.9,2.9-2.9c1.6,0,2.9,1.4,2.9,2.9S13,31.8,11.4,31.8z"
	/>
<path class="st0" d="M33.6,4.9H16.4c-0.6-2.8-3.4-4.4-6-3.9C8.6,1.5,6.9,2.8,6.3,4.9H1.3C1,4.9,0.8,5.2,0.8,5.4v1.3
	C0.8,7,1,7.2,1.3,7.2h5.1c0.6,2.8,3.4,4.4,6,3.9c1.8-0.5,3.6-1.8,4.1-3.9h17.2c0.2,0,0.5-0.2,0.5-0.5V5.4
	C34.1,5.2,33.8,4.9,33.6,4.9z M11.4,9C9.9,9,8.5,7.7,8.5,6.1c0-1.5,1.3-2.9,2.9-2.9c1.6,0,2.9,1.4,2.9,2.9S13,9,11.4,9z"/>
<path class="st0" d="M1.3,18.6h17.2c0.6,2.8,3.4,4.4,6,3.9c1.8-0.5,3.6-1.8,4.1-3.9h5.1c0.2,0,0.5-0.2,0.5-0.5v-1.3
	c0-0.2-0.2-0.5-0.5-0.5h-5.1c-0.6-2.8-3.4-4.4-6-3.9c-1.8,0.5-3.6,1.8-4.1,3.9H1.3c-0.2,0-0.5,0.2-0.5,0.5v1.3
	C0.8,18.4,1,18.6,1.3,18.6z M23.5,14.6c1.5,0,2.9,1.3,2.9,2.9c0,1.5-1.3,2.9-2.9,2.9c-1.6,0-2.9-1.4-2.9-2.9S21.9,14.6,23.5,14.6z"
	/>
</svg>
