<svg xmlns="http://www.w3.org/2000/svg" width="335.169" height="459.169" viewBox="0 0 335.169 459.169"><defs><style>.a,.b,.c,.d{fill:none;}.a{opacity:0.3;}.b{opacity:0.45;}.c{opacity:0.6;}.d{opacity:0.7;}.e,.f{stroke:none;}.f{fill:#707070;}</style></defs><g transform="translate(-1316.043 -2284.943)"><g class="a" transform="translate(1483.627 2364.943) rotate(45)"><path class="e" d="M1.8,1.8,180.431-56.569,122.068,122.068-56.569,180.431Z"/><path class="f" d="M 178.087646484375 -54.2247314453125 L 2.984481811523438 2.984481811523438 L -54.2247314453125 178.087646484375 L 120.8783645629883 120.8783645629883 L 178.087646484375 -54.2247314453125 M 180.4314575195312 -56.56854248046875 L 122.0678024291992 122.0678024291992 L -56.56854248046875 180.4314575195312 L 1.795051574707031 1.795051574707031 L 180.4314575195312 -56.56854248046875 Z"/></g><g class="b" transform="translate(1483.627 2405.943) rotate(45)"><path class="e" d="M1.8,1.8,180.431-56.569,122.068,122.068-56.569,180.431Z"/><path class="f" d="M 178.087646484375 -54.2247314453125 L 2.984481811523438 2.984481811523438 L -54.2247314453125 178.087646484375 L 120.8783645629883 120.8783645629883 L 178.087646484375 -54.2247314453125 M 180.4314575195312 -56.56854248046875 L 122.0678024291992 122.0678024291992 L -56.56854248046875 180.4314575195312 L 1.795051574707031 1.795051574707031 L 180.4314575195312 -56.56854248046875 Z"/></g><g class="c" transform="translate(1483.627 2447.943) rotate(45)"><path class="e" d="M1.8,1.8,180.431-56.569,122.068,122.068-56.569,180.431Z"/><path class="f" d="M 178.087646484375 -54.2247314453125 L 2.984481811523438 2.984481811523438 L -54.2247314453125 178.087646484375 L 120.8783645629883 120.8783645629883 L 178.087646484375 -54.2247314453125 M 180.4314575195312 -56.56854248046875 L 122.0678024291992 122.0678024291992 L -56.56854248046875 180.4314575195312 L 1.795051574707031 1.795051574707031 L 180.4314575195312 -56.56854248046875 Z"/></g><g class="d" transform="translate(1483.627 2488.943) rotate(45)"><path class="e" d="M1.8,1.8,180.431-56.569,122.068,122.068-56.569,180.431Z"/><path class="f" d="M 178.087646484375 -54.2247314453125 L 2.984481811523438 2.984481811523438 L -54.2247314453125 178.087646484375 L 120.8783645629883 120.8783645629883 L 178.087646484375 -54.2247314453125 M 180.4314575195312 -56.56854248046875 L 122.0678024291992 122.0678024291992 L -56.56854248046875 180.4314575195312 L 1.795051574707031 1.795051574707031 L 180.4314575195312 -56.56854248046875 Z"/></g></g></svg>