<svg xmlns="http://www.w3.org/2000/svg" width="23" height="24" viewBox="0 0 23 24"><defs><style>.a{fill:#44b556;}.a,.b{fill-rule:evenodd;}.b{fill:rgba(68,181,86,0.2);}</style></defs><path class="a" d="M2,9a1.1,1.1,0,0,0-1,1v7a1.1,1.1,0,0,0,1,1H4V15H20v3h2a1.1,1.1,0,0,0,1-1V10a1.1,1.1,0,0,0-1-1H20v3H4V9H2" transform="translate(-1)"/><path class="a" d="M19,11V8a3.98,3.98,0,0,0-1.42-2.76L14.79,2.42A4.044,4.044,0,0,0,12,1H7A2.006,2.006,0,0,0,5,3v8H7V3h4V7a2.006,2.006,0,0,0,2,2h4v2ZM13,3.42,16.58,7H13V3.42Z" transform="translate(-1)"/><path class="b" d="M7,11V3h4V7a2.006,2.006,0,0,0,2,2h4v2Zm6-7.58L16.58,7H13V3.42Z" transform="translate(-1)"/><path class="a" d="M5,19H7v2H5Z" transform="translate(-1)"/><path class="a" d="M5,16H7v2H5Z" transform="translate(-1)"/><path class="a" d="M5,22H7v2H6a1,1,0,0,1-1-1V22" transform="translate(-1)"/><path class="a" d="M8,22h2v2H8Z" transform="translate(-1)"/><path class="a" d="M11,22h2v2H11Z" transform="translate(-1)"/><path class="a" d="M14,22h2v2H14Z" transform="translate(-1)"/><path class="a" d="M17,22h2v1a1,1,0,0,1-1,1H17V22" transform="translate(-1)"/><path class="a" d="M17,19h2v2H17Z" transform="translate(-1)"/><path class="a" d="M17,16h2v2H17Z" transform="translate(-1)"/><path class="a" d="M21,1l.779,2.221L24,4l-2.221.779L21,7l-.779-2.221L18,4l2.221-.779L21,1" transform="translate(-1)"/><path class="a" d="M2.5,3l.389,1.111L4,4.5l-1.111.389L2.5,6,2.111,4.889,1,4.5l1.111-.389L2.5,3" transform="translate(-1)"/><path class="a" d="M17.5,0l.385,1.115L19,1.5l-1.115.385L17.5,3l-.385-1.115L16,1.5l1.115-.385L17.5,0" transform="translate(-1)"/></svg>